<svg width="145" height="175" viewBox="0 0 145 175" fill="none" xmlns="http://www.w3.org/2000/svg">
<path d="M87.485 87.9234L3.74699 1.82444C2.74566 0.794876 1 1.50377 1 2.93997V65.4809L53.6617 120.105V140.431L85.1412 173.121C86.1427 174.161 87.9008 173.448 87.8937 172.004L87.485 87.9234Z" fill="#9F1C20"/>
<path d="M92.6228 87.9234V136.426C92.6228 137.871 94.3867 138.575 95.3823 137.528L119.596 112.06V99.7799L144 75.2201V39.3392C144 37.9054 142.259 37.1954 141.256 38.2202L92.6228 87.9234Z" fill="#9F1C20"/>
<path d="M87.485 87.9234L3.74699 1.82444C2.74566 0.794876 1 1.50377 1 2.93997V65.4809L53.6617 120.105V140.431L85.1412 173.121C86.1427 174.161 87.9008 173.448 87.8937 172.004L87.485 87.9234Z" stroke="#9F1C20"/>
<path d="M92.6228 87.9234V136.426C92.6228 137.871 94.3867 138.575 95.3823 137.528L119.596 112.06V99.7799L144 75.2201V39.3392C144 37.9054 142.259 37.1954 141.256 38.2202L92.6228 87.9234Z" stroke="#9F1C20"/>
</svg>
