<svg width="31" height="30" viewBox="0 0 31 30" fill="none" xmlns="http://www.w3.org/2000/svg">
<path d="M29.0008 1.0498H7.22678C6.97778 1.0498 6.77678 1.2508 6.77678 1.4998V14.8498H2.00078C1.75178 14.8498 1.55078 15.0508 1.55078 15.2998V28.4998C1.55078 28.7488 1.75178 28.9498 2.00078 28.9498H15.2008C15.4498 28.9498 15.6508 28.7488 15.6508 28.4998V23.7238H29.0008C29.2498 23.7238 29.4508 23.5228 29.4508 23.2738V1.4998C29.4508 1.2508 29.2498 1.0498 29.0008 1.0498ZM14.7508 28.0498H2.45078V15.7498H6.77678V23.2768C6.77678 23.5258 6.97778 23.7268 7.22678 23.7268H14.7508V28.0498ZM14.7508 22.8238H7.67678V15.7498H14.7508V22.8238ZM28.5508 22.8238H15.6508V15.2998C15.6508 15.0508 15.4498 14.8498 15.2008 14.8498H7.67678V1.9498H28.5508V22.8238Z" fill="white"/>
<path d="M18.1149 12.8366C18.2289 12.8366 18.3459 12.7916 18.4329 12.7046L25.0419 6.09564V8.10864C25.0419 8.35764 25.2429 8.55864 25.4919 8.55864C25.7409 8.55864 25.9419 8.35764 25.9419 8.10864V5.00964C25.9419 4.95264 25.9299 4.89564 25.9089 4.84464C25.9089 4.84164 25.9089 4.84164 25.9059 4.83864C25.8609 4.72764 25.7709 4.64064 25.6599 4.59264C25.6569 4.59264 25.6569 4.59264 25.6539 4.58964C25.6017 4.56778 25.5456 4.55656 25.4889 4.55664H22.3929C22.1439 4.55664 21.9429 4.75764 21.9429 5.00664C21.9429 5.25564 22.1439 5.45664 22.3929 5.45664H24.4059L17.7969 12.0686C17.7548 12.1102 17.7214 12.1597 17.6986 12.2143C17.6758 12.2689 17.6641 12.3275 17.6641 12.3866C17.6641 12.4458 17.6758 12.5044 17.6986 12.559C17.7214 12.6135 17.7548 12.6631 17.7969 12.7046C17.8839 12.7946 17.9979 12.8366 18.1149 12.8366Z" fill="white"/>
</svg>
