<svg width="61" height="60" viewBox="0 0 61 60" fill="none" xmlns="http://www.w3.org/2000/svg">
<path d="M7.02345 11.9248V30.9998C7.02345 49.7123 29.3359 58.8998 30.2859 59.2748C30.4359 59.3373 30.5984 59.3623 30.7484 59.3623C30.8984 59.3623 31.0609 59.3373 31.2109 59.2748C32.1609 58.8873 54.4734 49.6998 54.4734 30.9998V11.9248C54.4734 11.2748 53.9734 10.7373 53.3359 10.6748C53.2234 10.6623 42.3484 9.5998 31.5359 0.899805C31.0734 0.537305 30.4234 0.537305 29.9734 0.899805C19.1859 9.5748 8.27345 10.6623 8.16095 10.6748C7.8493 10.703 7.55954 10.847 7.34893 11.0784C7.13832 11.3099 7.02218 11.6119 7.02345 11.9248ZM9.52345 13.0123C12.6359 12.5248 21.5734 10.5623 30.7484 3.4623C39.9235 10.5623 48.8609 12.5248 51.9734 13.0123V30.9998C51.9734 46.5998 33.9109 55.3498 30.7484 56.7623C27.5859 55.3498 9.52345 46.6123 9.52345 30.9998V13.0123Z" fill="white"/>
<path d="M30.1602 50.8998C30.3477 50.9998 30.5477 51.0498 30.7477 51.0498C30.9477 51.0498 31.1477 50.9998 31.3352 50.8998C37.1727 47.7748 46.9727 41.0248 46.9727 30.9998V17.9748C46.9727 17.4123 46.6102 16.9248 46.0727 16.7748C42.5352 15.7498 37.1227 13.7623 31.4352 10.0748C31.0227 9.8123 30.4852 9.8123 30.0727 10.0748C25.5409 13.0001 20.611 15.2566 15.4352 16.7748C14.8977 16.9248 14.5352 17.4248 14.5352 17.9748V30.9998C14.5227 41.0248 24.3227 47.7748 30.1602 50.8998ZM17.0227 18.8998C20.5477 17.8123 25.5102 15.8873 30.7477 12.5998C35.9852 15.8873 40.9477 17.8123 44.4727 18.8998V30.9998C44.4727 39.6623 35.3102 45.8373 30.7477 48.3748C26.1852 45.8373 17.0227 39.6623 17.0227 30.9998V18.8998Z" fill="white"/>
<path d="M27.9486 35.9123C28.2861 35.9123 28.5986 35.7748 28.8361 35.5498L40.0236 24.3623C40.2573 24.1285 40.3886 23.8116 40.3886 23.481C40.3886 23.1505 40.2573 22.8335 40.0236 22.5998C39.7899 22.366 39.4729 22.2347 39.1424 22.2347C38.8118 22.2347 38.4948 22.366 38.2611 22.5998L27.9611 32.8998L23.2486 28.1873C23.0149 27.9535 22.6979 27.8222 22.3674 27.8222C22.0368 27.8222 21.7198 27.9535 21.4861 28.1873C21.2524 28.421 21.1211 28.738 21.1211 29.0685C21.1211 29.399 21.2524 29.716 21.4861 29.9498L27.0861 35.5498C27.2986 35.7748 27.6236 35.9123 27.9486 35.9123Z" fill="white"/>
</svg>
