<svg width="46" height="46" viewBox="0 0 46 46" fill="none" xmlns="http://www.w3.org/2000/svg">
<g clip-path="url(#clip0_20787_4841)">
<path d="M34.1043 22.6408V8.3377H26.9527V1.83301H1.54492V44.1674H34.1043V42.1549M27.5277 1.83301L34.1043 7.79863M6.54023 27.3846H26.0902M6.54023 18.5439H26.0902M6.54023 36.2252H26.0902M6.54023 9.70332H17.8246" stroke="black" stroke-width="2" stroke-miterlimit="10" stroke-linecap="round"/>
<path d="M36.6578 40.2863C40.9648 40.2863 44.4562 36.7949 44.4562 32.4879C44.4562 28.1809 40.9648 24.6895 36.6578 24.6895C32.3509 24.6895 28.8594 28.1809 28.8594 32.4879C28.8594 36.7949 32.3509 40.2863 36.6578 40.2863Z" stroke="black" stroke-width="2" stroke-miterlimit="10" stroke-linecap="round"/>
<path d="M32.9531 33.7814L34.8219 35.6502L40.7516 29.6846" stroke="black" stroke-width="2" stroke-miterlimit="10" stroke-linecap="round"/>
</g>
<defs>
<clipPath id="clip0_20787_4841">
<rect width="46" height="46" fill="white"/>
</clipPath>
</defs>
</svg>
