<svg width="46" height="46" viewBox="0 0 46 46" fill="none" xmlns="http://www.w3.org/2000/svg">
<g clip-path="url(#clip0_21007_872)">
<path d="M5.85119 2.8125C4.6755 2.8125 3.71875 3.76916 3.71875 4.94485C3.71875 6.12055 4.6755 7.07684 5.85119 7.07684C7.02689 7.07684 7.98318 6.12019 7.98318 4.94449C7.98318 3.7688 7.02689 2.8125 5.85119 2.8125ZM5.85119 5.71589C5.42578 5.71589 5.07979 5.3699 5.07979 4.94449C5.07979 4.51953 5.42578 4.17345 5.85119 4.17345C6.27615 4.17345 6.62223 4.51953 6.62223 4.94449C6.62223 5.3699 6.27615 5.71589 5.85119 5.71589ZM11.5671 2.8125C10.3914 2.8125 9.4347 3.76916 9.4347 4.94485C9.4347 6.12055 10.3914 7.07684 11.5671 7.07684C12.7428 7.07684 13.6991 6.12055 13.6991 4.94485C13.6991 3.76916 12.7428 2.8125 11.5671 2.8125ZM11.5671 5.71589C11.1417 5.71589 10.7957 5.3699 10.7957 4.94449C10.7957 4.51953 11.1417 4.17345 11.5671 4.17345C11.9921 4.17345 12.3382 4.51953 12.3382 4.94449C12.3382 5.3699 11.9921 5.71589 11.5671 5.71589ZM17.2831 2.8125C16.1074 2.8125 15.1511 3.76916 15.1511 4.94485C15.1511 6.12055 16.1074 7.07684 17.2831 7.07684C18.4588 7.07684 19.4151 6.12055 19.4151 4.94485C19.4151 3.76916 18.4588 2.8125 17.2831 2.8125ZM17.2831 5.71589C16.8578 5.71589 16.512 5.3699 16.512 4.94449C16.512 4.51953 16.8578 4.17345 17.2831 4.17345C17.7084 4.17345 18.0545 4.51953 18.0545 4.94449C18.0545 5.3699 17.708 5.71589 17.2831 5.71589Z" fill="#B1B2B2"/>
<path d="M43.505 0H2.49496C1.11918 0 0 1.11918 0 2.49496V32.5266C0 33.9024 1.11918 35.0215 2.49496 35.0215H6.88464C6.78265 35.1524 6.73199 35.316 6.7422 35.4816C6.75241 35.6472 6.82278 35.8034 6.94007 35.9207L10.2095 39.1901C9.96473 39.6926 9.7504 40.2093 9.56764 40.7375H4.94455C4.569 40.7375 4.26443 41.0421 4.26443 41.418V45.3195C4.26441 45.4999 4.33605 45.673 4.46359 45.8006C4.59113 45.9282 4.76413 45.9999 4.94455 46H18.3727C18.5532 46 18.7262 45.9283 18.8539 45.8007C18.9815 45.6731 19.0532 45.5 19.0532 45.3195C19.0532 43.2432 20.7423 41.5542 22.8185 41.5542C24.8944 41.5542 26.5836 43.2432 26.5836 45.3195C26.5836 45.5 26.6553 45.673 26.7829 45.8007C26.9105 45.9283 27.0835 46 27.264 46H40.692C40.7814 46 40.8699 45.9824 40.9525 45.9482C41.035 45.914 41.1101 45.8639 41.1733 45.8007C41.2365 45.7375 41.2866 45.6625 41.3208 45.58C41.355 45.4974 41.3726 45.4089 41.3726 45.3195V41.418C41.3726 41.2375 41.3009 41.0644 41.1733 40.9368C41.0457 40.8092 40.8726 40.7375 40.6921 40.7375H36.069C35.8862 40.2093 35.6719 39.6926 35.4271 39.1901L38.697 35.9207C38.9422 35.675 38.9605 35.2886 38.752 35.0215H43.5047C44.8804 35.0215 45.9996 33.9024 45.9996 32.5266V15.6926C46.0007 15.6026 45.9838 15.5132 45.9501 15.4298C45.9164 15.3463 45.8664 15.2704 45.8032 15.2064C45.7399 15.1424 45.6645 15.0916 45.5815 15.0569C45.4984 15.0222 45.4093 15.0044 45.3193 15.0044C45.2293 15.0044 45.1402 15.0222 45.0571 15.0569C44.9741 15.0916 44.8987 15.1424 44.8354 15.2064C44.7722 15.2704 44.7222 15.3463 44.6885 15.4298C44.6548 15.5132 44.6379 15.6026 44.639 15.6926V32.5266C44.639 33.152 44.1301 33.6605 43.5047 33.6605H37.3993L33.3885 29.6499V24.9959C33.3885 24.8154 33.3168 24.6424 33.1892 24.5148C33.0616 24.3872 32.8885 24.3154 32.7081 24.3154H31.4832V20.1222L32.4434 19.2357C32.5379 19.1485 32.6058 19.0363 32.6392 18.912C32.6726 18.7878 32.67 18.6566 32.6319 18.5338L30.9989 13.2716C30.9558 13.133 30.8694 13.0117 30.7525 12.9256C30.6356 12.8395 30.4942 12.793 30.3489 12.7929H28.5341C28.3889 12.793 28.2475 12.8395 28.1306 12.9256C28.0136 13.0117 27.9273 13.133 27.8842 13.2716L26.2513 18.5338C26.2131 18.6566 26.2106 18.7878 26.2439 18.912C26.2772 19.0363 26.3451 19.1485 26.4397 19.2357L27.4003 20.1222V24.3154H26.1754C25.995 24.3154 25.8219 24.3871 25.6943 24.5147C25.5667 24.6423 25.495 24.8154 25.495 24.9959V26.765H20.1418V25.7314L22.755 23.1182C22.8182 23.0551 22.8684 22.9801 22.9026 22.8975C22.9368 22.815 22.9544 22.7265 22.9544 22.6371V17.0569C22.9544 16.9669 22.9365 16.8777 22.9017 16.7947C22.8669 16.7116 22.816 16.6363 22.7519 16.573L19.1231 12.9892C19.0276 12.8949 18.9063 12.8309 18.7745 12.8053C18.6428 12.7797 18.5064 12.7937 18.3826 12.8454C18.2587 12.8971 18.1529 12.9843 18.0785 13.096C18.004 13.2076 17.9643 13.3388 17.9642 13.4731V19.5393L16.1951 20.6532L14.4259 19.5392V19.1515C14.4259 18.971 14.3542 18.7979 14.2265 18.6703C14.0989 18.5427 13.9258 18.471 13.7454 18.471C13.656 18.471 13.5675 18.4886 13.485 18.5228C13.4024 18.557 13.3274 18.6071 13.2642 18.6703C13.201 18.7335 13.1509 18.8085 13.1167 18.891C13.0825 18.9736 13.0649 19.0621 13.0649 19.1515V19.9148C13.0649 20.0298 13.094 20.143 13.1496 20.2437C13.2052 20.3444 13.2855 20.4294 13.3829 20.4907L15.8325 22.0331C15.9411 22.1015 16.0667 22.1379 16.1951 22.1379C16.3234 22.1379 16.449 22.1015 16.5576 22.0331L19.0073 20.4907C19.1046 20.4294 19.1849 20.3444 19.2405 20.2437C19.2961 20.143 19.3253 20.0298 19.3252 19.9148V15.1015L21.5934 17.3413V22.3549L18.9802 24.9681C18.917 25.0313 18.8668 25.1064 18.8326 25.1891C18.7984 25.2717 18.7808 25.3602 18.7808 25.4497V26.7787C18.6272 26.8102 18.4891 26.8937 18.3899 27.0152C18.2907 27.1366 18.2365 27.2886 18.2365 27.4455V32.0686C17.7082 32.2512 17.1914 32.4655 16.6888 32.7101L13.6093 29.6306V25.4497C13.6093 25.3602 13.5917 25.2717 13.5575 25.189C13.5232 25.1064 13.4731 25.0313 13.4098 24.9681L10.7967 22.3549V17.3413L13.0649 15.1015V15.9644C13.0649 16.0538 13.0825 16.1423 13.1167 16.2249C13.1509 16.3074 13.201 16.3825 13.2642 16.4457C13.3274 16.5089 13.4024 16.559 13.4849 16.5932C13.5675 16.6274 13.656 16.645 13.7454 16.645C13.8347 16.645 13.9232 16.6274 14.0058 16.5932C14.0884 16.559 14.1634 16.5089 14.2266 16.4457C14.2898 16.3825 14.3399 16.3074 14.3741 16.2249C14.4083 16.1423 14.4259 16.0538 14.4259 15.9644V13.4734C14.4259 13.3392 14.3862 13.2079 14.3118 13.0962C14.2373 12.9844 14.1315 12.8972 14.0075 12.8456C13.8837 12.7938 13.7474 12.7798 13.6156 12.8054C13.4838 12.8309 13.3626 12.8948 13.267 12.9891L9.63781 16.5729C9.57373 16.6362 9.52286 16.7116 9.48816 16.7947C9.45345 16.8778 9.43561 16.967 9.43566 17.057V22.6371C9.43566 22.8175 9.50727 22.9906 9.63511 23.1182L12.2482 25.7314V29.6499L8.23759 33.6605H2.49496C1.86956 33.6605 1.36095 33.152 1.36095 32.5267V9.88937H44.639V12.5222C44.639 12.8978 44.9436 13.2024 45.3195 13.2024C45.4999 13.2024 45.673 13.1307 45.8006 13.0032C45.9282 12.8757 45.9999 12.7027 46 12.5222V2.49487C46 1.11927 44.8808 0 43.505 0ZM28.5423 19.3245L27.6785 18.5271L29.0361 14.1539H29.8478L31.2049 18.5271L30.3412 19.3245C30.2722 19.3882 30.2171 19.4656 30.1794 19.5516C30.1417 19.6377 30.1222 19.7306 30.1222 19.8246V24.3158H28.7617V19.8246C28.7616 19.7306 28.742 19.6376 28.7043 19.5516C28.6665 19.4655 28.6114 19.3882 28.5423 19.3245ZM32.0275 25.6764V29.6309L28.9479 32.7105C28.4453 32.4659 27.9285 32.2516 27.4003 32.0686V27.4458C27.4002 27.289 27.346 27.137 27.2468 27.0155C27.1477 26.894 27.0096 26.8105 26.8559 26.7791V25.6767H32.0275V25.6764ZM16.8776 34.1417C17.5922 33.7611 18.3418 33.4502 19.1161 33.2134C19.2554 33.1708 19.3774 33.0845 19.4641 32.9673C19.5508 32.8501 19.5976 32.7082 19.5975 32.5624V28.1259H26.0393V32.5624C26.0394 32.7082 26.0862 32.8501 26.1729 32.9673C26.2596 33.0845 26.3817 33.1708 26.5211 33.2134C27.2953 33.4502 28.0449 33.7611 28.7594 34.1417C28.8882 34.2102 29.0355 34.2356 29.1797 34.2142C29.324 34.1927 29.4575 34.1255 29.5607 34.0224L32.6985 30.8845L36.6359 34.8222C36.6362 34.8222 36.6362 34.8225 36.6366 34.8229L37.2535 35.4395L34.1157 38.5774C34.0126 38.6805 33.9454 38.8141 33.9239 38.9583C33.9025 39.1026 33.9279 39.2499 33.9964 39.3786C34.3771 40.0931 34.688 40.8427 34.9247 41.617C34.9673 41.7563 35.0535 41.8783 35.1706 41.965C35.2878 42.0517 35.4296 42.0985 35.5753 42.0985H40.0117V44.639H33.0934C32.7418 39.2768 28.2682 35.0219 22.8185 35.0219C21.3614 35.0219 19.953 35.3202 18.6321 35.9084C18.4672 35.9819 18.3383 36.1179 18.2736 36.2864C18.209 36.455 18.214 36.6423 18.2874 36.8072C18.4402 37.1504 18.8429 37.3045 19.1859 37.1518C20.3314 36.6415 21.5533 36.3829 22.8185 36.3829C27.5174 36.3829 31.3811 40.0278 31.7296 44.639H27.8996C27.5659 42.1332 25.4146 40.1936 22.8185 40.1936C20.2225 40.1936 18.0712 42.1332 17.7375 44.639H13.9068C14.0721 42.4045 15.0516 40.3514 16.7067 38.7992C16.8372 38.6755 16.9134 38.5052 16.9186 38.3254C16.9239 38.1457 16.8579 37.9712 16.7349 37.8401C16.6119 37.7089 16.442 37.6317 16.2624 37.6254C16.0827 37.6191 15.9078 37.6841 15.7759 37.8063C13.8731 39.5906 12.7178 42.0504 12.5444 44.639H5.62503V42.0984H10.0615C10.2073 42.0985 10.3492 42.0517 10.4664 41.965C10.5835 41.8783 10.6698 41.7563 10.7124 41.6169C10.9491 40.8427 11.26 40.0931 11.6407 39.3786C11.7093 39.2499 11.7347 39.1026 11.7132 38.9583C11.6917 38.8141 11.6245 38.6805 11.5214 38.5774L8.3835 35.4395L9.00055 34.8229C9.00055 34.8225 9.00091 34.8222 9.00118 34.8222L12.9386 30.8845L16.0764 34.0224C16.1795 34.1255 16.3131 34.1927 16.4573 34.2142C16.6016 34.2357 16.7489 34.2103 16.8776 34.1417ZM1.36095 8.52851V2.49496C1.36095 1.86956 1.86983 1.36095 2.49496 1.36095H43.505C44.1304 1.36095 44.639 1.86983 44.639 2.49496V8.52851H1.36095Z" fill="#B1B2B2"/>
</g>
<defs>
<clipPath id="clip0_21007_872">
<rect width="46" height="46" fill="white"/>
</clipPath>
</defs>
</svg>
