<svg width="47" height="46" viewBox="0 0 47 46" fill="none" xmlns="http://www.w3.org/2000/svg">
<path d="M1.39461 25.9814L2.56474 33.7812H2.10546C1.9962 33.7813 1.88839 33.8062 1.7902 33.8541C1.69202 33.902 1.60605 33.9717 1.53884 34.0578C1.47163 34.1439 1.42493 34.2443 1.40231 34.3512C1.37968 34.458 1.38172 34.5687 1.40827 34.6747L2.84577 40.4247C2.8847 40.5801 2.97446 40.718 3.10077 40.8166C3.22709 40.9152 3.38273 40.9687 3.54296 40.9688H43.793C43.9532 40.9687 44.1088 40.9152 44.2351 40.8166C44.3615 40.718 44.4512 40.5801 44.4901 40.4247L45.9276 34.6747C45.9542 34.5687 45.9562 34.458 45.9336 34.3512C45.911 34.2443 45.8643 34.1439 45.7971 34.0578C45.7299 33.9717 45.6439 33.902 45.5457 33.8541C45.4475 33.8062 45.3397 33.7813 45.2305 33.7812H44.7712L45.9413 25.9814C45.9558 25.8741 45.9457 25.765 45.9118 25.6622H45.9169L42.3231 14.1623C42.2777 14.0157 42.1866 13.8875 42.0631 13.7965C41.9395 13.7054 41.7901 13.6563 41.6367 13.6562C35.8474 13.6505 30.1137 14.7847 24.7626 16.9941L10.1555 23.0101C9.6231 22.8076 9.09585 22.5919 8.5742 22.3632V15.0938H12.168C12.3586 15.0938 12.5414 15.018 12.6762 14.8832C12.811 14.7484 12.8867 14.5656 12.8867 14.375V5.75C12.8867 5.55938 12.811 5.37656 12.6762 5.24177C12.5414 5.10698 12.3586 5.03125 12.168 5.03125H3.54296C3.35233 5.03125 3.16951 5.10698 3.03472 5.24177C2.89993 5.37656 2.82421 5.55938 2.82421 5.75V14.375C2.82421 14.5656 2.89993 14.7484 3.03472 14.8832C3.16951 15.018 3.35233 15.0938 3.54296 15.0938H7.13671V21.6488C6.2861 21.2161 5.45557 20.7451 4.64767 20.2371C4.55977 20.1812 4.46075 20.1451 4.35749 20.1312C4.25422 20.1173 4.14918 20.1261 4.04963 20.1569C3.95009 20.1876 3.85842 20.2397 3.78099 20.3094C3.70355 20.3791 3.6422 20.4648 3.60117 20.5606L1.44492 25.5918C1.39231 25.7145 1.37489 25.8494 1.39461 25.9814ZM7.13671 9.34375H8.5742V10.7812H7.13671V9.34375ZM5.69921 10.7812H4.26171V9.34375H5.69921V10.7812ZM7.13671 7.90625V6.46875H8.5742V7.90625H7.13671ZM10.0117 9.34375H11.4492V10.7812H10.0117V9.34375ZM8.5742 12.2188V13.6562H7.13671V12.2188H8.5742ZM10.0117 13.6562V12.2188H11.4492V13.6562H10.0117ZM11.4492 7.90625H10.0117V6.46875H11.4492V7.90625ZM5.69921 6.46875V7.90625H4.26171V6.46875H5.69921ZM4.26171 12.2188H5.69921V13.6562H4.26171V12.2188ZM3.00174 27.0063C4.65582 27.6541 6.32979 28.2215 8.02364 28.7083L8.26514 33.7812H4.01805L3.00174 27.0063ZM39.0025 35.2188H41.4347L40.3566 39.5312H38.7969L39.0025 35.2188ZM37.3573 39.5312H34.4823L34.9523 29.7642C35.9265 29.5667 36.8949 29.3422 37.8575 29.0907L37.3573 39.5312ZM33.0448 39.5312H29.418V34.5C29.418 34.3094 29.3422 34.1266 29.2074 33.9918C29.0726 33.857 28.8898 33.7812 28.6992 33.7812H18.6367C18.4461 33.7812 18.2633 33.857 18.1285 33.9918C17.9937 34.1266 17.918 34.3094 17.918 34.5V39.5312H14.2911L13.839 30.0437C17.0821 30.6162 20.369 30.9048 23.6622 30.9062H23.6737C26.9669 30.9048 30.2538 30.6162 33.4969 30.0437L33.0448 39.5312ZM24.3867 35.2188H27.9805V39.5312H24.3867V35.2188ZM22.9492 39.5312H19.3555V35.2188H22.9492V39.5312ZM12.3836 29.7642L12.8515 39.5312H9.97649L9.47911 29.0907C10.4437 29.3403 11.4118 29.5648 12.3836 29.7642ZM8.53899 39.5312H6.9793L5.90117 35.2188H8.33342L8.53899 39.5312ZM3.02617 35.2188H4.41911L5.49724 39.5312H4.1043L3.02617 35.2188ZM43.2316 39.5312H41.8387L42.9168 35.2188H44.3097L43.2316 39.5312ZM39.0708 33.7812L39.3123 28.7083C41.0056 28.221 42.6796 27.6537 44.3342 27.0063L43.3179 33.7812H39.0708ZM25.3103 18.3238C30.2551 16.2831 35.5398 15.191 40.8885 15.1045C40.8503 15.5925 40.773 16.0766 40.6571 16.5521C35.5748 16.6643 30.5571 17.7155 25.8573 19.6528L14.468 24.3412C13.7022 24.1637 12.9434 23.9575 12.1931 23.7231L25.3103 18.3238ZM40.1647 18.0061C39.6474 19.1979 38.8799 20.2643 37.914 21.1332C36.9482 22.0021 35.8067 22.653 34.5671 23.0417L33.9044 23.2501C29.9046 24.5142 25.7345 25.1571 21.5397 25.1562C20.0371 25.1559 18.5363 25.0483 17.049 24.8342L26.405 20.9817C30.7783 19.1803 35.4378 18.1727 40.1647 18.0061ZM4.59305 21.8938C9.70967 24.9719 15.5686 26.5968 21.5397 26.5938C25.8813 26.5947 30.1974 25.9293 34.3371 24.6208L34.9998 24.4123C36.6157 23.9064 38.0849 23.0163 39.2816 21.8184C40.4782 20.6205 41.3668 19.1503 41.871 17.5339L44.3457 25.4545L44.1926 25.5156C37.6682 28.1327 30.7026 29.4746 23.673 29.4688C23.6694 29.468 23.6658 29.468 23.6622 29.4688C16.6329 29.4738 9.66764 28.1319 3.14333 25.5156L3.05636 25.4804L4.59305 21.8938Z" fill="black"/>
</svg>
