<svg width="56" height="56" viewBox="0 0 56 56" fill="none" xmlns="http://www.w3.org/2000/svg">
<path fill-rule="evenodd" clip-rule="evenodd" d="M23.3073 53.0185C18.1558 53.0185 13.328 51.0268 9.70984 47.4097L7.60875 45.3075C3.99172 41.6905 2 36.8616 2 31.7111C2 26.5607 3.99172 21.7329 7.60875 18.1147L23.5327 2.19192C23.6557 2.06903 23.8225 2 23.9964 2C24.1703 2 24.3371 2.06903 24.4602 2.19192L31.027 8.7577C31.1496 8.88115 31.2184 9.04805 31.2184 9.222C31.2184 9.39595 31.1496 9.56285 31.027 9.6863L15.1031 25.6091C13.4866 27.2257 12.5962 29.3924 12.5962 31.7111C12.5962 34.0299 13.4866 36.1966 15.1031 37.8132L17.2053 39.9154C20.5697 43.2797 26.045 43.2797 29.4094 39.9154L45.3322 23.9915C45.4556 23.8688 45.6225 23.7999 45.7965 23.7999C45.9705 23.7999 46.1374 23.8688 46.2608 23.9915L52.8266 30.5583C52.9495 30.6814 53.0185 30.8482 53.0185 31.0221C53.0185 31.196 52.9495 31.3628 52.8266 31.4858L36.9027 47.4097C33.2856 51.0268 28.4567 53.0185 23.3073 53.0185ZM23.9964 3.58427L8.53734 19.0433C1.55156 26.0291 1.55156 37.3943 8.53734 44.38L10.6384 46.4811C14.0083 49.851 18.5069 51.706 23.3073 51.706C28.1067 51.706 32.6053 49.8499 35.9752 46.4811L51.4342 31.0221L45.7959 25.3838L30.3369 40.8429C28.4731 42.7077 25.9761 43.7347 23.3073 43.7347C20.6375 43.7347 18.1405 42.7077 16.2767 40.8429L14.1745 38.7418C12.3108 36.8769 11.2837 34.3799 11.2837 31.7111C11.2837 29.0424 12.3108 26.5454 14.1756 24.6816L29.6347 9.22255L23.9964 3.58427Z" fill="#9F1C20"/>
<path fill-rule="evenodd" clip-rule="evenodd" d="M25.0954 15.3464C24.9269 15.3464 24.7596 15.2819 24.6316 15.1539L18.0658 8.58817C18.0047 8.52727 17.9562 8.45491 17.9232 8.37524C17.8901 8.29556 17.873 8.21014 17.873 8.12387C17.873 8.0376 17.8901 7.95218 17.9232 7.87251C17.9562 7.79283 18.0047 7.72047 18.0658 7.65957C18.1889 7.53668 18.3557 7.46765 18.5296 7.46765C18.7035 7.46765 18.8703 7.53668 18.9933 7.65957L25.5591 14.2264C25.6202 14.2872 25.6687 14.3595 25.7018 14.4391C25.7349 14.5187 25.7519 14.604 25.7519 14.6902C25.7519 14.7764 25.7349 14.8617 25.7018 14.9413C25.6687 15.0209 25.6202 15.0932 25.5591 15.1539C25.4983 15.215 25.4261 15.2635 25.3465 15.2965C25.2669 15.3296 25.1815 15.3465 25.0954 15.3464ZM46.896 37.146C46.7276 37.146 46.5602 37.0825 46.4311 36.9535L39.8654 30.3877C39.6094 30.1318 39.6094 29.7161 39.8654 29.4591C40.1213 29.2032 40.5369 29.2032 40.794 29.4602L47.3597 36.026C47.6157 36.2819 47.6157 36.6975 47.3597 36.9546C47.2988 37.0154 47.2265 37.0637 47.1469 37.0965C47.0674 37.1294 46.9821 37.1462 46.896 37.146ZM24.8186 29.9732C24.589 29.9732 24.3713 29.8529 24.251 29.6472C24.1781 29.5218 24.1488 29.3758 24.1676 29.232C24.1864 29.0881 24.2522 28.9546 24.3549 28.8521L29.1346 24.0735L26.246 21.1838C26.1638 21.1018 26.1047 20.9995 26.075 20.8873C26.0452 20.7751 26.0457 20.657 26.0765 20.545C26.1076 20.4333 26.1677 20.3318 26.2507 20.2508C26.3337 20.1697 26.4365 20.112 26.549 20.0835L38.4829 17.0735C38.7694 17.0013 39.0691 17.1282 39.2146 17.3852C39.3601 17.6422 39.3163 17.9649 39.1074 18.1738L34.3069 22.9743L36.9713 25.6375C37.0524 25.7189 37.1108 25.82 37.1408 25.9309C37.1707 26.0418 37.1711 26.1586 37.1419 26.2697C37.1123 26.3806 37.0543 26.4818 36.9735 26.5634C36.8927 26.6449 36.7921 26.7039 36.6815 26.7346L24.9926 29.9491C24.9357 29.9655 24.8766 29.9732 24.8186 29.9732ZM27.9916 21.0733L30.5269 23.6086C30.588 23.6696 30.6365 23.7421 30.6696 23.8218C30.7026 23.9016 30.7195 23.9871 30.7194 24.0735C30.7194 24.2474 30.6505 24.4136 30.5269 24.5372L27.0379 28.0252L35.2454 25.7677L32.9157 23.438C32.7921 23.3155 32.7232 23.1482 32.7232 22.9743C32.7232 22.8004 32.7921 22.633 32.9157 22.5094L36.4977 18.9274L27.9916 21.0733Z" fill="#9F1C20"/>
</svg>
