<svg width="56" height="56" viewBox="0 0 56 56" fill="none" xmlns="http://www.w3.org/2000/svg">
<path d="M54.4086 23.192C53.3749 22.3438 51.6978 22.0408 50.4585 23.3795L44.0301 30.3233C43.823 28.4056 42.1945 26.9077 40.2227 26.9077H29.5175L28.2989 26.2042C26.9434 25.4215 25.5831 25.0571 24.0177 25.0571H19.5485C17.2354 25.0571 15.2004 25.899 13.4998 27.5594L7.71878 33.2037L6.22472 31.7096C6.10165 31.5866 5.93474 31.5174 5.7607 31.5174C5.58666 31.5174 5.41974 31.5866 5.29667 31.7096L0.62975 36.3764C0.5688 36.4374 0.520451 36.5097 0.487465 36.5894C0.454478 36.669 0.4375 36.7543 0.4375 36.8405C0.4375 36.9267 0.454478 37.012 0.487465 37.0917C0.520451 37.1713 0.5688 37.2437 0.62975 37.3046L15.293 51.9678C15.3539 52.0288 15.4263 52.0771 15.5059 52.1101C15.5855 52.1431 15.6709 52.1601 15.7571 52.1601C15.8433 52.1601 15.9286 52.1431 16.0082 52.1101C16.0879 52.0771 16.1602 52.0288 16.2212 51.9678L20.888 47.3009C21.011 47.1778 21.0802 47.0109 21.0802 46.8369C21.0802 46.6629 21.011 46.4959 20.888 46.3729L19.3684 44.8533L20.2259 43.8684C20.992 42.9886 21.9719 42.5423 23.1383 42.5423H39.2952C42.2332 42.5423 44.8467 41.1695 46.6543 38.6768L55.0058 27.1613C56.0443 25.7292 55.4914 24.0805 54.4086 23.1919V23.192ZM15.757 50.5758L2.02177 36.8406L5.76064 33.1019L19.4957 46.8369L15.757 50.5758ZM53.9433 26.3908L45.5917 37.9064C44.015 40.0806 41.8377 41.2299 39.2951 41.2299H23.1381C21.5973 41.2299 20.2478 41.8443 19.2359 43.0066L18.438 43.9231L8.64683 34.1319L14.4167 28.4986C15.884 27.066 17.5625 26.3697 19.5485 26.3697H24.0177C25.3613 26.3697 26.4792 26.6693 27.6426 27.341L29.0135 28.1324C29.1133 28.19 29.2265 28.2203 29.3417 28.2203H40.2227C41.6106 28.2203 42.7398 29.3495 42.7398 30.7374C42.7398 31.3538 42.5116 31.9484 42.0972 32.4114C41.6178 32.9471 40.9347 33.2543 40.2228 33.2543H30.946C30.7719 33.2543 30.605 33.3235 30.4819 33.4465C30.3589 33.5696 30.2897 33.7365 30.2897 33.9106C30.2897 34.0846 30.3589 34.2515 30.4819 34.3746C30.605 34.4977 30.7719 34.5668 30.946 34.5668H40.2228C41.303 34.5668 42.3384 34.1038 43.066 33.2963L43.0678 33.2948L51.4216 24.2711C52.1331 23.5027 53.0269 23.7561 53.5761 24.2066C54.185 24.7062 54.5346 25.5754 53.9433 26.3908ZM23.6925 22.9783C26.2573 22.9783 28.6626 21.9859 30.4643 20.1841L33.3969 17.2516L36.3293 20.1841C38.1963 22.0512 40.6488 22.9847 43.1013 22.9846C45.5537 22.9846 48.0062 22.051 49.8733 20.184C53.6074 16.4499 53.6074 10.3743 49.8733 6.64011C46.1392 2.90604 40.0635 2.90615 36.3294 6.64011L33.397 9.57267L30.4644 6.64011C28.6626 4.83826 26.2576 3.8459 23.6925 3.8459C21.1273 3.8459 18.7225 4.83826 16.9205 6.64011C13.1864 10.3742 13.1864 16.4498 16.9205 20.184C18.7225 21.986 21.1274 22.9783 23.6925 22.9783ZM17.8485 7.56826C19.4025 6.01426 21.4779 5.1584 23.6925 5.1584C25.907 5.1584 27.9824 6.01426 29.5363 7.56826L32.4688 10.5008L30.4856 12.4841L27.5531 9.55156C25.4243 7.4229 21.9606 7.4229 19.8318 9.55156C17.7032 11.6803 17.7032 15.144 19.8318 17.2728C20.8963 18.3372 22.2942 18.8693 23.6925 18.8693C25.0907 18.8693 26.4887 18.337 27.5531 17.2728L30.9496 13.8762L37.2575 7.56837C40.4798 4.34607 45.7229 4.34607 48.9452 7.56837C52.1675 10.7907 52.1675 16.0338 48.9452 19.2561C45.7229 22.4784 40.4797 22.4784 37.2575 19.2561L34.325 16.3235L36.3083 14.3402L39.2409 17.2727C40.3052 18.337 41.7033 18.8692 43.1015 18.8692C44.4996 18.8692 45.8977 18.337 46.9621 17.2727C49.0908 15.144 49.0908 11.6802 46.9621 9.55145C44.8333 7.42279 41.3696 7.42279 39.2409 9.55145L35.8443 12.9481L29.5365 19.256C27.9825 20.81 25.9071 21.6658 23.6927 21.6658C21.4782 21.6658 19.4028 20.81 17.8488 19.256C14.6265 16.0337 14.6265 10.7906 17.8488 7.56826H17.8485ZM29.5575 13.4122L26.6249 16.3446C25.8454 17.1241 24.8039 17.5535 23.6923 17.5535C22.5808 17.5535 21.5394 17.1242 20.7598 16.3446C19.1428 14.7276 19.1428 12.0966 20.7598 10.4796C22.3768 8.86293 25.0079 8.86272 26.6248 10.4796L29.5575 13.4122ZM37.2364 13.4122L40.1689 10.4796C41.7859 8.86272 44.4169 8.86272 46.0339 10.4796C47.6506 12.0966 47.6508 14.7277 46.0339 16.3446C45.2544 17.1241 44.213 17.5535 43.1014 17.5535C41.9898 17.5535 40.9484 17.1242 40.1688 16.3446L37.2364 13.4122Z" fill="#9F1C20"/>
</svg>
