<svg width="48" height="48" viewBox="0 0 48 48" fill="none" xmlns="http://www.w3.org/2000/svg">
<g clip-path="url(#clip0_21007_4)">
<path d="M30.9891 35.8288C30.9891 35.8288 30.3955 37.8373 28.3596 37.3386C26.3237 36.8398 21.502 35.6787 21.502 35.6787" stroke="#B1B2B2" stroke-width="1.40626" stroke-miterlimit="10" stroke-linecap="round" stroke-linejoin="round"/>
<path d="M30.9891 35.8288C30.9891 35.8288 30.3955 37.8373 28.3596 37.3386C26.3237 36.8398 21.502 35.6787 21.502 35.6787" stroke="#B1B2B2" stroke-width="1.40626" stroke-miterlimit="10" stroke-linecap="round" stroke-linejoin="round"/>
<path d="M19.5143 13.4012C21.5782 13.4012 23.2513 11.7281 23.2513 9.66421C23.2513 7.60034 21.5782 5.92725 19.5143 5.92725C17.4504 5.92725 15.7773 7.60034 15.7773 9.66421C15.7773 11.7281 17.4504 13.4012 19.5143 13.4012Z" stroke="#B1B2B2" stroke-width="1.40626" stroke-miterlimit="10" stroke-linecap="round" stroke-linejoin="round"/>
<path d="M30.6275 10.3643C33.2954 10.3643 35.4581 8.20161 35.4581 5.53373C35.4581 2.86586 33.2954 0.703125 30.6275 0.703125C27.9596 0.703125 25.7969 2.86586 25.7969 5.53373C25.7969 8.20161 27.9596 10.3643 30.6275 10.3643Z" stroke="#B1B2B2" stroke-width="1.40626" stroke-miterlimit="10" stroke-linecap="round" stroke-linejoin="round"/>
<path d="M41.7409 13.4012C43.8047 13.4012 45.4778 11.7281 45.4778 9.66421C45.4778 7.60034 43.8047 5.92725 41.7409 5.92725C39.677 5.92725 38.0039 7.60034 38.0039 9.66421C38.0039 11.7281 39.677 13.4012 41.7409 13.4012Z" stroke="#B1B2B2" stroke-width="1.40626" stroke-miterlimit="10" stroke-linecap="round" stroke-linejoin="round"/>
<path d="M41.4496 13.4084C39.8482 13.4914 38.4421 14.2613 37.4863 15.4189C37.7014 16.1076 37.8106 16.8251 37.8102 17.5466V23.7794H46.1587C46.7877 23.7794 47.2976 23.2695 47.2976 22.6405V18.9575C47.2976 15.8048 44.6365 13.2434 41.4496 13.4084Z" stroke="#B1B2B2" stroke-width="1.40626" stroke-miterlimit="10" stroke-linecap="round" stroke-linejoin="round"/>
<path d="M34.9555 25.571C35.9455 23.1809 34.8105 20.4409 32.4205 19.4509C30.0304 18.4609 27.2903 19.5959 26.3004 21.9859C25.3104 24.376 26.4453 27.116 28.8354 28.106C31.2254 29.096 33.9655 27.961 34.9555 25.571Z" stroke="#B1B2B2" stroke-width="1.40626" stroke-miterlimit="10" stroke-linecap="round" stroke-linejoin="round"/>
<path d="M28.9277 23.6379L30.3953 25.1055L32.5409 22.96" stroke="#B1B2B2" stroke-width="1.40626" stroke-miterlimit="10" stroke-linecap="round" stroke-linejoin="round"/>
<path d="M30.5288 10.3639C26.5845 10.4169 23.4434 13.6957 23.4434 17.6403V23.7788H25.9419C25.9419 21.1919 28.0391 19.0947 30.6261 19.0947C33.213 19.0947 35.3102 21.1919 35.3102 23.7788H37.8087V17.546C37.8088 13.5631 34.5234 10.3103 30.5288 10.3639Z" stroke="#B1B2B2" stroke-width="1.40626" stroke-miterlimit="10" stroke-linecap="round" stroke-linejoin="round"/>
<path d="M20.5132 23.7793H23.4441V17.6408C23.4438 16.8872 23.5598 16.1381 23.7883 15.42C22.7094 14.1197 21.0532 13.3136 19.2222 13.4084C16.256 13.562 13.9569 16.0698 13.9569 19.0401V22.6405C13.9569 23.2695 14.4668 23.7794 15.0959 23.7794H17.232M39.5592 40.1151L45.2824 37.5835C45.7455 37.346 48.074 35.9491 47.0307 33.5771C45.8215 31.052 43.0385 32.2456 42.8048 32.333L30.9891 35.8286C30.9891 35.8286 31.798 33.4521 29.3484 32.4745C22.5598 29.7644 21.7503 29.3061 20.0322 29.2789L20.032 29.2787C14.721 29.2964 13.7588 29.3397 11.1194 30.5211C9.74408 31.1373 8.43111 31.8842 7.19856 32.7514C6.39474 33.3164 5.5028 33.7443 4.55544 34.0049L1.33144 34.8913C1.15089 34.9409 0.991627 35.0485 0.878119 35.1974C0.764611 35.3464 0.703133 35.5285 0.703125 35.7157V46.4411C0.703125 47.0395 1.3021 47.4529 1.86161 47.2404L13.0696 42.9852C15.5266 42.1843 18.1025 42.1033 20.1654 42.9266L24.5463 44.6755C25.5039 45.0056 27.7038 45.5194 29.9865 44.3494L29.9884 44.3486L34.5665 42.3235L36.5581 41.4425" stroke="#B1B2B2" stroke-width="1.40626" stroke-miterlimit="10" stroke-linecap="round" stroke-linejoin="round"/>
</g>
<defs>
<clipPath id="clip0_21007_4">
<rect width="48" height="48" fill="white"/>
</clipPath>
</defs>
</svg>
