<svg width="31" height="31" viewBox="0 0 31 31" fill="none" xmlns="http://www.w3.org/2000/svg">
<path d="M17.7739 8.66682C17.5397 8.57768 17.3491 8.40124 17.2423 8.17457C17.1354 7.94789 17.1205 7.68863 17.2008 7.45122C17.281 7.21381 17.4502 7.01674 17.6726 6.9014C17.8951 6.78606 18.1536 6.76142 18.3939 6.83266C19.7369 7.28371 20.9571 8.03975 21.9588 9.0415C22.9606 10.0432 23.7166 11.2634 24.1677 12.6064C24.2185 12.7306 24.243 12.864 24.2396 12.9981C24.2362 13.1322 24.205 13.2642 24.1479 13.3856C24.0908 13.5071 24.0092 13.6153 23.9081 13.7035C23.8069 13.7917 23.6886 13.858 23.5606 13.8981C23.4581 13.9167 23.3531 13.9167 23.2506 13.8981C23.048 13.8979 22.8506 13.8343 22.6861 13.7161C22.5216 13.598 22.3983 13.4312 22.3335 13.2393C21.9805 12.1756 21.3847 11.2086 20.5933 10.415C19.8019 9.62132 18.8367 9.02281 17.7739 8.66682ZM18.2389 2.91891C18.1116 2.89435 17.9807 2.89559 17.8539 2.92256C17.727 2.94954 17.6069 3.00169 17.5006 3.07593C17.3944 3.15017 17.3041 3.245 17.2351 3.35478C17.1661 3.46456 17.1199 3.58707 17.0991 3.71505C17.0784 3.84303 17.0835 3.97387 17.1143 4.09982C17.145 4.22577 17.2007 4.34427 17.2781 4.4483C17.3555 4.55232 17.4529 4.63976 17.5647 4.70542C17.6765 4.77109 17.8004 4.81365 17.9289 4.83057C19.9886 5.17743 21.889 6.15745 23.3659 7.63437C24.8429 9.1113 25.8229 11.0117 26.1697 13.0714C26.2065 13.2984 26.3229 13.505 26.498 13.654C26.6731 13.8031 26.8956 13.8851 27.1256 13.8852H27.2806C27.534 13.8439 27.7607 13.7038 27.9109 13.4955C28.0611 13.2872 28.1224 13.0278 28.0814 12.7743C27.6754 10.3095 26.5079 8.03366 24.7427 6.26613C22.9775 4.4986 20.7032 3.32811 18.2389 2.91891ZM27.1256 20.2789C27.5483 20.7048 27.7856 21.2805 27.7856 21.8806C27.7856 22.4807 27.5483 23.0564 27.1256 23.4822L24.0902 26.5047C23.6769 26.9185 23.1853 27.2458 22.6442 27.4675C22.1031 27.6893 21.5233 27.8011 20.9385 27.7964C20.4512 27.796 19.9672 27.7175 19.5047 27.5639C15.7603 26.3045 12.3586 24.1948 9.56624 21.4003C6.77391 18.6057 4.66695 15.2022 3.41057 11.4568C3.14331 10.6677 3.10333 9.81925 3.29518 9.00845C3.48703 8.19764 3.90299 7.45712 4.49557 6.87141L7.51807 3.87474C7.94392 3.45196 8.51966 3.2147 9.11973 3.2147C9.71981 3.2147 10.2956 3.45196 10.7214 3.87474L14.3768 7.49141C14.7996 7.91726 15.0369 8.493 15.0369 9.09307C15.0369 9.69315 14.7996 10.2689 14.3768 10.6947L12.0647 12.9939C12.6027 14.3341 13.4064 15.5515 14.4276 16.5727C15.4488 17.5939 16.6662 18.3977 18.0064 18.9356L20.3056 16.6235C20.7314 16.2007 21.3072 15.9634 21.9072 15.9634C22.5073 15.9634 23.0831 16.2007 23.5089 16.6235L27.1256 20.2789ZM25.8339 21.6481L22.1785 17.9927C22.1145 17.9355 22.0318 17.9038 21.946 17.9038C21.8602 17.9038 21.7774 17.9355 21.7135 17.9927L18.9752 20.731C18.8527 20.8623 18.6948 20.9553 18.5206 20.9989C18.3464 21.0424 18.1633 21.0346 17.9935 20.9764C16.1425 20.3604 14.4595 19.3237 13.0767 17.9476C11.6939 16.5715 10.6489 14.8936 10.0239 13.0456C9.97318 12.8696 9.97554 12.6826 10.0307 12.5079C10.0858 12.3333 10.1913 12.1788 10.3339 12.0639L13.0722 9.32557C13.1294 9.26163 13.161 9.17886 13.161 9.09307C13.161 9.00729 13.1294 8.92451 13.0722 8.86057L9.35223 5.16641C9.27767 5.13624 9.1943 5.13624 9.11973 5.16641C9.04471 5.13872 8.96226 5.13872 8.88723 5.16641L5.86473 8.24057C5.53712 8.57466 5.3064 8.99144 5.1972 9.44643C5.08801 9.90142 5.10443 10.3775 5.24473 10.8239C6.40758 14.2948 8.35852 17.4491 10.9446 20.0397C13.5307 22.6303 16.6817 24.5867 20.1506 25.7556C20.5969 25.8959 21.0731 25.9123 21.528 25.8031C21.983 25.6939 22.3998 25.4632 22.7339 25.1356L25.8339 22.1131C25.8911 22.0491 25.9227 21.9664 25.9227 21.8806C25.9227 21.7948 25.8911 21.712 25.8339 21.6481Z" fill="#9F1C20"/>
</svg>
