<svg width="48" height="48" viewBox="0 0 48 48" fill="none" xmlns="http://www.w3.org/2000/svg">
<path d="M3.44922 8.802V3.51562C3.44922 1.96228 4.70838 0.703125 6.26172 0.703125H35.5086C37.062 0.703125 38.3211 1.96228 38.3211 3.51562V19.5605M38.3211 36.7063V44.4844C38.3211 46.0377 37.062 47.2969 35.5086 47.2969H6.26172C4.70838 47.2969 3.44922 46.0377 3.44922 44.4844V12.177" stroke="#B1B2B2" stroke-width="1.40625" stroke-miterlimit="10" stroke-linecap="round" stroke-linejoin="round"/>
<path d="M33.8906 30.3838V38.0254C33.8906 38.4544 34.364 38.7146 34.7261 38.4847L38.0292 36.3877C38.1164 36.3324 38.2175 36.303 38.3208 36.303C38.424 36.303 38.5252 36.3324 38.6123 36.3877L41.9154 38.4847C42.2776 38.7146 42.751 38.4544 42.751 38.0254V30.3838" stroke="#B1B2B2" stroke-width="1.40625" stroke-miterlimit="10" stroke-linecap="round" stroke-linejoin="round"/>
<path d="M44.2175 23.7751C44.439 24.4242 44.5517 25.1055 44.551 25.7915C44.551 29.2325 41.7614 32.0222 38.3203 32.0222C34.8792 32.0222 32.0895 29.2325 32.0895 25.7915C32.0895 22.3504 34.8792 19.5607 38.3203 19.5607C39.7545 19.5607 41.0755 20.0453 42.1286 20.8596M7.89258 13.4559H33.6844M7.89258 17.3435H33.6844M7.89258 21.2309H16.7867M7.89258 29.006H28.963M7.89258 32.8934H29.8534M7.89258 36.7809H29.8534M8.54283 41.2846H14.9552M26.3273 41.2846H32.7398M21.562 9.56848H9.16008C8.46005 9.56848 7.89258 9.00102 7.89258 8.30098V6.2382C7.89258 5.53817 8.46005 4.9707 9.16008 4.9707H21.562C22.262 4.9707 22.8295 5.53817 22.8295 6.2382V8.30098C22.8295 9.00092 22.262 9.56848 21.562 9.56848Z" stroke="#B1B2B2" stroke-width="1.40625" stroke-miterlimit="10" stroke-linecap="round" stroke-linejoin="round"/>
</svg>
