<svg width="27" height="26" viewBox="0 0 27 26" fill="none" xmlns="http://www.w3.org/2000/svg">
<path d="M13.4991 0C8.20301 0 3.89453 4.30847 3.89453 9.60452C3.89453 11.348 4.67645 13.2232 4.70922 13.3023C4.96176 13.9017 5.46007 14.8328 5.81939 15.3785L12.4047 25.3565C12.6742 25.7655 13.0731 26 13.4991 26C13.925 26 14.3239 25.7655 14.5934 25.3571L21.1793 15.3785C21.5392 14.8328 22.0369 13.9017 22.2894 13.3023C22.3222 13.2237 23.1036 11.3486 23.1036 9.60452C23.1036 4.30847 18.7951 0 13.4991 0ZM21.2476 12.8638C21.0222 13.4011 20.5584 14.2672 20.2358 14.7565L13.6499 24.735C13.52 24.9322 13.4787 24.9322 13.3488 24.735L6.76289 14.7565C6.44029 14.2672 5.97645 13.4006 5.75103 12.8633C5.74142 12.8401 5.02447 11.1141 5.02447 9.60452C5.02447 4.93164 8.82617 1.12994 13.4991 1.12994C18.1719 1.12994 21.9736 4.93164 21.9736 9.60452C21.9736 11.1164 21.255 12.8469 21.2476 12.8638Z" fill="black"/>
<path d="M13.4988 4.52039C10.6949 4.52039 8.41406 6.80174 8.41406 9.60513C8.41406 12.4085 10.6949 14.6899 13.4988 14.6899C16.3028 14.6899 18.5836 12.4085 18.5836 9.60513C18.5836 6.80174 16.3028 4.52039 13.4988 4.52039ZM13.4988 13.5599C11.3186 13.5599 9.54401 11.7859 9.54401 9.60513C9.54401 7.42434 11.3186 5.65033 13.4988 5.65033C15.679 5.65033 17.4536 7.42434 17.4536 9.60513C17.4536 11.7859 15.679 13.5599 13.4988 13.5599Z" fill="black"/>
</svg>
