<svg width="42" height="42" viewBox="0 0 42 42" fill="none" xmlns="http://www.w3.org/2000/svg">
<circle cx="21" cy="21" r="20.58" fill="white" stroke="#9F1C20" stroke-width="0.84"/>
<path d="M30.2205 15.1707C29.4985 14.3125 28.1656 13.9624 25.6201 13.9624H16.3797C13.7759 13.9624 12.4205 14.335 11.7012 15.2487C11 16.1396 11 17.4521 11 19.2688V22.7313C11 26.2507 11.832 28.0376 16.3797 28.0376H25.6201C27.8276 28.0376 29.0508 27.7287 29.8422 26.9714C30.6537 26.1947 31 24.9267 31 22.7313V19.2688C31 17.353 30.9457 16.0327 30.2205 15.1707ZM23.8401 21.4781L19.6441 23.671C19.5457 23.7225 19.4358 23.7477 19.3249 23.7442C19.214 23.7408 19.1058 23.7087 19.0109 23.6512C18.916 23.5938 18.8375 23.5127 18.783 23.416C18.7286 23.3193 18.7 23.2102 18.7001 23.0992V18.7274C18.7001 18.6166 18.7286 18.5076 18.783 18.411C18.8373 18.3145 18.9156 18.2335 19.0103 18.176C19.105 18.1185 19.2129 18.0863 19.3237 18.0826C19.4344 18.0789 19.5442 18.1038 19.6426 18.1549L23.8386 20.3337C23.9433 20.3881 24.0311 20.4701 24.0924 20.5709C24.1538 20.6717 24.1863 20.7874 24.1864 20.9054C24.1866 21.0234 24.1544 21.1392 24.0933 21.2402C24.0322 21.3411 23.9446 21.4234 23.8401 21.4781Z" fill="#9F1C20"/>
</svg>
