<svg width="27" height="26" viewBox="0 0 27 26" fill="none" xmlns="http://www.w3.org/2000/svg">
<path fill-rule="evenodd" clip-rule="evenodd" d="M1.12891 21.4375C1.12891 21.5867 1.18817 21.7298 1.29366 21.8353C1.39915 21.9408 1.54222 22 1.69141 22H25.3164C25.4656 22 25.6087 21.9408 25.7142 21.8353C25.8197 21.7298 25.879 21.5867 25.879 21.4375V4.5625C25.879 4.41332 25.8197 4.27024 25.7142 4.16475C25.6087 4.05926 25.4656 4 25.3164 4H1.69141C1.54222 4 1.39915 4.05926 1.29366 4.16475C1.18817 4.27024 1.12891 4.41332 1.12891 4.5625V21.4375ZM24.7539 5.125H2.25391V6.30963L13.5039 14.935L24.7539 6.30963V5.125ZM24.7539 20.0797L17.7609 13.0866L24.7539 7.72713V20.0797ZM3.04928 20.875L10.148 13.7763L13.1619 16.0881C13.2601 16.1633 13.3803 16.2041 13.5039 16.2041C13.6276 16.2041 13.7478 16.1633 13.8459 16.0881L16.8609 13.7774L23.9586 20.875H3.04928ZM2.25391 7.72713L9.24692 13.0866L2.25391 20.0797V7.72713Z" fill="black"/>
</svg>
