<svg width="26" height="26" viewBox="0 0 26 26" fill="none" xmlns="http://www.w3.org/2000/svg">
<g clip-path="url(#clip0_20787_5996)">
<path d="M5.29576 17.283C7.8602 20.3485 10.9472 22.7621 14.4706 24.47C15.8121 25.1057 17.6062 25.8599 19.6049 25.9892C19.7288 25.9946 19.8474 26 19.9713 26C21.3128 26 22.3902 25.5367 23.2684 24.5831C23.2738 24.5777 23.2846 24.5669 23.29 24.5562C23.6024 24.179 23.958 23.8396 24.3297 23.4787C24.583 23.2362 24.8416 22.983 25.0894 22.7244C26.2369 21.5284 26.2369 20.0091 25.0786 18.8508L21.8407 15.6129C21.2912 15.0419 20.6339 14.7402 19.9443 14.7402C19.2547 14.7402 18.5921 15.0419 18.0264 15.6075L16.0977 17.5363C15.9199 17.4339 15.7367 17.3423 15.5643 17.2561C15.3488 17.1484 15.1495 17.046 14.9717 16.9329C13.2154 15.8177 11.6207 14.363 10.096 12.4936C9.3256 11.5184 8.8084 10.6995 8.44744 9.86448C8.95386 9.40655 9.42796 8.92706 9.8859 8.45835C10.0475 8.29134 10.2145 8.12433 10.3815 7.95731C10.9634 7.37547 11.2759 6.70203 11.2759 6.01782C11.2759 5.33361 10.9688 4.66017 10.3815 4.07833L8.77608 2.47286C8.58751 2.28429 8.40973 2.10112 8.22655 1.91256C7.87098 1.54621 7.49924 1.16908 7.13289 0.829673C6.57798 0.285537 5.9261 0 5.2365 0C4.55229 0 3.89501 0.285537 3.31855 0.83506L1.30363 2.84998C0.570937 3.58268 0.1561 4.47161 0.0699006 5.50062C-0.0324616 6.78823 0.204588 8.15665 0.818761 9.81061C1.76157 12.3697 3.18387 14.7455 5.29576 17.283ZM1.38445 5.61376C1.4491 4.89722 1.72386 4.29921 2.24106 3.78201L4.2452 1.77787C4.55768 1.47617 4.90247 1.31993 5.2365 1.31993C5.56514 1.31993 5.89916 1.47617 6.20625 1.78864C6.56721 2.12267 6.90662 2.47286 7.27297 2.84459C7.45614 3.03315 7.6447 3.22172 7.83327 3.41567L9.43874 5.02114C9.77276 5.35516 9.94516 5.69457 9.94516 6.02859C9.94516 6.36262 9.77276 6.70203 9.43874 7.03605C9.27172 7.20307 9.10471 7.37547 8.9377 7.54248C8.43666 8.0489 7.96795 8.52839 7.45076 8.98632L7.42382 9.01326C6.97666 9.46042 7.04669 9.88603 7.15444 10.2093C7.15983 10.2254 7.16522 10.2362 7.17061 10.2524C7.58544 11.2491 8.1619 12.1973 9.06161 13.3286C10.6779 15.322 12.3803 16.8682 14.2551 18.0588C14.4868 18.2097 14.7346 18.3282 14.9663 18.4467C15.1818 18.5545 15.3811 18.6569 15.5589 18.77C15.5805 18.7808 15.5966 18.7915 15.6182 18.8023C15.796 18.8939 15.9684 18.937 16.1408 18.937C16.5718 18.937 16.8519 18.6622 16.9435 18.5707L18.9584 16.5557C19.2709 16.2433 19.6103 16.0763 19.9443 16.0763C20.3538 16.0763 20.6878 16.3295 20.8979 16.5557L24.1466 19.799C24.7931 20.4455 24.7877 21.1459 24.1304 21.8301C23.9041 22.0725 23.6671 22.3042 23.4139 22.5466C23.0367 22.913 22.6435 23.2901 22.2879 23.7157C21.6683 24.3838 20.9302 24.6962 19.9767 24.6962C19.8851 24.6962 19.7881 24.6908 19.6965 24.6855C17.9294 24.5723 16.2862 23.8827 15.0525 23.2955C11.7015 21.6738 8.75991 19.3734 6.31938 16.4534C4.30985 14.0344 2.95759 11.7824 2.06327 9.36883C1.50836 7.88728 1.29825 6.69664 1.38445 5.61376Z" fill="black"/>
</g>
<defs>
<clipPath id="clip0_20787_5996">
<rect width="26" height="26" fill="white"/>
</clipPath>
</defs>
</svg>
