<svg width="42" height="42" viewBox="0 0 42 42" fill="none" xmlns="http://www.w3.org/2000/svg">
<circle cx="21" cy="21" r="20.58" fill="white" stroke="#9F1C20" stroke-width="0.84"/>
<path d="M26.1641 12.6666H17.8307C15.5307 12.6666 13.6641 14.5333 13.6641 16.8333V25.1666C13.6641 27.4666 15.5307 29.3333 17.8307 29.3333H26.1641C28.4641 29.3333 30.3307 27.4666 30.3307 25.1666V16.8333C30.3307 14.5333 28.4641 12.6666 26.1641 12.6666ZM21.9974 25.1666C19.6974 25.1666 17.8307 23.3 17.8307 21C17.8307 18.7 19.6974 16.8333 21.9974 16.8333C24.2974 16.8333 26.1641 18.7 26.1641 21C26.1641 23.3 24.2974 25.1666 21.9974 25.1666ZM26.4557 17.35C25.9974 17.35 25.6224 16.975 25.6224 16.5166C25.6224 16.0583 25.9974 15.6833 26.4557 15.6833C26.9141 15.6833 27.2891 16.0583 27.2891 16.5166C27.2891 16.975 26.9141 17.35 26.4557 17.35Z" fill="#9F1C20"/>
<path d="M22 23.5C23.3807 23.5 24.5 22.3807 24.5 21C24.5 19.6193 23.3807 18.5 22 18.5C20.6193 18.5 19.5 19.6193 19.5 21C19.5 22.3807 20.6193 23.5 22 23.5Z" fill="#9F1C20"/>
</svg>
