<svg width="48" height="48" viewBox="0 0 48 48" fill="none" xmlns="http://www.w3.org/2000/svg">
<path d="M15.8497 3.83691C14.0481 5.49281 12.8017 7.69256 12.4023 10.1584M35.6347 10.4028C34.878 4.92853 29.9574 0.703125 24.0002 0.703125C21.951 0.703125 20.0245 1.20309 18.3479 2.08191" stroke="#9F1C20" stroke-width="1.40625" stroke-miterlimit="10" stroke-linecap="round" stroke-linejoin="round"/>
<path d="M17.9454 23.6772C16.2759 21.7837 15.2361 19.2285 15.2361 16.7372V12.602C15.2361 7.7617 19.1617 3.83789 24.0041 3.83789C28.8465 3.83789 32.7721 7.7617 32.7721 12.602V16.7372C32.7721 19.4117 31.5736 22.16 29.6841 24.0841M15.1946 18.0301H12.4022C11.5156 18.0301 10.7969 17.3114 10.7969 16.4248V12.0133C10.7969 11.1266 11.5157 10.4079 12.4022 10.4079H15.1946V18.0301ZM32.8136 18.0301H35.6059C36.4926 18.0301 37.2113 17.3114 37.2113 16.4248V12.0133C37.2113 11.1266 36.4925 10.4079 35.6059 10.4079H32.8136V18.0301Z" stroke="#9F1C20" stroke-width="1.40625" stroke-miterlimit="10" stroke-linecap="round" stroke-linejoin="round"/>
<path d="M25.7292 21.0998H33.641C34.7997 21.0998 35.7391 20.1604 35.7391 19.0017V18.0293M7.82422 42.2552V26.2752C7.82422 25.0644 8.80578 24.0827 10.0167 24.0827H37.9907C39.2016 24.0827 40.1832 25.0643 40.1832 26.2752V42.2552" stroke="#9F1C20" stroke-width="1.40625" stroke-miterlimit="10" stroke-linecap="round" stroke-linejoin="round"/>
<path d="M31.6716 47.297H8.19666C6.58219 47.297 5.27344 45.9883 5.27344 44.3738V43.3501C5.27344 42.7447 5.76422 42.2539 6.36966 42.2539H41.634C42.2394 42.2539 42.7302 42.7447 42.7302 43.3501V44.3738C42.7302 45.9883 41.4215 47.297 39.807 47.297H34.9956" stroke="#9F1C20" stroke-width="1.40625" stroke-miterlimit="10" stroke-linecap="round" stroke-linejoin="round"/>
<path d="M24.0026 35.6097C25.3503 35.6097 26.4428 34.5173 26.4428 33.1696C26.4428 31.822 25.3503 30.7295 24.0026 30.7295C22.655 30.7295 21.5625 31.822 21.5625 33.1696C21.5625 34.5173 22.655 35.6097 24.0026 35.6097Z" stroke="#9F1C20" stroke-width="1.40625" stroke-miterlimit="10" stroke-linecap="round" stroke-linejoin="round"/>
<path d="M15.2422 12.2803H32.7652" stroke="#9F1C20" stroke-width="1.40625" stroke-miterlimit="10" stroke-linecap="round" stroke-linejoin="round"/>
</svg>
