<svg width="61" height="60" viewBox="0 0 61 60" fill="none" xmlns="http://www.w3.org/2000/svg">
<path d="M12.1578 41.7899H9.4709C7.55277 41.7899 5.99219 43.3503 5.99219 45.2686V53.826C5.99219 55.7441 7.55277 57.3047 9.4709 57.3047H12.1578C14.0759 57.3047 15.6365 55.7442 15.6365 53.826V45.2686C15.6365 43.3505 14.0759 41.7899 12.1578 41.7899ZM13.7615 53.826C13.7615 54.7103 13.0421 55.4297 12.1578 55.4297H9.4709C8.5866 55.4297 7.86719 54.7103 7.86719 53.826V45.2686C7.86719 44.3843 8.5866 43.6649 9.4709 43.6649H12.1578C13.0421 43.6649 13.7615 44.3843 13.7615 45.2686V53.826ZM10.8143 31.8483C12.736 31.8483 14.2995 30.2849 14.2995 28.3632C14.2995 27.7964 14.1626 27.2613 13.9214 26.7878L22.0977 19.2962C22.6494 19.6414 23.2872 19.8242 23.938 19.8237C25.197 19.8237 26.3021 19.1525 26.9147 18.1494L33.577 20.0225L33.5768 20.0286C33.5768 21.9503 35.1402 23.5137 37.062 23.5137C38.9837 23.5137 40.5471 21.9503 40.5471 20.0286C40.5471 19.3743 40.3655 18.7617 40.0506 18.238L48.5583 9.26086C49.0595 9.52708 49.6184 9.66603 50.1859 9.66551C52.1077 9.66551 53.6711 8.10211 53.6711 6.18047C53.6711 4.25883 52.1076 2.69531 50.1858 2.69531C48.2642 2.69531 46.7008 4.25871 46.7008 6.18035C46.7001 6.81131 46.8718 7.43048 47.1973 7.97098L38.6896 16.9481C38.1884 16.6819 37.6295 16.5429 37.062 16.5434C35.803 16.5434 34.6979 17.2145 34.0853 18.2177L27.4232 16.3446L27.4233 16.3385C27.4233 14.4169 25.8599 12.8534 23.9382 12.8534C22.0164 12.8534 20.453 14.4169 20.453 16.3385C20.453 16.9054 20.5899 17.4404 20.8309 17.9139L12.6546 25.4054C12.1029 25.0602 11.4651 24.8774 10.8143 24.878C8.89269 24.878 7.32918 26.4415 7.32918 28.3631C7.32918 30.2848 8.89269 31.8483 10.8143 31.8483ZM50.1858 4.57031C51.0736 4.57031 51.796 5.29254 51.796 6.18035C51.796 7.06816 51.0736 7.79039 50.1858 7.79039C49.298 7.79039 48.5758 7.06816 48.5758 6.18035C48.5758 5.29254 49.298 4.57031 50.1858 4.57031ZM37.062 18.4184C37.9498 18.4184 38.6721 19.1407 38.6721 20.0285C38.6721 20.9163 37.9498 21.6386 37.062 21.6386C36.1742 21.6386 35.4518 20.9163 35.4518 20.0285C35.4518 19.1407 36.1741 18.4184 37.062 18.4184ZM23.9382 14.7284C24.826 14.7284 25.5483 15.4507 25.5483 16.3385C25.5483 17.2263 24.826 17.9486 23.9382 17.9486C23.0504 17.9486 22.328 17.2263 22.328 16.3385C22.328 15.4507 23.0504 14.7284 23.9382 14.7284ZM10.8143 26.7531C11.7021 26.7531 12.4245 27.4754 12.4245 28.3632C12.4245 29.2511 11.7021 29.9733 10.8143 29.9733C9.92652 29.9733 9.20418 29.2511 9.20418 28.3632C9.20418 27.4754 9.92652 26.7531 10.8143 26.7531ZM25.2816 31.0365H22.5947C20.6766 31.0365 19.116 32.5971 19.116 34.5154V53.8261C19.116 55.7442 20.6766 57.3048 22.5947 57.3048H25.2816C27.1997 57.3048 28.7603 55.7443 28.7603 53.8261V34.5152C28.7603 32.5971 27.1997 31.0365 25.2816 31.0365ZM26.8853 53.826C26.8853 54.7103 26.1659 55.4297 25.2816 55.4297H22.5947C21.7104 55.4297 20.991 54.7103 20.991 53.826V34.5152C20.991 33.6309 21.7104 32.9114 22.5947 32.9114H25.2816C26.1659 32.9114 26.8853 33.6309 26.8853 34.5152V53.826ZM38.4053 35.0911H35.7184C33.8003 35.0911 32.2397 36.6516 32.2397 38.5698V53.8261C32.2397 55.7442 33.8003 57.3048 35.7184 57.3048H38.4053C40.3234 57.3048 41.884 55.7443 41.884 53.8261V38.5698C41.8841 36.6517 40.3236 35.0911 38.4053 35.0911ZM40.0091 53.826C40.0091 54.7103 39.2897 55.4297 38.4054 55.4297H35.7186C34.8343 55.4297 34.1148 54.7103 34.1148 53.826V38.5698C34.1148 37.6855 34.8343 36.9661 35.7186 36.9661H38.4054C39.2897 36.9661 40.0091 37.6855 40.0091 38.5698V53.826ZM51.5293 20.9884H48.8424C46.9243 20.9884 45.3637 22.5489 45.3637 24.4671V53.8261C45.3637 55.7442 46.9241 57.3048 48.8424 57.3048H51.5293C53.4474 57.3048 55.008 55.7443 55.008 53.8261V24.4671C55.008 22.5489 53.4474 20.9884 51.5293 20.9884ZM53.133 53.826C53.133 54.7103 52.4136 55.4297 51.5293 55.4297H48.8424C47.9581 55.4297 47.2387 54.7103 47.2387 53.826V24.467C47.2387 23.5827 47.9581 22.8633 48.8424 22.8633H51.5293C52.4136 22.8633 53.133 23.5827 53.133 24.467V53.826Z" fill="white"/>
</svg>
