<svg width="56" height="56" viewBox="0 0 56 56" fill="none" xmlns="http://www.w3.org/2000/svg">
<path d="M11.0773 26.9819C7.49485 26.9819 4.58048 24.094 4.58048 20.5455C4.58048 16.9966 7.49485 14.1087 11.0773 14.1087C14.6594 14.1087 17.5732 16.9962 17.5732 20.5455C17.5732 24.0945 14.6594 26.9819 11.0773 26.9819ZM11.0773 15.9151C8.49066 15.9151 6.38694 17.9924 6.38694 20.5455C6.38694 23.0982 8.49066 25.1754 11.0773 25.1754C13.6631 25.1754 15.7667 23.0982 15.7667 20.5455C15.7667 17.9924 13.6631 15.9151 11.0773 15.9151ZM13.6909 44.803H2.36081C1.05903 44.803 0 43.7507 0 42.457V39.5025C0 33.4543 4.9691 28.5333 11.0773 28.5333C13.4796 28.5333 15.7664 29.283 17.6883 30.701C17.8811 30.8433 18.0094 31.0564 18.0451 31.2933C18.0808 31.5302 18.021 31.7716 17.8788 31.9644C17.7365 32.157 17.5235 32.2853 17.2867 32.321C17.0499 32.3567 16.8086 32.297 16.6157 32.155C15.0064 30.9678 13.0915 30.3397 11.0773 30.3397C5.96535 30.3397 1.80645 34.4505 1.80645 39.5025V42.457C1.80645 42.7542 2.05518 42.9964 2.36081 42.9964H13.6913C14.1897 42.9964 14.5945 43.4008 14.5945 43.8996C14.5945 44.398 14.1897 44.8029 13.6909 44.8029V44.803ZM53.6392 44.1194H42.3091C41.8108 44.1194 41.4059 43.7149 41.4059 43.2161C41.4059 42.7178 41.8108 42.3129 42.3091 42.3129H53.6396C53.9453 42.3129 54.194 42.0713 54.194 41.774V38.8196C54.194 33.7667 50.0351 29.6567 44.9232 29.6567C42.7882 29.6567 40.7039 30.3919 39.0539 31.7273C38.6666 32.041 38.0982 31.9814 37.7837 31.5938C37.4702 31.206 37.5293 30.6371 37.9179 30.3231C39.8879 28.7288 42.3757 27.8502 44.9232 27.8502C51.0309 27.8502 56 32.7708 56 38.8196V41.774C56 43.0671 54.9411 44.1194 53.6392 44.1194ZM44.9227 26.5356C41.3406 26.5356 38.4268 23.6482 38.4268 20.0992C38.4268 16.5502 41.3406 13.6624 44.9227 13.6624C48.5051 13.6624 51.4195 16.5499 51.4195 20.0992C51.4195 23.6485 48.5047 26.5356 44.9227 26.5356ZM44.9227 15.4688C42.3369 15.4688 40.2333 17.5461 40.2333 20.0992C40.2333 22.6523 42.3369 24.7291 44.9227 24.7291C47.5093 24.7291 49.6131 22.6523 49.6131 20.0992C49.6131 17.5461 47.5089 15.4688 44.9227 15.4688Z" fill="#9F1C20"/>
<path d="M40.2602 47.7419H15.7426C14.1139 47.7419 12.7891 46.4268 12.7891 44.81V40.6547C12.7891 32.3501 19.6126 25.5939 28.0014 25.5939C36.3902 25.5939 43.2138 32.3501 43.2138 40.6547V44.81C43.2138 46.4267 41.889 47.7419 40.2602 47.7419ZM28.0014 27.4008C20.6093 27.4008 14.5955 33.3468 14.5955 40.655V44.8104C14.5955 45.4309 15.1101 45.9359 15.7426 45.9359H40.2598C40.8923 45.9359 41.4069 45.4309 41.4069 44.8104V40.655C41.4073 33.3468 35.3935 27.4008 28.0014 27.4008ZM27.6874 24.5385C23.0848 24.5385 19.3396 20.8291 19.3396 16.2688C19.3396 11.7091 23.0845 8 27.6875 8C32.2909 8 36.0357 11.7094 36.0357 16.2693C36.0357 20.8294 32.2905 24.5385 27.6875 24.5385H27.6874ZM27.6874 9.80645C24.0806 9.80645 21.146 12.7058 21.146 16.2693C21.146 19.8333 24.0806 22.7325 27.6874 22.7325C31.2946 22.7325 34.2292 19.8332 34.2292 16.2693C34.2292 12.7058 31.2946 9.80645 27.6875 9.80645H27.6874Z" fill="#9F1C20"/>
</svg>
