<svg width="48" height="48" viewBox="0 0 48 48" fill="none" xmlns="http://www.w3.org/2000/svg">
<path d="M30.7497 37.0726L27.7497 36.1876V33.4801C28.7931 32.878 29.6759 32.0334 30.3235 31.0176C30.9711 30.0019 31.3642 28.845 31.4697 27.6451C32.7747 27.3226 33.7497 26.1451 33.7497 24.7426V20.8876C33.7497 16.8076 30.4347 13.4926 26.3547 13.4926H21.6072C17.5497 13.4926 14.2422 16.7926 14.2422 20.8576V24.7426C14.2422 26.1451 15.2172 27.3226 16.5222 27.6451C16.7397 30.1351 18.1797 32.2801 20.2422 33.4801V36.1876L17.2497 37.0651C14.5947 37.8076 12.7422 40.3051 12.7422 43.1326V44.2426C12.7422 45.4801 13.7547 46.4926 14.9922 46.4926H32.9922C34.2297 46.4926 35.2422 45.4801 35.2422 44.2426V43.1326C35.2422 40.2976 33.3897 37.8001 30.7422 37.0651L30.7497 37.0726ZM15.7497 24.7501V20.8651C15.7497 17.6326 18.3822 15.0001 21.6147 15.0001H26.3622C29.6097 15.0001 32.2572 17.6401 32.2572 20.8951V24.7501C32.2572 25.3051 31.9572 25.7926 31.5072 26.0476V23.6026C31.5072 23.1093 31.3112 22.6362 30.9624 22.2873C30.6136 21.9385 30.1405 21.7426 29.6472 21.7426H24.8997C24.5172 21.7426 24.1572 21.6001 23.8872 21.3301L22.2747 19.7551C22.1322 19.6201 21.9447 19.5376 21.7497 19.5376C21.7122 19.5376 21.6672 19.5376 21.6297 19.5451C21.3972 19.5826 21.1947 19.7326 21.0822 19.9426C20.8572 20.3776 20.4222 20.8351 19.9122 21.1801C19.3872 21.5326 18.8322 21.7351 18.3822 21.7351C17.3472 21.7351 16.5072 22.5676 16.5072 23.5876V26.0326C16.0572 25.7701 15.7572 25.2901 15.7572 24.7351L15.7497 24.7501ZM17.9997 27.0001V23.6026C17.9997 23.4076 18.1647 23.2501 18.3822 23.2501C19.1322 23.2501 19.9722 22.9651 20.7447 22.4401C21.1647 22.1626 21.5472 21.8176 21.8622 21.4576L22.8372 22.4101C23.3922 22.9501 24.1197 23.2501 24.8997 23.2501H29.6472C29.8422 23.2501 30.0072 23.4151 30.0072 23.6101V27.0001C30.0072 30.3076 27.3147 33.0001 24.0072 33.0001C20.6997 33.0001 18.0072 30.3076 18.0072 27.0001H17.9997ZM23.9997 34.5001C24.7797 34.5001 25.5372 34.3801 26.2497 34.1551V36.7501C26.2497 37.9876 25.2372 39.0001 23.9997 39.0001C22.7622 39.0001 21.7497 37.9876 21.7497 36.7501V34.1551C22.4622 34.3801 23.2197 34.5001 23.9997 34.5001ZM33.7497 44.2501C33.7497 44.6626 33.4122 45.0001 32.9997 45.0001H14.9997C14.5872 45.0001 14.2497 44.6626 14.2497 44.2501V43.1401C14.2497 40.9801 15.6522 39.0751 17.6697 38.5126L20.3922 37.7101C20.8197 39.3076 22.2672 40.5001 23.9997 40.5001C25.7322 40.5001 27.1797 39.3151 27.6072 37.7101L30.3372 38.5126C32.3472 39.0751 33.7497 40.9726 33.7497 43.1401V44.2501Z" fill="white"/>
<path d="M45.75 23.25C45.75 21.7725 44.67 20.5425 43.26 20.3025C42.6454 16.1954 40.7289 12.394 37.7925 9.45753C34.856 6.52106 31.0546 4.60456 26.9475 3.99C26.7075 2.58 25.4775 1.5 24 1.5C22.5225 1.5 21.2925 2.58 21.0525 3.99C16.9454 4.60456 13.144 6.52106 10.2075 9.45753C7.27106 12.394 5.35456 16.1954 4.74 20.3025C3.33 20.5425 2.25 21.7725 2.25 23.25C2.25 24.7275 3.3225 25.95 4.725 26.1975C5.4525 31.0425 7.95 35.3775 11.805 38.4675C11.94 38.58 12.1125 38.6325 12.27 38.6325C12.4875 38.6325 12.705 38.535 12.855 38.3475C13.1175 38.025 13.065 37.5525 12.7425 37.29C9.24128 34.4975 6.91979 30.4891 6.24 26.0625C7.4025 25.65 8.25 24.5475 8.25 23.2425C8.25 21.9375 7.4025 20.835 6.24 20.4225C6.82011 16.6681 8.58096 13.196 11.2672 10.5097C13.9535 7.82346 17.4256 6.06261 21.18 5.4825C21.5925 6.6525 22.695 7.4925 24 7.4925C25.305 7.4925 26.4075 6.645 26.82 5.4825C30.5744 6.06261 34.0465 7.82346 36.7328 10.5097C39.419 13.196 41.1799 16.6681 41.76 20.4225C40.59 20.835 39.75 21.9375 39.75 23.2425C39.75 24.5475 40.59 25.65 41.76 26.0625C41.07 30.4875 38.79 34.4625 35.2575 37.29C35.1805 37.3519 35.1164 37.4284 35.069 37.5151C35.0216 37.6019 34.9919 37.6971 34.9814 37.7954C34.971 37.8936 34.98 37.993 35.0081 38.0878C35.0362 38.1825 35.0827 38.2708 35.145 38.3475C35.295 38.535 35.5125 38.6325 35.73 38.6325C35.895 38.6325 36.06 38.58 36.195 38.4675C40.05 35.3775 42.5475 31.035 43.275 26.1975C44.6775 25.95 45.75 24.7275 45.75 23.25ZM6.75 23.25C6.75 24.075 6.075 24.75 5.25 24.75C4.425 24.75 3.75 24.075 3.75 23.25C3.75 22.425 4.425 21.75 5.25 21.75C6.075 21.75 6.75 22.425 6.75 23.25ZM24 6C23.175 6 22.5 5.325 22.5 4.5C22.5 3.675 23.175 3 24 3C24.825 3 25.5 3.675 25.5 4.5C25.5 5.325 24.825 6 24 6ZM42.75 24.75C41.925 24.75 41.25 24.075 41.25 23.25C41.25 22.425 41.925 21.75 42.75 21.75C43.575 21.75 44.25 22.425 44.25 23.25C44.25 24.075 43.575 24.75 42.75 24.75Z" fill="white"/>
</svg>
