<svg width="48" height="48" viewBox="0 0 48 48" fill="none" xmlns="http://www.w3.org/2000/svg">
<g clip-path="url(#clip0_20787_5364)">
<path d="M30.7371 35.8286C30.7371 35.8286 30.1435 37.8371 28.1076 37.3383C26.0717 36.8396 21.25 35.6785 21.25 35.6785" stroke="white" stroke-width="1.40626" stroke-miterlimit="10" stroke-linecap="round" stroke-linejoin="round"/>
<path d="M30.7371 35.8286C30.7371 35.8286 30.1435 37.8371 28.1076 37.3383C26.0717 36.8396 21.25 35.6785 21.25 35.6785" stroke="white" stroke-width="1.40626" stroke-miterlimit="10" stroke-linecap="round" stroke-linejoin="round"/>
<path d="M19.2643 13.4011C21.3282 13.4011 23.0013 11.728 23.0013 9.66409C23.0013 7.60022 21.3282 5.92712 19.2643 5.92712C17.2004 5.92712 15.5273 7.60022 15.5273 9.66409C15.5273 11.728 17.2004 13.4011 19.2643 13.4011Z" stroke="white" stroke-width="1.40626" stroke-miterlimit="10" stroke-linecap="round" stroke-linejoin="round"/>
<path d="M30.3775 10.3643C33.0454 10.3643 35.2081 8.20161 35.2081 5.53373C35.2081 2.86586 33.0454 0.703125 30.3775 0.703125C27.7096 0.703125 25.5469 2.86586 25.5469 5.53373C25.5469 8.20161 27.7096 10.3643 30.3775 10.3643Z" stroke="white" stroke-width="1.40626" stroke-miterlimit="10" stroke-linecap="round" stroke-linejoin="round"/>
<path d="M41.4909 13.4011C43.5547 13.4011 45.2278 11.728 45.2278 9.66409C45.2278 7.60022 43.5547 5.92712 41.4909 5.92712C39.427 5.92712 37.7539 7.60022 37.7539 9.66409C37.7539 11.728 39.427 13.4011 41.4909 13.4011Z" stroke="white" stroke-width="1.40626" stroke-miterlimit="10" stroke-linecap="round" stroke-linejoin="round"/>
<path d="M41.1976 13.4082C39.5962 13.4912 38.1902 14.261 37.2344 15.4187C37.4495 16.1074 37.5587 16.8248 37.5583 17.5463V23.7792H45.9067C46.5358 23.7792 47.0457 23.2693 47.0457 22.6402V18.9573C47.0456 15.8046 44.3846 13.2432 41.1976 13.4082Z" stroke="white" stroke-width="1.40626" stroke-miterlimit="10" stroke-linecap="round" stroke-linejoin="round"/>
<path d="M34.7055 25.5712C35.6955 23.1812 34.5605 20.4411 32.1705 19.4511C29.7804 18.4611 27.0403 19.5961 26.0504 21.9862C25.0604 24.3762 26.1953 27.1163 28.5854 28.1063C30.9754 29.0962 33.7155 27.9613 34.7055 25.5712Z" stroke="white" stroke-width="1.40626" stroke-miterlimit="10" stroke-linecap="round" stroke-linejoin="round"/>
<path d="M28.6797 23.6381L30.1472 25.1058L32.2928 22.9602" stroke="white" stroke-width="1.40626" stroke-miterlimit="10" stroke-linecap="round" stroke-linejoin="round"/>
<path d="M30.2807 10.3641C26.3364 10.417 23.1953 13.6958 23.1953 17.6404V23.779H25.6939C25.6939 21.192 27.7911 19.0948 30.378 19.0948C32.965 19.0948 35.0621 21.192 35.0621 23.779H37.5607V17.5461C37.5608 13.5632 34.2754 10.3104 30.2807 10.3641Z" stroke="white" stroke-width="1.40626" stroke-miterlimit="10" stroke-linecap="round" stroke-linejoin="round"/>
<path d="M20.2632 23.7791H23.1941V17.6406C23.1938 16.887 23.3098 16.1379 23.5383 15.4197C22.4594 14.1195 20.8032 13.3133 18.9722 13.4082C16.006 13.5618 13.7069 16.0696 13.7069 19.0398V22.6402C13.7069 23.2693 14.2168 23.7792 14.8459 23.7792H16.982M39.3092 40.1148L45.0324 37.5833C45.4955 37.3458 47.824 35.9488 46.7807 33.5768C45.5715 31.0517 42.7885 32.2454 42.5548 32.3327L30.7391 35.8283C30.7391 35.8283 31.548 33.4519 29.0984 32.4742C22.3098 29.7642 21.5003 29.3059 19.7822 29.2786L19.782 29.2784C14.471 29.2962 13.5088 29.3395 10.8694 30.5208C9.49408 31.137 8.18111 31.8839 6.94856 32.7512C6.14474 33.3162 5.2528 33.7441 4.30544 34.0046L1.08144 34.891C0.900888 34.9407 0.741627 35.0482 0.628119 35.1972C0.514611 35.3461 0.453133 35.5282 0.453125 35.7155V46.4409C0.453125 47.0393 1.0521 47.4526 1.61161 47.2402L12.8196 42.9849C15.2766 42.1841 17.8525 42.1031 19.9154 42.9263L24.2963 44.6752C25.2539 45.0053 27.4538 45.5192 29.7365 44.3492L29.7384 44.3483L34.3165 42.3232L36.3081 41.4422" stroke="white" stroke-width="1.40626" stroke-miterlimit="10" stroke-linecap="round" stroke-linejoin="round"/>
</g>
<defs>
<clipPath id="clip0_20787_5364">
<rect width="48" height="48" fill="white"/>
</clipPath>
</defs>
</svg>
