<svg width="49" height="48" viewBox="0 0 49 48" fill="none" xmlns="http://www.w3.org/2000/svg">
<g clip-path="url(#clip0_20787_4660)">
<path d="M31.7371 35.8288C31.7371 35.8288 31.1435 37.8373 29.1076 37.3386C27.0717 36.8398 22.25 35.6787 22.25 35.6787" stroke="#B1B2B2" stroke-width="1.40626" stroke-miterlimit="10" stroke-linecap="round" stroke-linejoin="round"/>
<path d="M31.7371 35.8288C31.7371 35.8288 31.1435 37.8373 29.1076 37.3386C27.0717 36.8398 22.25 35.6787 22.25 35.6787" stroke="#B1B2B2" stroke-width="1.40626" stroke-miterlimit="10" stroke-linecap="round" stroke-linejoin="round"/>
<path d="M20.2643 13.4012C22.3282 13.4012 24.0013 11.7281 24.0013 9.66421C24.0013 7.60034 22.3282 5.92725 20.2643 5.92725C18.2004 5.92725 16.5273 7.60034 16.5273 9.66421C16.5273 11.7281 18.2004 13.4012 20.2643 13.4012Z" stroke="#B1B2B2" stroke-width="1.40626" stroke-miterlimit="10" stroke-linecap="round" stroke-linejoin="round"/>
<path d="M31.3775 10.3643C34.0454 10.3643 36.2081 8.20161 36.2081 5.53373C36.2081 2.86586 34.0454 0.703125 31.3775 0.703125C28.7096 0.703125 26.5469 2.86586 26.5469 5.53373C26.5469 8.20161 28.7096 10.3643 31.3775 10.3643Z" stroke="#B1B2B2" stroke-width="1.40626" stroke-miterlimit="10" stroke-linecap="round" stroke-linejoin="round"/>
<path d="M42.4909 13.4012C44.5547 13.4012 46.2278 11.7281 46.2278 9.66421C46.2278 7.60034 44.5547 5.92725 42.4909 5.92725C40.427 5.92725 38.7539 7.60034 38.7539 9.66421C38.7539 11.7281 40.427 13.4012 42.4909 13.4012Z" stroke="#B1B2B2" stroke-width="1.40626" stroke-miterlimit="10" stroke-linecap="round" stroke-linejoin="round"/>
<path d="M42.1976 13.4084C40.5962 13.4914 39.1902 14.2613 38.2344 15.4189C38.4495 16.1076 38.5587 16.8251 38.5583 17.5466V23.7794H46.9067C47.5358 23.7794 48.0457 23.2695 48.0457 22.6405V18.9575C48.0456 15.8048 45.3846 13.2434 42.1976 13.4084Z" stroke="#B1B2B2" stroke-width="1.40626" stroke-miterlimit="10" stroke-linecap="round" stroke-linejoin="round"/>
<path d="M35.7055 25.571C36.6955 23.1809 35.5605 20.4409 33.1705 19.4509C30.7804 18.4609 28.0403 19.5959 27.0504 21.9859C26.0604 24.376 27.1953 27.116 29.5854 28.106C31.9754 29.096 34.7155 27.961 35.7055 25.571Z" stroke="#B1B2B2" stroke-width="1.40626" stroke-miterlimit="10" stroke-linecap="round" stroke-linejoin="round"/>
<path d="M29.6758 23.6379L31.1433 25.1055L33.2889 22.96" stroke="#B1B2B2" stroke-width="1.40626" stroke-miterlimit="10" stroke-linecap="round" stroke-linejoin="round"/>
<path d="M31.2807 10.3639C27.3364 10.4169 24.1953 13.6957 24.1953 17.6403V23.7788H26.6939C26.6939 21.1919 28.7911 19.0947 31.378 19.0947C33.965 19.0947 36.0621 21.1919 36.0621 23.7788H38.5607V17.546C38.5608 13.5631 35.2754 10.3103 31.2807 10.3639Z" stroke="#B1B2B2" stroke-width="1.40626" stroke-miterlimit="10" stroke-linecap="round" stroke-linejoin="round"/>
<path d="M21.2632 23.7793H24.1941V17.6408C24.1938 16.8872 24.3098 16.1381 24.5383 15.42C23.4594 14.1197 21.8032 13.3136 19.9722 13.4084C17.006 13.562 14.7069 16.0698 14.7069 19.0401V22.6405C14.7069 23.2695 15.2168 23.7794 15.8459 23.7794H17.982M40.3092 40.1151L46.0324 37.5835C46.4955 37.346 48.824 35.9491 47.7807 33.5771C46.5715 31.052 43.7885 32.2456 43.5548 32.333L31.7391 35.8286C31.7391 35.8286 32.548 33.4521 30.0984 32.4745C23.3098 29.7644 22.5003 29.3061 20.7822 29.2789L20.782 29.2787C15.471 29.2964 14.5088 29.3397 11.8694 30.5211C10.4941 31.1373 9.18111 31.8842 7.94856 32.7514C7.14474 33.3164 6.2528 33.7443 5.30544 34.0049L2.08144 34.8913C1.90089 34.9409 1.74163 35.0485 1.62812 35.1974C1.51461 35.3464 1.45313 35.5285 1.45312 35.7157V46.4411C1.45312 47.0395 2.0521 47.4529 2.61161 47.2404L13.8196 42.9852C16.2766 42.1843 18.8525 42.1033 20.9154 42.9266L25.2963 44.6755C26.2539 45.0056 28.4538 45.5194 30.7365 44.3494L30.7384 44.3486L35.3165 42.3235L37.3081 41.4425" stroke="#B1B2B2" stroke-width="1.40626" stroke-miterlimit="10" stroke-linecap="round" stroke-linejoin="round"/>
</g>
<defs>
<clipPath id="clip0_20787_4660">
<rect width="48" height="48" fill="white" transform="translate(0.75)"/>
</clipPath>
</defs>
</svg>
