<svg width="48" height="48" viewBox="0 0 48 48" fill="none" xmlns="http://www.w3.org/2000/svg">
<g clip-path="url(#clip0_21007_1825)">
<path d="M16 0C9.3726 0 4 5.3726 4 12V20.8C4.0035 23.8913 6.5087 26.3965 9.6 26.4H10.4V24.8H9.6C7.392 24.7974 5.6026 23.008 5.6 20.8V12C5.6 6.2562 10.2562 1.6 16 1.6C21.7438 1.6 26.4 6.2562 26.4 12V20.8C26.3974 23.008 24.608 24.7974 22.4 24.8H21.6V26.4H22.4C25.4913 26.3965 27.9965 23.8913 28 20.8V12C28 5.3726 22.6274 0 16 0ZM6.5928 37.7032L7.1776 36.7824L5.8264 35.9248L5.2416 36.8464C3.4729 39.6336 3.6042 43.2224 5.572 45.8728V48H7.172V45.6C7.17209 45.4183 7.1103 45.2419 6.9968 45.1C5.296 42.9738 5.1337 40.002 6.5928 37.7032ZM44 0H33.6C31.392 0.0026 29.6026 1.792 29.6 4V12C29.6026 14.208 31.392 15.9974 33.6 16H35.2V19.2C35.2 19.3582 35.247 19.5128 35.3349 19.6444C35.4228 19.7759 35.5477 19.8784 35.6939 19.9389C35.84 19.9995 36.0009 20.0153 36.156 19.9845C36.3112 19.9536 36.4537 19.8774 36.5656 19.7656L40.3312 16H44C46.208 15.9974 47.9974 14.208 48 12V4C47.9974 1.792 46.208 0.0026 44 0ZM46.4 12C46.4 13.3255 45.3255 14.4 44 14.4H40C39.7878 14.4 39.5844 14.4844 39.4344 14.6344L36.8 17.2688V15.2C36.8 14.9878 36.7157 14.7843 36.5657 14.6343C36.4157 14.4843 36.2122 14.4 36 14.4H33.6C32.2745 14.4 31.2 13.3255 31.2 12V4C31.2 2.6745 32.2745 1.6 33.6 1.6H44C45.3255 1.6 46.4 2.6745 46.4 4V12Z" fill="#B1B2B2"/>
<path d="M33.5999 4H39.1999V5.6H33.5999V4ZM40.7999 4H43.9999V5.6H40.7999V4ZM33.5999 7.2H43.9999V8.8H33.5999V7.2ZM33.5999 10.4H39.1999V12H33.5999V10.4ZM26.7583 36.8464L26.1735 35.9248L24.8223 36.7824L25.4071 37.704C26.8663 40.0025 26.704 42.9741 25.0031 45.1C24.8896 45.2419 24.8278 45.4183 24.8279 45.6V48H26.4279V45.8728C28.3957 43.2224 28.527 39.6336 26.7583 36.8464Z" fill="#B1B2B2"/>
<path d="M47.2 27.2001H40C36.9984 27.2036 34.5334 29.573 34.4112 32.5721L32 36.9129V33.6001C31.9965 30.5088 29.4913 28.0036 26.4 28.0001H23.476L23.4544 27.9833L23.44 28.0001H21.6C20.7163 28.0001 20 27.2838 20 26.4001V24.5177C21.2146 23.8164 22.2235 22.8082 22.9255 21.594C23.6276 20.3799 23.9981 19.0025 24 17.6001V11.2001C23.9988 9.87455 23.669 8.57002 23.04 7.40325C22.9429 7.22439 22.7813 7.08924 22.5881 7.02533C22.3949 6.96143 22.1846 6.97355 22 7.05925L8.4592 13.4305C8.32185 13.4951 8.20574 13.5975 8.12443 13.7257C8.04311 13.8539 7.99996 14.0026 8 14.1545V17.6001C8.00188 19.0025 8.37242 20.3799 9.07447 21.594C9.77652 22.8082 10.7854 23.8164 12 24.5177V26.4001C12 27.2838 11.2837 28.0001 10.4 28.0001H5.6C2.5087 28.0036 0.0035 30.5088 0 33.6001V48.0001H1.6V33.6001C1.6026 31.3921 3.392 29.6027 5.6 29.6001H8.1456L15.3496 39.6657C15.4226 39.7677 15.5185 39.8511 15.6297 39.9092C15.7409 39.9673 15.8642 39.9984 15.9896 40.0001H16C16.1242 40 16.2467 39.9711 16.3578 39.9156C16.4688 39.86 16.5655 39.7794 16.64 39.68L24.24 29.6001H26.4C28.608 29.6027 30.3974 31.3921 30.4 33.6001V40.0001C30.4002 40.1772 30.4591 40.3493 30.5676 40.4893C30.6761 40.6294 30.8281 40.7294 30.9996 40.7738C31.1711 40.8182 31.3524 40.8044 31.5153 40.7346C31.6781 40.6648 31.8131 40.5429 31.8992 40.3881L35.6704 33.6001H40.2568L32.4568 48.0001H34.2768L42.08 33.6001H42.4C45.4913 33.5966 47.9965 31.0914 48 28.0001C48 27.7879 47.9157 27.5844 47.7657 27.4344C47.6157 27.2843 47.4122 27.2001 47.2 27.2001ZM9.6 17.6001V14.6625L21.9528 8.84965C22.2483 9.59804 22.4 10.3954 22.4 11.2001V17.6001C22.4 21.1347 19.5346 24.0001 16 24.0001C12.4654 24.0001 9.6 21.1347 9.6 17.6001ZM16.0168 37.8497L13.548 34.4001H18.6168L16.0168 37.8497ZM19.8272 32.8001H12.4L10.1096 29.6001H10.4C12.1673 29.6001 13.6 28.1674 13.6 26.4001V25.2313C15.1622 25.723 16.8378 25.723 18.4 25.2313V26.4001C18.4 28.1674 19.8327 29.6001 21.6 29.6001H22.24L19.8272 32.8001ZM42.4 32.0001H36.08C36.4625 30.1388 38.0998 28.8022 40 28.8001H46.32C45.9375 30.6614 44.3002 31.998 42.4 32.0001Z" fill="#B1B2B2"/>
</g>
<defs>
<clipPath id="clip0_21007_1825">
<rect width="48" height="48" fill="white"/>
</clipPath>
</defs>
</svg>
