<svg width="60" height="60" viewBox="0 0 60 60" fill="none" xmlns="http://www.w3.org/2000/svg">
<path fill-rule="evenodd" clip-rule="evenodd" d="M50.3153 33.7984C50.3155 33.8629 50.3029 33.9269 50.2783 33.9866C50.2536 34.0463 50.2174 34.1005 50.1718 34.1461C50.1261 34.1918 50.0719 34.228 50.0122 34.2526C49.9525 34.2772 49.8886 34.2898 49.824 34.2896H46.8637C46.8451 34.2896 46.8264 34.2897 46.8139 34.2909C45.6669 34.3857 43.7489 35.044 43.8413 38.8549L44.1958 46.1665C39.6063 46.1958 36.0987 45.3264 33.2691 43.4489L36.7144 34.7455C36.7206 34.7225 36.7269 34.6989 36.7392 34.6752C37.0191 33.6939 37.0253 32.5837 36.7517 31.2822C36.7455 31.271 36.7455 31.2586 36.7392 31.248L34.5502 22.7182C34.4818 22.462 34.6373 22.1951 34.8922 22.1236L35.029 22.0857C35.2653 22.0184 35.5017 22.1292 35.6074 22.3555L38.3686 28.4526C38.835 29.4825 39.5191 30.3438 40.3524 30.9992C40.7731 31.3719 41.2606 31.6616 41.7889 31.8531C42.3549 32.0969 42.9643 32.2673 43.5987 32.3556L49.8922 33.2225C50.0096 33.2386 50.1172 33.2967 50.195 33.3862C50.2728 33.4757 50.3155 33.5903 50.3151 33.7089V33.7984H50.3153ZM44.8301 53.352C44.9551 53.8038 44.4756 54.2019 44.059 53.9695C43.9347 53.9005 43.8413 53.788 43.804 53.6524L42.0441 47.6635C42.411 47.6853 42.7903 47.7002 43.1697 47.7083L44.8301 53.352ZM36.0615 51.3439C36.0862 51.2781 36.0974 51.208 36.0942 51.1377C36.091 51.0675 36.0735 50.9986 36.0429 50.9353L34.6001 47.8836C34.5135 47.7053 34.5001 47.5001 34.5628 47.312L34.9546 46.113C34.6249 45.97 34.2954 45.8183 33.9783 45.6547L33.319 47.6784L35.0728 51.3924C35.2765 51.8167 35.8948 51.7981 36.0615 51.3439ZM43.2691 24.8625C41.7019 24.8625 40.4208 26.1404 40.4208 27.7108C40.4208 28.5647 40.8001 29.3314 41.3971 29.8539C41.6894 30.07 42.0042 30.2537 42.3361 30.4018C42.6362 30.5055 42.9515 30.5585 43.269 30.5585C44.8425 30.5585 46.1173 29.2811 46.1173 27.7109C46.1175 26.1403 44.8426 24.8625 43.2691 24.8625ZM50.1039 31.6865L46.0367 31.1262C47.0317 30.319 47.6723 29.0889 47.6723 27.7108C47.6723 25.2853 45.6947 23.3121 43.2693 23.3121C41.3352 23.3121 39.6871 24.5701 39.1026 26.3095L37.0193 21.7144C36.5964 20.789 35.5827 20.3182 34.6063 20.5931L34.4695 20.631C33.4123 20.9302 32.7718 22.039 33.0454 23.1042L35.2344 31.6161C35.4459 32.6273 35.4521 33.501 35.2531 34.2118L31.6026 43.4501C31.4721 43.7797 31.584 44.1547 31.87 44.3631C32.1104 44.5364 32.355 44.7038 32.6038 44.8649L31.7455 47.4887C31.6828 47.6772 31.6962 47.8827 31.7829 48.0615L33.6735 52.0559C34.4628 53.7268 36.8917 53.6154 37.5229 51.8656C37.7095 51.3395 37.6785 50.7742 37.4421 50.2716L36.1299 47.5005L36.4035 46.6609C37.6348 47.0596 38.9532 47.3445 40.3835 47.5167L42.3114 54.0888C42.8382 55.8555 45.2487 56.1386 46.1423 54.5011C46.4097 54.0111 46.4719 53.4477 46.3164 52.9141L44.7865 47.707C45.0829 47.7024 45.3325 47.7153 45.5764 47.4551C45.6471 47.3798 45.7017 47.2909 45.737 47.1938C45.7723 47.0967 45.7874 46.9935 45.7816 46.8904L45.396 38.7915C45.3401 35.9972 46.4782 35.8673 46.8886 35.8399H49.8239C50.9495 35.8399 51.8637 34.9246 51.8637 33.7983V33.7087C51.8638 32.6778 51.1237 31.827 50.1039 31.6865ZM29.9544 17.7616C29.0776 18.0191 28.1758 18.065 27.3175 17.9095C30.0456 16.4387 32.1564 13.5146 32.8399 10.4027C33.312 10.3547 33.7748 10.2395 34.2143 10.0607C35.1274 13.2883 33.2328 16.8048 29.9544 17.7616ZM26.9569 11.044C25.8499 12.9575 25.4085 15.1043 25.7194 16.9426C28.3824 15.9449 30.5373 13.2172 31.2666 10.3075C30.2744 10.0856 29.3739 9.56541 28.6858 8.81689C28.0265 9.45805 27.4357 10.2155 26.9569 11.044ZM24.0775 16.0384C23.9859 12.9403 25.4692 9.65821 27.8152 7.50409C27.6209 7.07262 27.491 6.61499 27.4296 6.14581C25.8749 6.53509 24.4507 7.55569 23.5677 9.08869C22.2881 11.3101 22.4493 14.1221 24.0775 16.0384ZM29.1087 5.97421C30.4413 6.05461 31.5138 6.49165 32.5291 7.36045C32.9359 7.70857 33.3107 8.18113 33.5926 8.63905C32.6349 9.01777 31.5528 8.94625 30.6385 8.41705C29.7244 7.88845 29.1211 6.98857 28.9719 5.97109C29.0153 5.97229 29.0651 5.97229 29.1087 5.97421ZM34.9359 15.6503C32.8601 19.236 28.3428 20.6654 24.7617 18.5987C21.1848 16.5343 20.1556 11.9004 22.2243 8.31385C23.5093 6.08593 25.7682 4.69261 28.0825 4.45561C29.1984 4.34137 30.0045 4.45909 31.0241 4.75657C32.0383 5.05249 33.1171 5.74333 33.8662 6.48673V6.49105C34.489 7.11269 34.9908 7.84463 35.3463 8.64961C35.3587 8.67637 35.3711 8.70313 35.3773 8.73109C36.2977 10.8629 36.2107 13.4351 34.9359 15.6503ZM26.1857 24.5066L22.5539 32.8395C22.5282 32.8945 22.5114 32.9533 22.5041 33.0136L21.2728 40.0024C21.2419 40.1749 21.2706 40.3528 21.3542 40.5069C21.4379 40.661 21.5714 40.782 21.733 40.85L25.3587 42.4066C25.6635 42.5844 26.4159 43.1175 25.6572 45.439L24.3886 49.5628C24.2592 49.9932 23.6088 49.879 23.6237 49.4334L23.7791 44.8009C23.7858 44.6461 23.7454 44.493 23.6632 44.3616C23.5811 44.2303 23.461 44.1269 23.3189 44.0652L20.4706 42.8134C20.0975 42.6498 19.6684 42.8009 19.4755 43.1585L13.7853 53.8327C13.5725 54.2337 12.8777 53.9788 12.9893 53.5349L15.5826 43.2382C15.5951 43.184 15.6075 43.1287 15.6075 43.0728L15.7132 39.5349V39.4845C15.6634 38.0175 14.8985 36.6144 13.3811 35.1984L9.80521 31.7003C9.48553 31.3891 9.87385 30.8649 10.2654 31.0822L14.2518 33.3005C15.4085 33.9422 16.7207 34.0554 18.0516 33.6282C18.5802 33.4609 19.084 33.2177 19.5565 32.9243C20.1287 32.6445 20.6386 32.2433 21.0366 31.7539C21.9072 30.9082 22.5976 29.9262 23.0205 29.0301L25.2904 24.1053C25.5627 23.512 26.4447 23.9296 26.1857 24.5066ZM17.6409 26.1155C16.0675 26.1155 14.7925 27.3935 14.7925 28.9638C14.7925 30.5347 16.0674 31.8114 17.6409 31.8114C18.0575 31.8114 18.4555 31.7194 18.8163 31.5552C19.1956 31.3115 19.5563 31.0235 19.8859 30.7113C20.2779 30.2132 20.4905 29.5975 20.4892 28.9637C20.4892 27.3935 19.2081 26.1155 17.6409 26.1155ZM26.391 22.3804L26.3723 22.3747C25.3897 22.0451 24.3138 22.5103 23.8785 23.4562L21.8821 27.7994C21.366 25.9375 19.662 24.5644 17.6409 24.5644C14.1696 24.5644 12.0465 28.4247 13.953 31.3585L11.0177 29.7261C10.1353 29.2354 9.08953 29.4844 8.47417 30.333C7.94557 31.1098 8.04505 32.1508 8.72293 32.8095L12.3175 36.325C13.5178 37.4412 14.121 38.4849 14.1646 39.5153L14.0589 42.9413L11.4843 53.1553C11.2293 54.1783 11.8201 55.2033 12.84 55.488C13.0684 55.5541 13.2202 55.5875 13.4619 55.5875C14.1583 55.5875 14.8114 55.2082 15.1596 54.562L20.5079 44.5222L22.2119 45.2728L22.0689 49.3798C22.0366 50.3325 22.6861 51.1506 23.6361 51.3437C24.1076 51.4436 24.5994 51.3626 25.0141 51.1169C25.4287 50.8713 25.736 50.4787 25.8749 50.0172L27.1312 45.9145C28.1137 42.9226 27.1001 41.6104 26.0863 41.0357C26.0617 41.0228 26.0368 41.0103 26.0117 40.9984L22.9084 39.6662L24.0154 33.3733L27.61 25.1257C28.0911 24.0259 27.5233 22.757 26.391 22.3804Z" fill="white"/>
</svg>
