<svg width="47" height="46" viewBox="0 0 47 46" fill="none" xmlns="http://www.w3.org/2000/svg">
<path d="M19.0443 43.2751C18.8776 43.2751 18.7072 43.2385 18.5462 43.1637C18.3004 43.0517 18.1015 42.857 17.9842 42.6135C17.867 42.3701 17.8387 42.0933 17.9044 41.8311L21.7914 25.7951L12.4117 25.7491C12.1963 25.7487 11.9852 25.6883 11.8021 25.5747C11.6191 25.4611 11.4713 25.2987 11.3753 25.1058C11.2779 24.9138 11.236 24.6984 11.2541 24.4839C11.2723 24.2693 11.3498 24.0641 11.4781 23.8911L26.6818 3.20264C26.8403 2.98401 27.0702 2.82768 27.3318 2.76073C27.5934 2.69379 27.8702 2.72044 28.1142 2.83608C28.6246 3.07327 28.8883 3.62168 28.7561 4.16864L24.8691 20.204L34.2488 20.25C34.4642 20.2504 34.6753 20.3108 34.8584 20.4244C35.0414 20.538 35.1892 20.7003 35.2852 20.8932C35.3825 21.0853 35.4245 21.3006 35.4065 21.5151C35.3884 21.7296 35.3111 21.9348 35.1832 22.1079L19.9787 42.7971C19.7509 43.1069 19.4037 43.2751 19.0443 43.2751ZM13.3066 24.1348L22.3707 24.1801C22.7279 24.1815 23.0607 24.344 23.2828 24.6257C23.5049 24.9089 23.5832 25.2704 23.4999 25.6205L20.0082 40.0249L33.3539 21.865L24.2898 21.8197C24.1139 21.8193 23.9405 21.7789 23.7825 21.7017C23.6245 21.6246 23.4861 21.5125 23.3777 21.3741C23.2685 21.2356 23.1922 21.074 23.1546 20.9017C23.117 20.7294 23.119 20.5507 23.1606 20.3793L26.6523 5.97486L13.3066 24.1348Z" fill="black"/>
</svg>
