<svg width="32" height="32" viewBox="0 0 32 32" fill="none" xmlns="http://www.w3.org/2000/svg">
<path d="M24.3743 5.68299C22.1832 3.49186 19.2699 2.28516 16.1713 2.28516C13.0726 2.28516 10.1592 3.49186 7.96815 5.68299C5.77701 7.87418 4.57031 10.7874 4.57031 13.886C4.57031 20.1546 10.4974 25.3684 13.6816 28.1695C14.1241 28.5587 14.5062 28.8949 14.8107 29.1792C15.1921 29.5356 15.6817 29.7137 16.1712 29.7137C16.6608 29.7137 17.1503 29.5356 17.5318 29.1792C17.8362 28.8948 18.2183 28.5587 18.6608 28.1695C21.8451 25.3684 27.7721 20.1546 27.7721 13.886C27.7721 10.7874 26.5654 7.87418 24.3743 5.68299ZM17.5996 26.9631C17.1474 27.3609 16.7569 27.7045 16.4349 28.0052C16.287 28.1432 16.0554 28.1433 15.9074 28.0052C15.5855 27.7044 15.195 27.3609 14.7428 26.9631C11.7492 24.3298 6.17693 19.428 6.17693 13.8861C6.17693 8.37529 10.6603 3.89193 16.1711 3.89193C21.682 3.89193 26.1653 8.37529 26.1653 13.8861C26.1654 19.428 20.5932 24.3298 17.5996 26.9631Z" fill="#9F1C20"/>
<path d="M16.171 8.33594C13.352 8.33594 11.0586 10.6293 11.0586 13.4483C11.0586 16.2673 13.352 18.5606 16.171 18.5606C18.99 18.5606 21.2833 16.2673 21.2833 13.4483C21.2833 10.6293 18.99 8.33594 16.171 8.33594ZM16.171 16.9538C14.238 16.9538 12.6653 15.3812 12.6653 13.4482C12.6653 11.5153 14.238 9.9426 16.171 9.9426C18.104 9.9426 19.6766 11.5153 19.6766 13.4482C19.6766 15.3812 18.104 16.9538 16.171 16.9538Z" fill="#9F1C20"/>
</svg>
