<svg width="28" height="28" viewBox="0 0 28 28" fill="none" xmlns="http://www.w3.org/2000/svg">
<path fill-rule="evenodd" clip-rule="evenodd" d="M25.314 18.4728C25.314 20.8372 23.3907 22.7576 21.0292 22.7576H6.97139C4.60993 22.7576 2.68652 20.8372 2.68652 18.4728V9.52798C2.68599 8.76592 2.89014 8.01771 3.27763 7.36153L10.137 14.2209C11.1632 15.2501 12.5374 15.8172 14.0017 15.8172C15.463 15.8172 16.8373 15.2501 17.8635 14.2209L24.7228 7.36153C25.1104 8.0177 25.3145 8.76592 25.314 9.52798V18.4728H25.314ZM21.0291 5.24316H6.97139C5.9962 5.24316 5.09599 5.5732 4.37587 6.12231L11.3042 13.0537C12.0214 13.7678 12.9785 14.1639 14.0017 14.1639C15.0219 14.1639 15.9791 13.7678 16.6963 13.0537L23.6246 6.12231C22.9045 5.5732 22.0044 5.24316 21.0291 5.24316ZM21.0291 3.58984H6.97139C3.69774 3.58984 1.0332 6.25438 1.0332 9.52803V18.4728C1.0332 21.7495 3.69774 24.411 6.97139 24.411H21.0291C24.3028 24.411 26.9673 21.7495 26.9673 18.4728V9.52798C26.9673 6.25433 24.3028 3.58984 21.0291 3.58984Z" fill="#9F1C20"/>
</svg>
