<svg width="47" height="46" viewBox="0 0 47 46" fill="none" xmlns="http://www.w3.org/2000/svg">
<g clip-path="url(#clip0_20787_4825)">
<path d="M46.0877 44.8503H35.1486V31.4969C41.5488 31.1842 46.6625 25.9463 46.6625 19.5328C46.6625 12.9193 41.2281 7.53886 34.549 7.53886C33.2137 7.53886 31.9324 7.76251 30.7304 8.15917C29.5279 3.4105 25.1574 0 20.1752 0C14.1705 0 9.28505 4.83782 9.28505 10.7839C9.28505 16.5455 13.8756 21.2516 19.6229 21.5396V44.8508H9.30694V35.7465C13.4642 35.4447 16.7562 32.0066 16.7562 27.8132C16.7562 23.422 13.1497 19.8501 8.71605 19.8501C4.28231 19.8501 0.675894 23.4221 0.675894 27.8132C0.675894 32.0176 3.98467 35.462 8.15739 35.7482V44.8507H1.25062V44.8501C0.933334 44.8501 0.675781 45.1071 0.675781 45.4249C0.675781 45.7428 0.933334 45.9998 1.25062 45.9998H46.0877C46.2401 45.9998 46.3863 45.9392 46.4941 45.8314C46.6019 45.7237 46.6624 45.5775 46.6624 45.4251C46.6624 45.2726 46.6019 45.1264 46.4941 45.0187C46.3863 44.9109 46.2401 44.8503 46.0877 44.8503ZM8.73155 25.8135C8.65605 25.8135 8.5813 25.8284 8.51155 25.8573C8.4418 25.8862 8.37843 25.9285 8.32504 25.9819C8.27166 26.0353 8.22932 26.0986 8.20044 26.1684C8.17156 26.2381 8.1567 26.3129 8.15671 26.3884V31.3198L6.22237 29.4545C5.99412 29.2338 5.63025 29.2412 5.40952 29.4689C5.30374 29.5787 5.24584 29.7259 5.24853 29.8783C5.25123 30.0307 5.3143 30.1758 5.42389 30.2818L8.15604 32.9168V34.5987C4.61856 34.3154 1.82534 31.3832 1.82534 27.8133C1.82534 24.0568 4.9162 20.9999 8.71583 20.9999C12.5149 20.9999 15.6063 24.0563 15.6063 27.8133C15.6063 31.3727 12.8298 34.2992 9.30672 34.5969V30.5432L12.0068 27.9386C12.0611 27.8862 12.1045 27.8236 12.1347 27.7544C12.1648 27.6851 12.181 27.6107 12.1823 27.5352C12.1836 27.4597 12.1701 27.3847 12.1424 27.3145C12.1148 27.2442 12.0736 27.1801 12.0211 27.1258C11.9151 27.0163 11.77 26.9534 11.6177 26.9507C11.4653 26.948 11.3181 27.0058 11.2083 27.1114L9.30616 28.9457V26.3883C9.30622 26.3128 9.29139 26.238 9.26254 26.1683C9.23368 26.0985 9.19136 26.0352 9.138 25.9818C9.08463 25.9284 9.02126 25.8861 8.95152 25.8572C8.88178 25.8283 8.80703 25.8135 8.73155 25.8135ZM24.6021 8.87311C24.3809 8.64542 24.0164 8.63969 23.7893 8.86098L20.7714 11.7858V7.68673C20.7714 7.36888 20.5139 7.11189 20.1966 7.11189C19.8793 7.11189 19.6217 7.36888 19.6217 7.68673V15.0986L16.5591 12.1296C16.5049 12.077 16.4409 12.0356 16.3707 12.0078C16.3006 11.9799 16.2256 11.9662 16.1501 11.9673C16.0746 11.9684 16.0001 11.9844 15.9308 12.0143C15.8615 12.0442 15.7988 12.0875 15.7462 12.1417C15.6937 12.1959 15.6523 12.2599 15.6245 12.3301C15.5967 12.4003 15.583 12.4753 15.5842 12.5507C15.5854 12.6262 15.6014 12.7007 15.6314 12.77C15.6614 12.8393 15.7047 12.902 15.7589 12.9545L19.6217 16.6991V20.3901C14.5092 20.1038 10.4342 15.9116 10.4342 10.7841C10.4342 5.47204 14.804 1.14989 20.1747 1.14989C24.6785 1.14989 28.6253 4.26029 29.6502 8.57278C25.4057 10.4399 22.4344 14.6465 22.4344 19.5331C22.4344 19.7395 22.455 19.9407 22.4654 20.1448C21.9091 20.2784 21.3423 20.3632 20.7713 20.3983V13.3865L24.5893 9.6863C24.6436 9.63377 24.687 9.57106 24.7171 9.50175C24.7471 9.43244 24.7632 9.35789 24.7644 9.28236C24.7655 9.20683 24.7518 9.1318 24.724 9.06158C24.6962 8.99136 24.6548 8.92731 24.6021 8.87311ZM33.9989 44.8509H20.772V21.5482C21.3809 21.5148 21.986 21.431 22.581 21.2976C23.4208 26.8988 28.1759 31.2393 33.999 31.4998V44.8509H33.9989ZM34.5737 15.4935C34.4982 15.4935 34.4235 15.5083 34.3537 15.5372C34.284 15.5661 34.2206 15.6084 34.1672 15.6618C34.1138 15.7152 34.0715 15.7786 34.0426 15.8483C34.0137 15.9181 33.9989 15.9928 33.9989 16.0683V24.4753L30.4568 21.059C30.347 20.9534 30.1998 20.8956 30.0474 20.8983C29.8951 20.901 29.75 20.9639 29.644 21.0734C29.5382 21.1832 29.4803 21.3304 29.483 21.4828C29.4857 21.6352 29.5487 21.7803 29.6583 21.8863L33.9989 26.0722V30.3501C28.2091 30.0638 23.5846 25.3295 23.5846 19.5335C23.5846 13.5541 28.5035 8.68921 34.549 8.68921C40.5946 8.68921 45.5129 13.5534 45.5129 19.5329C45.5129 25.3124 40.9148 30.0363 35.1486 30.3473V22.3853L39.4392 18.2482C39.4935 18.1958 39.5369 18.1331 39.567 18.0639C39.5972 17.9947 39.6134 17.9202 39.6147 17.8447C39.616 17.7693 39.6025 17.6943 39.5748 17.624C39.5472 17.5538 39.506 17.4896 39.4535 17.4353C39.4011 17.381 39.3385 17.3376 39.2693 17.3074C39.2 17.2773 39.1256 17.2611 39.0501 17.2598C38.9746 17.2585 38.8996 17.272 38.8293 17.2997C38.7591 17.3273 38.695 17.3685 38.6407 17.421L35.1486 20.7883V16.0684C35.1486 15.9929 35.1337 15.9182 35.1048 15.8484C35.076 15.7786 35.0336 15.7153 34.9802 15.6619C34.9269 15.6085 34.8635 15.5661 34.7937 15.5372C34.724 15.5083 34.6492 15.4935 34.5737 15.4935Z" fill="black"/>
</g>
<defs>
<clipPath id="clip0_20787_4825">
<rect width="46" height="46" fill="white" transform="translate(0.667969)"/>
</clipPath>
</defs>
</svg>
