<svg width="36" height="36" viewBox="0 0 36 36" fill="none" xmlns="http://www.w3.org/2000/svg">
<path fill-rule="evenodd" clip-rule="evenodd" d="M11.8523 0H24.0443L34.8065 10.7642V31.4347C34.8065 33.9447 32.7532 36 30.2412 36H11.8523C9.34233 36 7.28906 33.9447 7.28906 31.4347V4.56532C7.28906 2.0553 9.34233 0 11.8523 0Z" fill="#E5252A"/>
<path fill-rule="evenodd" clip-rule="evenodd" d="M24.0448 0L34.807 10.7642H25.2052C24.5653 10.7642 24.0448 10.2416 24.0448 9.6018V0ZM2.19336 15.3295H26.9868C27.5382 15.3295 27.9888 15.7801 27.9888 16.3315V25.4271C27.9888 25.9785 27.5382 26.4291 26.9868 26.4291H2.19336C1.64197 26.4291 1.19141 25.9785 1.19141 25.4271V16.3315C1.19141 15.7801 1.64204 15.3295 2.19336 15.3295Z" fill="#B71D21"/>
<path d="M8.2795 17.1843H6.40933C6.25518 17.1843 6.10735 17.2456 5.99836 17.3546C5.88936 17.4636 5.82813 17.6114 5.82813 17.7655V23.9911C5.82812 24.1453 5.88936 24.2931 5.99836 24.4021C6.10735 24.5111 6.25518 24.5723 6.40933 24.5723C6.56347 24.5723 6.7113 24.5111 6.8203 24.4021C6.9293 24.2931 6.99053 24.1453 6.99053 23.9911V22.1672H8.27943C9.63112 22.1672 10.7308 21.0675 10.7308 19.7159V19.6357C10.7309 18.284 9.63119 17.1843 8.2795 17.1843ZM9.56847 19.7159C9.56847 20.4266 8.99022 21.0048 8.2795 21.0048H6.99053V18.3467H8.27943C8.99015 18.3467 9.5684 18.9249 9.5684 19.6356V19.7159H9.56847ZM14.5339 17.1843H12.6638C12.5097 17.1843 12.3619 17.2456 12.2529 17.3546C12.1439 17.4636 12.0826 17.6114 12.0826 17.7655V23.9911C12.0826 24.1453 12.1439 24.2931 12.2529 24.4021C12.3619 24.5111 12.5097 24.5723 12.6638 24.5723H14.5339C15.8856 24.5723 16.9853 23.4727 16.9853 22.121V19.6357C16.9853 18.284 15.8856 17.1843 14.5339 17.1843ZM15.8229 22.121C15.8229 22.8317 15.2447 23.4099 14.5339 23.4099H13.245V18.3467H14.5339C15.2447 18.3467 15.8229 18.9249 15.8229 19.6356V22.121ZM19.6125 18.3467V19.9556H22.3067C22.4608 19.9556 22.6087 20.0169 22.7177 20.1259C22.8267 20.2349 22.8879 20.3827 22.8879 20.5368C22.8879 20.691 22.8267 20.8388 22.7177 20.9478C22.6087 21.0568 22.4608 21.118 22.3067 21.118H19.6125V23.9911C19.6125 24.1453 19.5513 24.2931 19.4423 24.4021C19.3333 24.5111 19.1855 24.5723 19.0313 24.5723C18.8772 24.5723 18.7294 24.5111 18.6204 24.4021C18.5114 24.2931 18.4501 24.1453 18.4501 23.9911V17.7655C18.4501 17.6114 18.5114 17.4636 18.6204 17.3546C18.7294 17.2456 18.8772 17.1843 19.0313 17.1843H22.7716C22.9258 17.1843 23.0736 17.2456 23.1826 17.3546C23.2916 17.4636 23.3528 17.6114 23.3528 17.7655C23.3528 17.9197 23.2916 18.0675 23.1826 18.1765C23.0736 18.2855 22.9258 18.3467 22.7716 18.3467H19.6125Z" fill="white"/>
</svg>
