<svg width="30" height="30" viewBox="0 0 30 30" fill="none" xmlns="http://www.w3.org/2000/svg">
<path d="M5.93425 14.1687C4.0151 14.1687 2.45383 12.6216 2.45383 10.7206C2.45383 8.81941 4.0151 7.2723 5.93425 7.2723C7.85323 7.2723 9.41419 8.81917 9.41419 10.7206C9.41419 12.6219 7.85323 14.1687 5.93425 14.1687ZM5.93425 8.24004C4.54857 8.24004 3.42157 9.35288 3.42157 10.7206C3.42157 12.0881 4.54857 13.2009 5.93425 13.2009C7.31952 13.2009 8.44645 12.0881 8.44645 10.7206C8.44645 9.35288 7.31952 8.24004 5.93425 8.24004ZM7.33439 23.7157H1.26472C0.567339 23.7157 0 23.152 0 22.4589V20.8761C0 17.636 2.66202 14.9998 5.93425 14.9998C7.22123 14.9998 8.44627 15.4014 9.47589 16.1611C9.57914 16.2373 9.64789 16.3514 9.66703 16.4783C9.68616 16.6053 9.65411 16.7346 9.57792 16.8379C9.50167 16.9411 9.38759 17.0098 9.26073 17.0289C9.13386 17.0481 9.00459 17.0161 8.90129 16.94C8.03915 16.304 7.01329 15.9675 5.93425 15.9675C3.19573 15.9675 0.967742 18.1697 0.967742 20.8761V22.4589C0.967742 22.6181 1.10099 22.7479 1.26472 22.7479H7.33464C7.60161 22.7479 7.81851 22.9645 7.81851 23.2317C7.81851 23.4987 7.60161 23.7156 7.33439 23.7156V23.7157ZM28.7353 23.3495H22.6656C22.3986 23.3495 22.1817 23.1328 22.1817 22.8656C22.1817 22.5986 22.3986 22.3817 22.6656 22.3817H28.7355C28.8993 22.3817 29.0325 22.2523 29.0325 22.093V20.5103C29.0325 17.8034 26.8045 15.6016 24.066 15.6016C22.9222 15.6016 21.8056 15.9955 20.9217 16.7109C20.7143 16.8789 20.4097 16.847 20.2413 16.6393C20.0733 16.4316 20.105 16.1268 20.3131 15.9586C21.3685 15.1045 22.7013 14.6338 24.066 14.6338C27.338 14.6338 30 17.2699 30 20.5103V22.093C30 22.7857 29.4327 23.3495 28.7353 23.3495ZM24.0657 13.9296C22.1468 13.9296 20.5858 12.3828 20.5858 10.4815C20.5858 8.58026 22.1468 7.0332 24.0657 7.0332C25.9849 7.0332 27.5462 8.58008 27.5462 10.4815C27.5462 12.3829 25.9847 13.9296 24.0657 13.9296ZM24.0657 8.00094C22.6805 8.00094 21.5535 9.11379 21.5535 10.4815C21.5535 11.8492 22.6805 12.9618 24.0657 12.9618C25.4514 12.9618 26.5784 11.8492 26.5784 10.4815C26.5784 9.11379 25.4512 8.00094 24.0657 8.00094Z" fill="white"/>
<path d="M21.5683 25.2903H8.43382C7.56128 25.2903 6.85156 24.5858 6.85156 23.7196V21.4936C6.85156 17.0447 10.507 13.4253 15.001 13.4253C19.4951 13.4253 23.1505 17.0447 23.1505 21.4936V23.7196C23.1505 24.5857 22.4408 25.2903 21.5683 25.2903ZM15.001 14.3933C11.041 14.3933 7.8193 17.5786 7.8193 21.4937V23.7199C7.8193 24.0523 8.09499 24.3228 8.43382 24.3228H21.568C21.9068 24.3228 22.1825 24.0523 22.1825 23.7199V21.4937C22.1828 17.5786 18.9611 14.3933 15.001 14.3933ZM14.8328 12.8599C12.3671 12.8599 10.3608 10.8727 10.3608 8.42972C10.3608 5.98702 12.367 4 14.8329 4C17.299 4 19.3051 5.9872 19.3051 8.42996C19.3051 10.8729 17.2988 12.8599 14.8329 12.8599H14.8328ZM14.8328 4.96774C12.9006 4.96774 11.3285 6.52097 11.3285 8.42996C11.3285 10.3393 12.9006 11.8924 14.8328 11.8924C16.7652 11.8924 18.3373 10.3392 18.3373 8.42996C18.3373 6.52097 16.7652 4.96774 14.8329 4.96774H14.8328Z" fill="white"/>
</svg>
