<svg width="48" height="48" viewBox="0 0 48 48" fill="none" xmlns="http://www.w3.org/2000/svg">
<path d="M5.52805 12.8728L6.54624 12.9455C6.69169 13.4546 6.90987 13.8909 7.12805 14.4L6.47351 15.1273C6.1826 15.4182 6.25533 15.8546 6.47351 16.1455L8.14624 17.8182C8.36442 18.0364 8.5826 18.1091 8.87351 18.0364C9.01896 17.9637 9.16442 17.8909 9.23714 17.8182L9.89169 17.2364C10.3281 17.4546 10.8371 17.6728 11.3462 17.8182L11.419 18.8364C11.419 19.2 11.7826 19.5637 12.1462 19.5637H14.5462C14.9099 19.5637 15.2735 19.2728 15.2735 18.8364L15.3462 17.8182C15.8553 17.6728 16.2917 17.4546 16.8008 17.2364L17.5281 17.8909C17.819 18.1818 18.2553 18.1818 18.5462 17.8909L20.219 16.2182C20.5099 15.9273 20.5099 15.4909 20.219 15.2L19.5644 14.4728C19.7826 14.0364 20.0008 13.5273 20.1462 13.0182L21.1644 12.9455C21.5281 12.9455 21.8917 12.5818 21.8917 12.2182V9.81821C21.8917 9.45457 21.6008 9.09093 21.1644 9.09093L20.1462 9.01821C20.0008 8.50912 19.7826 8.00002 19.5644 7.56366L20.219 6.83639C20.5099 6.54548 20.4371 6.10912 20.219 5.81821L18.5462 4.07275C18.2553 3.78184 17.819 3.78184 17.5281 4.07275L16.8008 4.7273C16.3644 4.50912 15.8553 4.29093 15.3462 4.14548L15.2735 3.1273C15.2735 2.76366 14.9099 2.40002 14.5462 2.40002H12.1462C11.7826 2.40002 11.419 2.69093 11.419 3.1273L11.3462 4.14548C10.8371 4.29093 10.4008 4.50912 9.89169 4.7273L9.16442 4.07275C8.87351 3.78184 8.43714 3.85457 8.14624 4.07275L6.47351 5.81821C6.1826 6.10912 6.1826 6.54548 6.47351 6.83639L7.12805 7.56366C6.90987 8.00002 6.69169 8.50912 6.54624 9.01821L5.52805 9.09093C5.16442 9.09093 4.80078 9.45457 4.80078 9.81821V12.2182C4.80078 12.5818 5.16442 12.8728 5.52805 12.8728ZM6.25533 10.4728H7.12805C7.49169 10.4728 7.70987 10.2546 7.7826 9.89093C7.92805 9.16366 8.21896 8.50912 8.5826 7.9273C8.80078 7.63639 8.72805 7.27275 8.50987 7.05457L8.00078 6.3273L8.72805 5.60002L9.3826 6.18184C9.60078 6.40002 9.96442 6.47275 10.2553 6.25457C10.8371 5.89093 11.4917 5.60002 12.219 5.45457C12.5099 5.38184 12.8008 5.09093 12.8008 4.80002V3.9273H13.819L13.8917 4.80002C13.8917 5.16366 14.1099 5.38184 14.4735 5.45457C15.2008 5.60002 15.8553 5.89093 16.4371 6.25457C16.7281 6.47275 17.0917 6.40002 17.3099 6.18184L17.9644 5.60002L18.6917 6.3273L18.1099 6.98184C17.8917 7.20002 17.8917 7.63639 18.0371 7.85457C18.3281 8.29093 18.6917 9.09093 18.8371 9.81821C18.9099 10.1818 19.2008 10.4 19.4917 10.4H20.3644V11.4182L19.4917 11.4909C19.1281 11.4909 18.9099 11.7091 18.8371 12.0728C18.6917 12.8 18.4008 13.4546 18.0371 14.0364C17.819 14.3273 17.8917 14.6909 18.1099 14.9091L18.6917 15.5637L17.9644 16.2909L17.3099 15.7091C17.0917 15.4909 16.7281 15.4909 16.4371 15.6364C15.8553 16 15.2008 16.2909 14.4735 16.4364C14.1826 16.5091 13.8917 16.8 13.8917 17.0909L13.819 18.0364H12.8008V17.1637C12.8008 16.8 12.5826 16.5818 12.219 16.5091C11.4917 16.3637 10.8371 16.0728 10.2553 15.7091C9.96442 15.4909 9.60078 15.5637 9.3826 15.7818L8.72805 16.2909L8.00078 15.5637L8.5826 14.9091C8.80078 14.6909 8.80078 14.3273 8.65533 14.0364C8.29169 13.4546 8.00078 12.8 7.85533 12.0728C7.7826 11.7818 7.49169 11.4909 7.20078 11.4909L6.32805 11.4182V10.4728H6.25533Z" fill="white"/>
<path d="M13.3086 14.9818C14.8359 14.9818 16.2177 14.1818 16.8722 12.8C17.5995 11.4182 17.454 9.81817 16.5813 8.65453C15.5631 7.19999 13.8177 6.61817 12.0722 7.12726C10.3995 7.63635 9.30859 9.16362 9.30859 10.9818C9.30859 13.1636 11.1268 14.9818 13.3086 14.9818ZM12.5813 8.50908C12.7995 8.43635 13.0904 8.36362 13.3813 8.36362C14.1086 8.36362 14.9086 8.65453 15.4177 9.45453C15.9995 10.2545 16.0722 11.2727 15.6359 12.1454C15.1995 13.0182 14.3268 13.5273 13.3813 13.5273C11.9995 13.5273 10.8359 12.3636 10.8359 10.9818C10.7631 9.59999 11.7086 8.79999 12.5813 8.50908ZM46.545 15.4182L44.8722 15.3454C44.6541 14.4727 44.2904 13.6727 43.854 12.9454L45.0177 11.7091C45.3086 11.4182 45.2359 10.9818 45.0177 10.6909L42.545 8.21817C42.254 7.92726 41.8177 7.92726 41.5268 8.21817L40.2904 9.3818C39.5631 8.94544 38.7631 8.58181 37.8904 8.36362L37.8177 6.6909C37.8177 6.32726 37.454 5.96362 37.0904 5.96362H33.5995C33.2359 5.96362 32.8722 6.25453 32.8722 6.6909L32.7995 8.36362C31.9268 8.58181 31.1268 8.94544 30.3995 9.3818L29.1631 8.21817C28.8722 7.92726 28.4359 7.99999 28.145 8.21817L25.6722 10.6909C25.3813 10.9818 25.3813 11.4182 25.6722 11.7091L26.8359 12.9454C26.3995 13.6727 26.0359 14.4727 25.8177 15.3454L24.145 15.4182C23.7813 15.4182 23.4177 15.7818 23.4177 16.1454V19.6364C23.4177 20 23.7086 20.3636 24.145 20.3636L25.8177 20.4364C26.0359 21.3091 26.3995 22.1091 26.8359 22.8364L25.745 24C25.4541 24.2909 25.5268 24.7273 25.745 25.0182L28.2177 27.4909C28.5086 27.7818 28.945 27.7818 29.2359 27.4909L30.4722 26.3273C31.1995 26.7636 31.9995 27.1273 32.8722 27.3454L32.945 29.0182C32.945 29.3818 33.3086 29.7454 33.6722 29.7454H37.1631C37.5268 29.7454 37.8904 29.4545 37.8904 29.0182L37.9631 27.3454C38.8359 27.1273 39.6359 26.7636 40.3631 26.3273L41.5995 27.4909C41.8904 27.7818 42.3268 27.7091 42.6177 27.4909L45.0904 25.0182C45.3813 24.7273 45.3813 24.2909 45.0904 24L43.9268 22.7636C44.3631 22.0363 44.7268 21.2364 44.945 20.3636L46.6177 20.2909C46.9813 20.2909 47.345 19.9273 47.345 19.5636V16.0727C47.2722 15.7818 46.9813 15.4182 46.545 15.4182ZM45.8177 18.9091L44.2904 18.9818C43.9268 18.9818 43.7086 19.2 43.6359 19.5636C43.4177 20.5818 42.9813 21.6 42.3995 22.4727C42.1813 22.7636 42.2541 23.1273 42.4722 23.3454L43.4904 24.5091L42.0359 25.9636L40.8722 24.9454C40.6541 24.7273 40.2904 24.7273 39.9995 24.8727C39.1268 25.4545 38.1086 25.8909 37.0904 26.1091C36.7995 26.1818 36.5086 26.4727 36.5086 26.7636L36.4359 28.2909H34.3995L34.3268 26.7636C34.3268 26.4 34.1086 26.1818 33.745 26.1091C32.7268 25.8909 31.7086 25.4545 30.8359 24.8727C30.6904 24.8 30.545 24.7273 30.3995 24.7273C30.254 24.7273 30.0359 24.8 29.8904 24.9454L28.7268 25.9636L27.2722 24.5091L28.2904 23.3454C28.5086 23.1273 28.5086 22.7636 28.3631 22.4727C27.7813 21.6 27.345 20.5818 27.1268 19.5636C27.054 19.2727 26.7631 18.9818 26.4722 18.9818L25.0177 18.9091V16.8727L26.545 16.8C26.9086 16.8 27.1268 16.5818 27.1995 16.2182C27.4177 15.2 27.854 14.1818 28.4359 13.3091C28.654 13.0182 28.5813 12.6545 28.3631 12.4364L27.345 11.2727L28.7995 9.81817L29.9631 10.8364C30.1813 11.0545 30.545 11.0545 30.8359 10.9091C31.7086 10.3273 32.7268 9.8909 33.745 9.67271C34.0359 9.59999 34.3268 9.30908 34.3268 9.01817L34.3995 7.4909H36.4359L36.5086 9.01817C36.5086 9.3818 36.7268 9.59999 37.0904 9.67271C38.1086 9.8909 39.1268 10.3273 39.9995 10.9091C40.2904 11.1273 40.6541 11.0545 40.8722 10.8364L42.0359 9.81817L43.4904 11.2727L42.4722 12.3636C42.2541 12.5818 42.254 12.9454 42.3995 13.2364C42.9813 14.1091 43.4177 15.1273 43.6359 16.1454C43.7086 16.4364 43.9995 16.7273 44.2904 16.7273L45.8177 16.8V18.9091Z" fill="white"/>
<path d="M35.4175 11.7091C31.9993 11.7091 29.2357 14.4727 29.2357 17.8909C29.2357 21.3091 31.9993 24.0727 35.4175 24.0727C38.8357 24.0727 41.5993 21.3091 41.5993 17.8909C41.5993 14.4727 38.8357 11.7091 35.4175 11.7091ZM35.4175 22.6182C32.7993 22.6182 30.6902 20.5091 30.6902 17.8909C30.6902 15.2727 32.7993 13.1637 35.4175 13.1637C38.0357 13.1637 40.1447 15.2727 40.1447 17.8909C40.1447 20.4364 38.0357 22.6182 35.4175 22.6182ZM46.2538 31.5637C45.3811 30.9091 44.072 30.8364 42.9084 31.2727L34.472 34.3273C34.3993 33.6 34.1084 33.0182 33.672 32.5818C32.7993 31.7091 31.6357 31.7818 31.5629 31.7818H23.5629C19.0538 29.8909 17.5266 28.4364 14.3993 28.4364H11.1993V28.3637C11.1993 27.9273 10.9084 27.6364 10.472 27.6364H3.63565C3.27202 27.6364 2.98111 27.9273 2.90838 28.2909L0.726562 43.0546C0.726562 43.2727 0.726563 43.4909 0.872017 43.6364C1.01747 43.7818 1.23565 43.8546 1.45384 43.8546H10.3993C10.8357 43.8546 11.1266 43.5637 11.1266 43.1273V41.9637H14.5447C16.5084 42.5455 18.1811 43.2 19.7084 43.7818C23.4175 45.2364 26.2538 46.4 29.8902 44.4364L45.3084 36.5091C47.3447 35.5637 47.9993 32.8 46.2538 31.5637ZM9.67202 42.4H2.32656L4.21747 29.0909H9.67202V41.3091V42.4ZM44.6538 35.3455L29.2357 43.2727C26.1811 44.8727 23.8538 43.9273 20.2902 42.5455C19.7084 42.3273 15.3447 40.5818 14.6902 40.5818H11.1993V29.8909H14.3993C17.1629 29.8909 18.472 31.2 23.1266 33.1637C23.1993 33.2364 23.3447 33.2364 23.4175 33.2364H31.6357C31.6357 33.2364 32.2175 33.2364 32.6538 33.6C32.9447 33.8909 33.0902 34.3273 33.0902 34.9091L31.6357 35.5637C31.1266 35.7818 30.6175 35.9273 30.0357 35.9273H24.6538C23.5629 35.9273 22.6902 36.7273 22.472 37.8182C22.3266 38.7637 23.7811 38.9818 23.9266 37.9637C23.9993 37.6 24.2902 37.3818 24.6538 37.3818H30.0357C30.8357 37.3818 31.5629 37.2364 32.2175 36.8727L34.1084 36L43.4175 32.5818C44.1447 32.2909 44.9447 32.3637 45.4538 32.7273C46.2538 33.3818 45.672 34.8364 44.6538 35.3455Z" fill="white"/>
<path d="M7.12784 39.9273C6.98239 40.0728 6.90966 40.2182 6.90966 40.4364C6.90966 40.6546 6.98239 40.8 7.12784 40.9455C7.2733 41.0909 7.49148 41.1637 7.63693 41.1637C7.85511 41.1637 8.00057 41.0909 8.14602 40.9455C8.29148 40.8 8.3642 40.6546 8.3642 40.4364C8.3642 40.2182 8.29148 40.0728 8.14602 39.9273C7.92784 39.7091 7.41875 39.7091 7.12784 39.9273ZM4.43693 39.9273C4.29148 40.0728 4.21875 40.2182 4.21875 40.4364C4.21875 40.6546 4.29148 40.8 4.43693 40.9455C4.58239 41.0909 4.72784 41.1637 4.94602 41.1637C5.1642 41.1637 5.30966 41.0909 5.45511 40.9455C5.60057 40.8 5.6733 40.6546 5.6733 40.4364C5.6733 40.2182 5.60057 40.0728 5.45511 39.9273C5.1642 39.7091 4.65511 39.7091 4.43693 39.9273Z" fill="white"/>
</svg>
