<svg width="49" height="48" viewBox="0 0 49 48" fill="none" xmlns="http://www.w3.org/2000/svg">
<path d="M16.3497 3.83691C14.5481 5.49281 13.3017 7.69256 12.9023 10.1584M36.1347 10.4028C35.378 4.92853 30.4574 0.703125 24.5002 0.703125C22.451 0.703125 20.5245 1.20309 18.8479 2.08191" stroke="#B1B2B2" stroke-width="1.40625" stroke-miterlimit="10" stroke-linecap="round" stroke-linejoin="round"/>
<path d="M18.4415 23.6767C16.772 21.7832 15.7322 19.228 15.7322 16.7367V12.6015C15.7322 7.76122 19.6578 3.8374 24.5002 3.8374C29.3426 3.8374 33.2682 7.76122 33.2682 12.6015V16.7367C33.2682 19.4112 32.0697 22.1595 30.1802 24.0837M15.6907 18.0297H12.8983C12.0117 18.0297 11.293 17.3109 11.293 16.4243V12.0128C11.293 11.1261 12.0117 10.4074 12.8983 10.4074H15.6907V18.0297ZM33.3097 18.0297H36.102C36.9887 18.0297 37.7074 17.3109 37.7074 16.4243V12.0128C37.7074 11.1261 36.9886 10.4074 36.102 10.4074H33.3097V18.0297Z" stroke="#B1B2B2" stroke-width="1.40625" stroke-miterlimit="10" stroke-linecap="round" stroke-linejoin="round"/>
<path d="M26.2253 21.1003H34.1371C35.2958 21.1003 36.2352 20.1609 36.2352 19.0022V18.0298M8.32031 42.2557V26.2757C8.32031 25.0649 9.30188 24.0832 10.5128 24.0832H38.4868C39.6977 24.0832 40.6792 25.0648 40.6792 26.2757V42.2557" stroke="#B1B2B2" stroke-width="1.40625" stroke-miterlimit="10" stroke-linecap="round" stroke-linejoin="round"/>
<path d="M32.1696 47.297H8.6947C7.08023 47.297 5.77148 45.9883 5.77148 44.3738V43.3501C5.77148 42.7447 6.26227 42.2539 6.8677 42.2539H42.132C42.7375 42.2539 43.2283 42.7447 43.2283 43.3501V44.3738C43.2283 45.9883 41.9195 47.297 40.305 47.297H35.4936" stroke="#B1B2B2" stroke-width="1.40625" stroke-miterlimit="10" stroke-linecap="round" stroke-linejoin="round"/>
<path d="M24.5007 35.6097C25.8483 35.6097 26.9408 34.5173 26.9408 33.1696C26.9408 31.822 25.8483 30.7295 24.5007 30.7295C23.153 30.7295 22.0605 31.822 22.0605 33.1696C22.0605 34.5173 23.153 35.6097 24.5007 35.6097Z" stroke="#B1B2B2" stroke-width="1.40625" stroke-miterlimit="10" stroke-linecap="round" stroke-linejoin="round"/>
<path d="M15.7383 12.2803H33.2613" stroke="#B1B2B2" stroke-width="1.40625" stroke-miterlimit="10" stroke-linecap="round" stroke-linejoin="round"/>
</svg>
