<svg width="61" height="60" viewBox="0 0 61 60" fill="none" xmlns="http://www.w3.org/2000/svg">
<path d="M53.9375 7.96875H7.0625C6.31681 7.96949 5.60187 8.26605 5.07458 8.79333C4.5473 9.32062 4.25074 10.0356 4.25 10.7812V14.5312C4.25 14.7799 4.34877 15.0183 4.52459 15.1942C4.7004 15.37 4.93886 15.4688 5.1875 15.4688H18.3125V18.2812H8C7.50287 18.2817 7.02625 18.4794 6.67472 18.831C6.3232 19.1825 6.1255 19.6591 6.125 20.1562V50.1562C6.12574 50.6533 6.32353 51.1298 6.675 51.4813C7.02647 51.8327 7.50295 52.0305 8 52.0312H53C53.4971 52.0305 53.9735 51.8327 54.325 51.4813C54.6765 51.1298 54.8743 50.6533 54.875 50.1562V20.1562C54.8745 19.6591 54.6768 19.1825 54.3253 18.831C53.9738 18.4794 53.4971 18.2817 53 18.2812H42.6875V15.4688H55.8125C56.0611 15.4688 56.2996 15.37 56.4754 15.1942C56.6512 15.0183 56.75 14.7799 56.75 14.5312V10.7812C56.7493 10.0356 56.4527 9.32062 55.9254 8.79333C55.3981 8.26605 54.6832 7.96949 53.9375 7.96875ZM29.5625 50.1562H8V20.1562H29.5625V50.1562ZM20.1875 18.2812V15.4688H40.8125V18.2812H20.1875ZM53 20.1562V50.1562H31.4375V20.1562H53ZM54.875 13.5938H6.125V10.7812C6.12525 10.5327 6.2241 10.2944 6.39986 10.1186C6.57562 9.94285 6.81394 9.844 7.0625 9.84375H53.9375C54.1861 9.844 54.4244 9.94285 54.6001 10.1186C54.7759 10.2944 54.8748 10.5327 54.875 10.7812V13.5938Z" fill="white"/>
<path d="M15.221 31.0062L16.2372 30.0265C19.3563 27.1652 24.2031 31.3306 21.0785 34.6015L13.9122 41.5127C13.7808 41.6437 13.691 41.8105 13.6538 41.9922C13.6167 42.1739 13.6338 42.3626 13.7033 42.5346C13.7727 42.7066 13.8912 42.8543 14.0441 42.9594C14.1969 43.0644 14.3774 43.1221 14.5628 43.1252H22.946C23.1946 43.1252 23.4331 43.0265 23.6089 42.8507C23.7847 42.6748 23.8835 42.4364 23.8835 42.1877C23.8835 41.9391 23.7847 41.7006 23.6089 41.5248C23.4331 41.349 23.1946 41.2502 22.946 41.2502H16.886L22.3797 35.9506C25.7585 32.779 23.2141 27.0893 18.6606 27.1877C16.7116 27.1146 15.16 28.3146 13.9197 29.6571C13.8311 29.7426 13.7601 29.8446 13.7109 29.9575C13.6617 30.0703 13.6352 30.1918 13.633 30.3149C13.6307 30.438 13.6527 30.5603 13.6977 30.6749C13.7427 30.7895 13.8099 30.8941 13.8953 30.9827C13.9808 31.0714 14.0828 31.1423 14.1957 31.1915C14.3086 31.2407 14.43 31.2672 14.5531 31.2695C14.6762 31.2717 14.7985 31.2497 14.9131 31.2047C15.0277 31.1597 15.1323 31.0916 15.221 31.0062ZM37.811 31.8565C39.1122 32.0749 38.8347 30.4062 39.6203 29.8221C40.4078 28.9268 41.8216 29.0534 42.8922 29.0627C43.4008 29.0646 43.8976 29.216 44.3208 29.4981C44.744 29.7802 45.075 30.1805 45.2724 30.6492C45.4698 31.1179 45.5251 31.6343 45.4312 32.1342C45.3374 32.6341 45.0987 33.0953 44.7447 33.4606C44.2517 33.9477 43.5862 34.2203 42.8931 34.219C42.6445 34.219 42.406 34.3178 42.2302 34.4936C42.0544 34.6694 41.9556 34.9079 41.9556 35.1565C41.9556 35.4051 42.0544 35.6436 42.2302 35.8194C42.406 35.9952 42.6445 36.094 42.8931 36.094C43.5769 36.094 44.2327 36.3656 44.7162 36.8491C45.1996 37.3326 45.4713 37.9884 45.4713 38.6721C45.4713 39.3559 45.1996 40.0116 44.7162 40.4951C44.2327 40.9786 43.5769 41.2502 42.8931 41.2502H41.4747C40.8765 41.2524 40.2958 41.0485 39.8303 40.6729C39.3647 40.2973 39.0426 39.7728 38.9181 39.1877C38.8634 38.9492 38.7176 38.7415 38.5118 38.6091C38.306 38.4766 38.0566 38.4299 37.8168 38.4788C37.577 38.5278 37.3659 38.6686 37.2285 38.8711C37.0911 39.0736 37.0384 39.3218 37.0816 39.5627C37.2933 40.5708 37.8456 41.4752 38.6456 42.124C39.4457 42.7728 40.4447 43.1263 41.4747 43.1252H42.8931C44.0761 43.1231 45.2104 42.6541 46.0495 41.8202C46.8887 40.9864 47.3648 39.855 47.3744 38.6721C47.3716 37.9903 47.2113 37.3184 46.9059 36.7089C46.6005 36.0994 46.1582 35.5687 45.6138 35.1584C46.1644 34.7529 46.6112 34.2228 46.9174 33.6114C47.2235 32.9999 47.3805 32.3247 47.3753 31.6409C47.3704 30.4563 46.8956 29.3221 46.0553 28.4872C45.215 27.6524 44.0777 27.185 42.8931 27.1877C41.2806 27.109 39.4778 27.2215 38.3041 28.4862C37.5541 29.2446 36.2341 31.3249 37.811 31.8565Z" fill="white"/>
</svg>
