<svg width="46" height="46" viewBox="0 0 46 46" fill="none" xmlns="http://www.w3.org/2000/svg">
<path d="M1.68849 23.5457L11.751 32.1707C11.8554 32.2601 11.9832 32.3178 12.1193 32.3368C12.2554 32.3558 12.3942 32.3354 12.5191 32.2779C12.6439 32.2205 12.7497 32.1285 12.8239 32.0127C12.898 31.897 12.9375 31.7624 12.9375 31.625V27.3125H17.9687C18.0765 27.3125 18.1829 27.2883 18.28 27.2416C18.3772 27.195 18.4626 27.1271 18.53 27.0429L24.28 19.8554C24.3646 19.7497 24.4177 19.6222 24.433 19.4877C24.4484 19.3531 24.4254 19.217 24.3667 19.0949C24.3081 18.9728 24.2161 18.8698 24.1015 18.7977C23.9868 18.7257 23.8541 18.6874 23.7187 18.6875H12.9375V14.375C12.9375 14.2375 12.898 14.1029 12.8239 13.9872C12.7497 13.8715 12.6439 13.7794 12.5191 13.722C12.3942 13.6646 12.2554 13.6441 12.1193 13.6632C11.9832 13.6822 11.8554 13.7398 11.751 13.8293L1.68849 22.4543C1.60977 22.5217 1.54658 22.6054 1.50325 22.6996C1.45993 22.7938 1.4375 22.8963 1.4375 23C1.4375 23.1037 1.45993 23.2061 1.50325 23.3003C1.54658 23.3945 1.60977 23.4782 1.68849 23.5457ZM11.5 15.9377V19.4062C11.5 19.5968 11.5757 19.7797 11.7105 19.9145C11.8453 20.0492 12.0281 20.125 12.2187 20.125H22.2233L17.6233 25.875H12.2187C12.0281 25.875 11.8453 25.9507 11.7105 26.0855C11.5757 26.2203 11.5 26.4031 11.5 26.5937V30.0622L3.26066 23L11.5 15.9377ZM44.3114 22.4543L34.2489 13.8293C34.1446 13.7398 34.0167 13.6822 33.8806 13.6632C33.7445 13.6441 33.6058 13.6646 33.4809 13.722C33.356 13.7794 33.2502 13.8715 33.1761 13.9872C33.1019 14.1029 33.0625 14.2375 33.0625 14.375V18.6875H28.0312C27.9234 18.6874 27.817 18.7117 27.7199 18.7583C27.6227 18.805 27.5373 18.8729 27.47 18.957L21.72 26.1445C21.6353 26.2502 21.5823 26.3777 21.5669 26.5123C21.5516 26.6468 21.5745 26.783 21.6332 26.905C21.6919 27.0271 21.7838 27.1301 21.8985 27.2022C22.0131 27.2743 22.1458 27.3125 22.2812 27.3125H33.0625V31.625C33.0625 31.7624 33.1019 31.897 33.1761 32.0127C33.2502 32.1285 33.356 32.2205 33.4809 32.2779C33.6058 32.3354 33.7445 32.3558 33.8806 32.3368C34.0167 32.3178 34.1446 32.2601 34.2489 32.1707L44.3114 23.5457C44.3902 23.4782 44.4534 23.3945 44.4967 23.3003C44.54 23.2061 44.5624 23.1037 44.5624 23C44.5624 22.8963 44.54 22.7938 44.4967 22.6996C44.4534 22.6054 44.3902 22.5217 44.3114 22.4543ZM34.5 30.0622V26.5937C34.5 26.4031 34.4242 26.2203 34.2894 26.0855C34.1547 25.9507 33.9718 25.875 33.7812 25.875H23.7767L28.3767 20.125H33.7812C33.9718 20.125 34.1547 20.0492 34.2894 19.9145C34.4242 19.7797 34.5 19.5968 34.5 19.4062V15.9377L42.7393 23L34.5 30.0622Z" fill="black"/>
</svg>
