<svg width="50" height="50" viewBox="0 0 50 50" fill="none" xmlns="http://www.w3.org/2000/svg">
<path d="M26.5625 46.8751H23.4375C22.8159 46.8751 22.2198 46.6282 21.7802 46.1887C21.3407 45.7491 21.0938 45.153 21.0938 44.5314C21.0938 43.9098 21.3407 43.3137 21.7802 42.8741C22.2198 42.4346 22.8159 42.1876 23.4375 42.1876H26.5625C27.0217 42.1874 27.4708 42.322 27.8542 42.5748C28.2375 42.8275 28.5381 43.1874 28.7187 43.6095C30.8975 43.3282 32.9967 42.6086 34.8899 41.4942C36.7831 40.3797 38.431 38.8936 39.7344 37.1251C39.0658 36.8085 38.5008 36.3086 38.1053 35.6834C37.7097 35.0583 37.4998 34.3337 37.5 33.5939V25.7814C37.5 24.7454 37.9115 23.7518 38.6441 23.0193C39.3767 22.2867 40.3702 21.8751 41.4062 21.8751H42.9688C44.0048 21.8751 44.9983 22.2867 45.7309 23.0193C46.4635 23.7518 46.875 24.7454 46.875 25.7814V33.5939C46.875 34.1069 46.774 34.6148 46.5777 35.0888C46.3813 35.5627 46.0936 35.9933 45.7309 36.356C45.3682 36.7188 44.9375 37.0065 44.4636 37.2028C43.9897 37.3991 43.4817 37.5001 42.9688 37.5001H41.4062C39.9769 39.5991 38.1163 41.3691 35.9487 42.692C33.781 44.015 31.3562 44.8604 28.8359 45.172C28.6957 45.6656 28.3973 46.0996 27.9866 46.4072C27.5759 46.7149 27.0756 46.8793 26.5625 46.8751ZM23.4375 43.7501C23.2303 43.7501 23.0316 43.8325 22.8851 43.979C22.7386 44.1255 22.6562 44.3242 22.6562 44.5314C22.6562 44.7386 22.7386 44.9373 22.8851 45.0838C23.0316 45.2303 23.2303 45.3126 23.4375 45.3126H26.5625C26.7697 45.3126 26.9684 45.2303 27.1149 45.0838C27.2614 44.9373 27.3438 44.7386 27.3438 44.5314C27.3438 44.3242 27.2614 44.1255 27.1149 43.979C26.9684 43.8325 26.7697 43.7501 26.5625 43.7501H23.4375ZM41.4062 23.4376C40.7846 23.4376 40.1885 23.6846 39.749 24.1241C39.3094 24.5637 39.0625 25.1598 39.0625 25.7814V33.5939C39.0625 34.2155 39.3094 34.8116 39.749 35.2512C40.1885 35.6907 40.7846 35.9376 41.4062 35.9376H42.9688C43.5904 35.9376 44.1865 35.6907 44.626 35.2512C45.0656 34.8116 45.3125 34.2155 45.3125 33.5939V25.7814C45.3125 25.1598 45.0656 24.5637 44.626 24.1241C44.1865 23.6846 43.5904 23.4376 42.9688 23.4376H41.4062ZM8.59375 37.5001H7.03125C6.51827 37.5001 6.01032 37.3991 5.53639 37.2028C5.06246 37.0065 4.63184 36.7188 4.26911 36.356C3.90639 35.9933 3.61865 35.5627 3.42235 35.0888C3.22604 34.6148 3.125 34.1069 3.125 33.5939V25.7814C3.125 24.7454 3.53655 23.7518 4.26911 23.0193C5.00168 22.2867 5.99525 21.8751 7.03125 21.8751H8.59375C9.62975 21.8751 10.6233 22.2867 11.3559 23.0193C12.0884 23.7518 12.5 24.7454 12.5 25.7814V33.5939C12.5 34.1069 12.399 34.6148 12.2027 35.0888C12.0063 35.5627 11.7186 35.9933 11.3559 36.356C10.9932 36.7188 10.5625 37.0065 10.0886 37.2028C9.61468 37.3991 9.10673 37.5001 8.59375 37.5001ZM7.03125 23.4376C6.40965 23.4376 5.81351 23.6846 5.37397 24.1241C4.93443 24.5637 4.6875 25.1598 4.6875 25.7814V33.5939C4.6875 34.2155 4.93443 34.8116 5.37397 35.2512C5.81351 35.6907 6.40965 35.9376 7.03125 35.9376H8.59375C9.21535 35.9376 9.81149 35.6907 10.251 35.2512C10.6906 34.8116 10.9375 34.2155 10.9375 33.5939V25.7814C10.9375 25.1598 10.6906 24.5637 10.251 24.1241C9.81149 23.6846 9.21535 23.4376 8.59375 23.4376H7.03125ZM33.5938 30.4689C33.2847 30.4689 32.9826 30.3773 32.7257 30.2056C32.4687 30.0339 32.2684 29.7898 32.1502 29.5043C32.0319 29.2188 32.001 28.9047 32.0613 28.6016C32.1216 28.2985 32.2704 28.0201 32.4889 27.8015C32.7074 27.583 32.9858 27.4342 33.2889 27.3739C33.592 27.3136 33.9062 27.3446 34.1917 27.4628C34.4772 27.5811 34.7212 27.7814 34.8929 28.0383C35.0646 28.2953 35.1562 28.5974 35.1562 28.9064C35.1562 29.3208 34.9916 29.7182 34.6986 30.0113C34.4056 30.3043 34.0082 30.4689 33.5938 30.4689ZM25 30.4689C24.691 30.4689 24.3889 30.3773 24.1319 30.2056C23.875 30.0339 23.6747 29.7898 23.5564 29.5043C23.4382 29.2188 23.4072 28.9047 23.4675 28.6016C23.5278 28.2985 23.6766 28.0201 23.8951 27.8015C24.1137 27.583 24.3921 27.4342 24.6952 27.3739C24.9983 27.3136 25.3124 27.3446 25.5979 27.4628C25.8835 27.5811 26.1275 27.7814 26.2992 28.0383C26.4709 28.2953 26.5625 28.5974 26.5625 28.9064C26.5625 29.3208 26.3979 29.7182 26.1049 30.0113C25.8118 30.3043 25.4144 30.4689 25 30.4689ZM16.4062 30.4689C16.0972 30.4689 15.7951 30.3773 15.5382 30.2056C15.2812 30.0339 15.0809 29.7898 14.9627 29.5043C14.8444 29.2188 14.8135 28.9047 14.8738 28.6016C14.9341 28.2985 15.0829 28.0201 15.3014 27.8015C15.5199 27.583 15.7983 27.4342 16.1014 27.3739C16.4045 27.3136 16.7187 27.3446 17.0042 27.4628C17.2897 27.5811 17.5337 27.7814 17.7054 28.0383C17.8771 28.2953 17.9688 28.5974 17.9688 28.9064C17.9688 29.3208 17.8041 29.7182 17.5111 30.0113C17.2181 30.3043 16.8207 30.4689 16.4062 30.4689ZM9.32031 20.3126C9.18662 20.3163 9.05423 20.2856 8.93582 20.2234C8.8174 20.1613 8.71693 20.0697 8.64402 19.9576C8.5711 19.8455 8.52819 19.7166 8.51939 19.5831C8.51059 19.4497 8.53619 19.3162 8.59375 19.1955C10.2936 15.4175 13.2467 12.343 16.9531 10.4923C16.8431 9.97486 16.9113 9.43538 17.1468 8.96162C17.3822 8.48786 17.7711 8.10769 18.25 7.88296C20.3849 6.95528 22.6878 6.47656 25.0156 6.47656C27.3434 6.47656 29.6463 6.95528 31.7812 7.88296C32.2603 8.10928 32.6485 8.49124 32.8826 8.96654C33.1167 9.44183 33.1829 9.98243 33.0703 10.5001C36.7666 12.3532 39.7108 15.4243 41.4062 19.1955C41.4908 19.3841 41.4972 19.5985 41.4239 19.7918C41.3507 19.9851 41.2039 20.1414 41.0156 20.2267C40.827 20.3113 40.6126 20.3176 40.4193 20.2444C40.226 20.1712 40.0696 20.0244 39.9844 19.8361C38.4365 16.3937 35.749 13.5904 32.375 11.8986C32.0405 12.2668 31.5975 12.519 31.1101 12.6187C30.6228 12.7184 30.1163 12.6605 29.6641 12.4533C26.6941 11.2427 23.3684 11.2427 20.3984 12.4533C19.9445 12.6614 19.4359 12.7191 18.9468 12.6179C18.4578 12.5167 18.0138 12.262 17.6797 11.8908C14.2943 13.5822 11.5977 16.3919 10.0469 19.8439C9.98536 19.9849 9.8836 20.1046 9.75435 20.188C9.6251 20.2713 9.47411 20.3147 9.32031 20.3126ZM25 9.97671C26.8251 9.95302 28.6349 10.3123 30.3125 11.0314C30.4946 11.1139 30.7014 11.1234 30.8904 11.058C31.0793 10.9926 31.236 10.8573 31.3281 10.6798L31.4922 10.3517C31.5393 10.258 31.567 10.1557 31.5737 10.051C31.5804 9.9463 31.566 9.84133 31.5312 9.74234C31.4627 9.54697 31.3194 9.3868 31.1328 9.29702C29.204 8.47352 27.1285 8.04899 25.0312 8.04899C22.934 8.04899 20.8585 8.47352 18.9297 9.29702C18.7431 9.3868 18.5998 9.54697 18.5312 9.74234C18.4954 9.84245 18.4804 9.94883 18.4871 10.055C18.4938 10.1611 18.5221 10.2647 18.5703 10.3595L18.7266 10.6642C18.8174 10.843 18.9735 10.9801 19.1625 11.047C19.3516 11.1139 19.5591 11.1055 19.7422 11.0236C21.4023 10.3109 23.1935 9.95428 25 9.97671Z" fill="#B1B2B2"/>
</svg>
