<svg width="47" height="46" viewBox="0 0 47 46" fill="none" xmlns="http://www.w3.org/2000/svg">
<path d="M10.3872 20.5223L2.625 24.227L23.3874 34.1363L44.1516 24.227L35.8896 20.2842" stroke="#474747" stroke-width="2" stroke-miterlimit="10" stroke-linecap="round" stroke-linejoin="round"/>
<path d="M6.86167 26.2495L2.625 28.2714L23.3874 38.1807L44.1516 28.2714L39.9146 26.2494M7.36399 16.6116C7.36399 16.6116 9.00418 14.9689 12.1789 13.9933C19.0708 11.8755 26.0425 15.1163 35.8897 11.0215" stroke="#474747" stroke-width="2" stroke-miterlimit="10" stroke-linecap="round" stroke-linejoin="round"/>
<path d="M11.0791 16.5893C13.2094 17.5836 15.3099 18.6931 17.1635 19.2296L17.1765 16.5116L19.8968 19.8904C33.3199 22.4687 38.7264 12.9118 40.4791 8.83915C40.7252 8.2673 40.1437 7.69535 39.5719 7.94153C35.3824 9.74514 28.0447 8.12579 21.0261 7.99139C20.4158 7.97971 19.8377 8.00451 19.29 8.06003L17.3493 10.4526L17.2652 8.43198C12.1978 9.81468 10.3867 14.6727 10.3867 14.6727" stroke="#474747" stroke-width="2" stroke-miterlimit="10" stroke-linecap="round" stroke-linejoin="round"/>
</svg>
