<svg width="15" height="14" viewBox="0 0 15 14" fill="none" xmlns="http://www.w3.org/2000/svg">
<g clip-path="url(#clip0_20787_3537)">
<path d="M14.3202 6.32835C14.454 6.19889 14.5486 6.03437 14.5932 5.85362C14.6378 5.67288 14.6306 5.48322 14.5724 5.30638C14.5156 5.12903 14.4099 4.97129 14.2675 4.85125C14.1251 4.7312 13.9517 4.65372 13.7673 4.62766L10.401 4.13853C10.3304 4.12827 10.2633 4.10099 10.2056 4.05904C10.1479 4.01708 10.1013 3.96172 10.0697 3.89772L8.56475 0.847668C8.48295 0.680402 8.35568 0.539562 8.19753 0.441285C8.03938 0.343008 7.85675 0.291271 7.67055 0.292C7.48441 0.291323 7.30183 0.343085 7.14374 0.441359C6.98564 0.539633 6.85842 0.680445 6.77664 0.847668L5.27138 3.898C5.20735 4.02801 5.08319 4.11793 4.93982 4.13881L1.57351 4.62794C1.3891 4.65399 1.21576 4.73148 1.07336 4.85153C0.930962 4.97157 0.825272 5.12931 0.768405 5.30666C0.710216 5.4835 0.703013 5.67315 0.747621 5.8539C0.792228 6.03464 0.886843 6.19917 1.02063 6.32863L3.45627 8.70275C3.56011 8.80409 3.60772 8.94996 3.58322 9.0925L3.00862 12.4449C2.98262 12.5873 2.98865 12.7338 3.02625 12.8736C3.06386 13.0134 3.1321 13.1431 3.22604 13.2533C3.52281 13.6061 4.04089 13.7135 4.45514 13.4958L7.46566 11.9129C7.5291 11.8805 7.59932 11.8636 7.67055 11.8636C7.74179 11.8636 7.812 11.8805 7.87545 11.9129L10.8862 13.4958C11.029 13.5719 11.1883 13.6118 11.35 13.6119C11.6443 13.6119 11.9233 13.4811 12.1151 13.2533C12.209 13.1432 12.2773 13.0134 12.3149 12.8736C12.3525 12.7338 12.3585 12.5873 12.3325 12.4449L11.7576 9.0925C11.7456 9.02211 11.7509 8.94985 11.773 8.88196C11.7951 8.81406 11.8334 8.75256 11.8846 8.70275L14.3202 6.32835Z" fill="#9F1C20"/>
</g>
<defs>
<clipPath id="clip0_20787_3537">
<rect width="13.9028" height="13.9028" fill="white" transform="translate(0.71875)"/>
</clipPath>
</defs>
</svg>
