<svg width="48" height="48" viewBox="0 0 48 48" fill="none" xmlns="http://www.w3.org/2000/svg">
<g clip-path="url(#clip0_20787_4887)">
<path d="M30.7371 35.8288C30.7371 35.8288 30.1435 37.8373 28.1076 37.3386C26.0717 36.8398 21.25 35.6787 21.25 35.6787" stroke="#9F1C20" stroke-width="1.40626" stroke-miterlimit="10" stroke-linecap="round" stroke-linejoin="round"/>
<path d="M30.7371 35.8288C30.7371 35.8288 30.1435 37.8373 28.1076 37.3386C26.0717 36.8398 21.25 35.6787 21.25 35.6787" stroke="#9F1C20" stroke-width="1.40626" stroke-miterlimit="10" stroke-linecap="round" stroke-linejoin="round"/>
<path d="M19.2643 13.4012C21.3282 13.4012 23.0013 11.7281 23.0013 9.66421C23.0013 7.60034 21.3282 5.92725 19.2643 5.92725C17.2004 5.92725 15.5273 7.60034 15.5273 9.66421C15.5273 11.7281 17.2004 13.4012 19.2643 13.4012Z" stroke="#9F1C20" stroke-width="1.40626" stroke-miterlimit="10" stroke-linecap="round" stroke-linejoin="round"/>
<path d="M30.3775 10.3643C33.0454 10.3643 35.2081 8.20161 35.2081 5.53373C35.2081 2.86586 33.0454 0.703125 30.3775 0.703125C27.7096 0.703125 25.5469 2.86586 25.5469 5.53373C25.5469 8.20161 27.7096 10.3643 30.3775 10.3643Z" stroke="#9F1C20" stroke-width="1.40626" stroke-miterlimit="10" stroke-linecap="round" stroke-linejoin="round"/>
<path d="M41.4909 13.4012C43.5547 13.4012 45.2278 11.7281 45.2278 9.66421C45.2278 7.60034 43.5547 5.92725 41.4909 5.92725C39.427 5.92725 37.7539 7.60034 37.7539 9.66421C37.7539 11.7281 39.427 13.4012 41.4909 13.4012Z" stroke="#9F1C20" stroke-width="1.40626" stroke-miterlimit="10" stroke-linecap="round" stroke-linejoin="round"/>
<path d="M41.1976 13.4079C39.5962 13.4909 38.1902 14.2608 37.2344 15.4184C37.4495 16.1072 37.5587 16.8246 37.5583 17.5461V23.7789H45.9067C46.5358 23.7789 47.0457 23.269 47.0457 22.64V18.9571C47.0456 15.8043 44.3846 13.2429 41.1976 13.4079Z" stroke="#9F1C20" stroke-width="1.40626" stroke-miterlimit="10" stroke-linecap="round" stroke-linejoin="round"/>
<path d="M34.7055 25.571C35.6955 23.1809 34.5605 20.4409 32.1705 19.4509C29.7804 18.4609 27.0403 19.5959 26.0504 21.9859C25.0604 24.376 26.1953 27.116 28.5854 28.106C30.9754 29.096 33.7155 27.961 34.7055 25.571Z" stroke="#9F1C20" stroke-width="1.40626" stroke-miterlimit="10" stroke-linecap="round" stroke-linejoin="round"/>
<path d="M28.6797 23.6379L30.1472 25.1055L32.2928 22.96" stroke="#9F1C20" stroke-width="1.40626" stroke-miterlimit="10" stroke-linecap="round" stroke-linejoin="round"/>
<path d="M30.2807 10.3639C26.3364 10.4169 23.1953 13.6957 23.1953 17.6403V23.7788H25.6939C25.6939 21.1919 27.7911 19.0947 30.378 19.0947C32.965 19.0947 35.0621 21.1919 35.0621 23.7788H37.5607V17.546C37.5608 13.5631 34.2754 10.3103 30.2807 10.3639Z" stroke="#9F1C20" stroke-width="1.40626" stroke-miterlimit="10" stroke-linecap="round" stroke-linejoin="round"/>
<path d="M20.2632 23.7793H23.1941V17.6408C23.1938 16.8872 23.3098 16.1381 23.5383 15.42C22.4594 14.1197 20.8032 13.3136 18.9722 13.4084C16.006 13.562 13.7069 16.0698 13.7069 19.0401V22.6405C13.7069 23.2695 14.2168 23.7794 14.8459 23.7794H16.982M39.3092 40.1151L45.0324 37.5835C45.4955 37.346 47.824 35.9491 46.7807 33.5771C45.5715 31.052 42.7885 32.2456 42.5548 32.333L30.7391 35.8286C30.7391 35.8286 31.548 33.4521 29.0984 32.4745C22.3098 29.7644 21.5003 29.3061 19.7822 29.2789L19.782 29.2787C14.471 29.2964 13.5088 29.3397 10.8694 30.5211C9.49408 31.1373 8.18111 31.8842 6.94856 32.7514C6.14474 33.3164 5.2528 33.7443 4.30544 34.0049L1.08144 34.8913C0.900888 34.9409 0.741627 35.0485 0.628119 35.1974C0.514611 35.3464 0.453133 35.5285 0.453125 35.7157V46.4411C0.453125 47.0395 1.0521 47.4529 1.61161 47.2404L12.8196 42.9852C15.2766 42.1843 17.8525 42.1033 19.9154 42.9266L24.2963 44.6755C25.2539 45.0056 27.4538 45.5194 29.7365 44.3494L29.7384 44.3486L34.3165 42.3235L36.3081 41.4425" stroke="#9F1C20" stroke-width="1.40626" stroke-miterlimit="10" stroke-linecap="round" stroke-linejoin="round"/>
</g>
<defs>
<clipPath id="clip0_20787_4887">
<rect width="48" height="48" fill="white"/>
</clipPath>
</defs>
</svg>
