<svg width="48" height="48" viewBox="0 0 48 48" fill="none" xmlns="http://www.w3.org/2000/svg">
<path d="M15.8497 3.83691C14.0481 5.49281 12.8017 7.69256 12.4023 10.1584M35.6347 10.4028C34.878 4.92853 29.9574 0.703125 24.0002 0.703125C21.951 0.703125 20.0245 1.20309 18.3479 2.08191" stroke="#B1B2B2" stroke-width="1.40625" stroke-miterlimit="10" stroke-linecap="round" stroke-linejoin="round"/>
<path d="M17.9415 23.6767C16.272 21.7832 15.2322 19.228 15.2322 16.7367V12.6015C15.2322 7.76122 19.1578 3.8374 24.0002 3.8374C28.8426 3.8374 32.7682 7.76122 32.7682 12.6015V16.7367C32.7682 19.4112 31.5697 22.1595 29.6802 24.0837M15.1907 18.0297H12.3983C11.5117 18.0297 10.793 17.3109 10.793 16.4243V12.0128C10.793 11.1261 11.5117 10.4074 12.3983 10.4074H15.1907V18.0297ZM32.8097 18.0297H35.602C36.4887 18.0297 37.2074 17.3109 37.2074 16.4243V12.0128C37.2074 11.1261 36.4886 10.4074 35.602 10.4074H32.8097V18.0297Z" stroke="#B1B2B2" stroke-width="1.40625" stroke-miterlimit="10" stroke-linecap="round" stroke-linejoin="round"/>
<path d="M25.7253 21.1003H33.6371C34.7958 21.1003 35.7352 20.1609 35.7352 19.0022V18.0298M7.82031 42.2557V26.2757C7.82031 25.0649 8.80188 24.0832 10.0128 24.0832H37.9868C39.1977 24.0832 40.1792 25.0648 40.1792 26.2757V42.2557" stroke="#B1B2B2" stroke-width="1.40625" stroke-miterlimit="10" stroke-linecap="round" stroke-linejoin="round"/>
<path d="M31.6696 47.297H8.1947C6.58023 47.297 5.27148 45.9883 5.27148 44.3738V43.3501C5.27148 42.7447 5.76227 42.2539 6.3677 42.2539H41.632C42.2375 42.2539 42.7283 42.7447 42.7283 43.3501V44.3738C42.7283 45.9883 41.4195 47.297 39.805 47.297H34.9936" stroke="#B1B2B2" stroke-width="1.40625" stroke-miterlimit="10" stroke-linecap="round" stroke-linejoin="round"/>
<path d="M24.0007 35.6097C25.3483 35.6097 26.4408 34.5173 26.4408 33.1696C26.4408 31.822 25.3483 30.7295 24.0007 30.7295C22.653 30.7295 21.5605 31.822 21.5605 33.1696C21.5605 34.5173 22.653 35.6097 24.0007 35.6097Z" stroke="#B1B2B2" stroke-width="1.40625" stroke-miterlimit="10" stroke-linecap="round" stroke-linejoin="round"/>
<path d="M15.2383 12.2803H32.7613" stroke="#B1B2B2" stroke-width="1.40625" stroke-miterlimit="10" stroke-linecap="round" stroke-linejoin="round"/>
</svg>
