<svg width="18" height="18" viewBox="0 0 18 18" fill="none" xmlns="http://www.w3.org/2000/svg">
<path d="M14.295 14.0025L12.69 10.8L11.085 14.0025" stroke="#9F1C20" stroke-linecap="round" stroke-linejoin="round"/>
<path d="M11.3774 13.4325H14.0174" stroke="#9F1C20" stroke-linecap="round" stroke-linejoin="round"/>
<path d="M12.6899 16.5C10.5899 16.5 8.87988 14.7975 8.87988 12.69C8.87988 10.59 10.5824 8.88 12.6899 8.88C14.7899 8.88 16.4999 10.5825 16.4999 12.69C16.4999 14.7975 14.7974 16.5 12.6899 16.5Z" stroke="#9F1C20" stroke-linecap="round" stroke-linejoin="round"/>
<path d="M3.765 1.5H6.705C8.2575 1.5 9.00751 2.25001 8.97001 3.76501V6.705C9.00751 8.2575 8.2575 9.00752 6.705 8.97002H3.765C2.25 9.00002 1.5 8.24999 1.5 6.69749V3.75751C1.5 2.25001 2.25 1.5 3.765 1.5Z" stroke="#9F1C20" stroke-linecap="round" stroke-linejoin="round"/>
<path d="M6.7574 4.38751H3.7124" stroke="#9F1C20" stroke-linecap="round" stroke-linejoin="round"/>
<path d="M5.22754 3.8775V4.3875" stroke="#9F1C20" stroke-linecap="round" stroke-linejoin="round"/>
<path d="M5.99258 4.38C5.99258 5.6925 4.96508 6.75749 3.70508 6.75749" stroke="#9F1C20" stroke-linecap="round" stroke-linejoin="round"/>
<path d="M6.75761 6.75751C6.21011 6.75751 5.71512 6.465 5.37012 6" stroke="#9F1C20" stroke-linecap="round" stroke-linejoin="round"/>
<path d="M1.5 11.25C1.5 14.1525 3.8475 16.5 6.75 16.5L5.9625 15.1875" stroke="#9F1C20" stroke-linecap="round" stroke-linejoin="round"/>
<path d="M16.5 6.75C16.5 3.8475 14.1525 1.5 11.25 1.5L12.0375 2.8125" stroke="#9F1C20" stroke-linecap="round" stroke-linejoin="round"/>
</svg>
