<svg width="18" height="19" viewBox="0 0 18 19" fill="none" xmlns="http://www.w3.org/2000/svg">
<path d="M14.2959 14.4065L12.6909 11.204L11.0859 14.4065" stroke="white" stroke-linecap="round" stroke-linejoin="round"/>
<path d="M11.377 13.8365H14.017" stroke="white" stroke-linecap="round" stroke-linejoin="round"/>
<path d="M12.6909 16.904C10.5909 16.904 8.88086 15.2015 8.88086 13.094C8.88086 10.994 10.5834 9.28402 12.6909 9.28402C14.7909 9.28402 16.5009 10.9865 16.5009 13.094C16.5009 15.2015 14.7984 16.904 12.6909 16.904Z" stroke="white" stroke-linecap="round" stroke-linejoin="round"/>
<path d="M3.765 1.904H6.705C8.2575 1.904 9.00751 2.65401 8.97001 4.16901V7.109C9.00751 8.6615 8.2575 9.41152 6.705 9.37402H3.765C2.25 9.40402 1.5 8.65399 1.5 7.10149V4.16151C1.5 2.65401 2.25 1.904 3.765 1.904Z" stroke="white" stroke-linecap="round" stroke-linejoin="round"/>
<path d="M6.75789 4.79148H3.71289" stroke="white" stroke-linecap="round" stroke-linejoin="round"/>
<path d="M5.22852 4.28149V4.79148" stroke="white" stroke-linecap="round" stroke-linejoin="round"/>
<path d="M5.99258 4.78402C5.99258 6.09652 4.96508 7.16151 3.70508 7.16151" stroke="white" stroke-linecap="round" stroke-linejoin="round"/>
<path d="M6.75663 7.16151C6.20913 7.16151 5.71414 6.869 5.36914 6.404" stroke="white" stroke-linecap="round" stroke-linejoin="round"/>
<path d="M1.5 11.654C1.5 14.5565 3.8475 16.904 6.75 16.904L5.9625 15.5915" stroke="white" stroke-linecap="round" stroke-linejoin="round"/>
<path d="M16.5 7.154C16.5 4.2515 14.1525 1.904 11.25 1.904L12.0375 3.2165" stroke="white" stroke-linecap="round" stroke-linejoin="round"/>
</svg>
