<svg width="56" height="56" viewBox="0 0 56 56" fill="none" xmlns="http://www.w3.org/2000/svg">
<g clip-path="url(#clip0_20787_4586)">
<path d="M52.4499 2.1907L51.5472 1.96591C41.5429 -0.525422 31.0804 -0.525422 21.0762 1.96591L20.1743 2.1907C18.0859 2.71034 16.6204 4.58689 16.6227 6.73897V13.2671C11.9617 14.5874 7.46823 16.4401 3.23115 18.7886L2.41266 19.2396C0.529781 20.2797 -0.399116 22.4716 0.162488 24.5482L2.89105 34.7507C5.35077 43.9075 12.1198 51.2901 21.029 54.5335L23.8418 55.5649C27.1781 56.7648 30.9087 55.7632 33.195 53.053L35.1154 50.7589C36.9031 48.632 38.3706 46.2554 39.4714 43.7043C40.0628 43.4746 40.6262 43.1783 41.1506 42.8212L43.603 41.1044C51.3696 35.6626 55.9961 26.7764 56.0006 17.2931V6.73897C56.003 4.58724 54.538 2.71081 52.4499 2.1907ZM33.6798 49.554L31.7589 51.8499C29.9799 53.9576 27.0784 54.7368 24.483 53.8029L21.6703 52.7719C13.3362 49.7372 7.00394 42.8308 4.70267 34.265L1.97317 24.0624C1.80982 23.4579 1.85387 22.8161 2.09829 22.2396C2.3427 21.6631 2.77335 21.1851 3.3214 20.8822L4.13907 20.4312C8.09497 18.2379 12.2817 16.4896 16.6227 15.2183V17.2931C16.6259 21.444 17.5176 25.5461 19.2377 29.3238C20.9578 33.1015 23.4666 36.4672 26.5954 39.1949C24.9461 39.8654 23.2052 40.2835 21.4314 40.4351L14.3809 41.007C14.1734 41.0236 13.9774 41.1087 13.8236 41.249C13.6698 41.3892 13.5671 41.5766 13.5315 41.7816C13.496 41.9867 13.5297 42.1978 13.6272 42.3816C13.7248 42.5654 13.8808 42.7115 14.0705 42.797L23.4174 47.016C25.4527 47.9384 27.8562 47.2958 29.16 45.4801L31.2054 42.6349L31.4728 42.8222C32.8917 43.813 34.5811 44.3432 36.3117 44.341C36.5927 44.341 36.8647 44.3054 37.1412 44.2783C36.1995 46.1672 35.0376 47.9381 33.6798 49.554ZM28.2484 40.5309C28.5044 40.7185 28.7539 40.9209 29.0171 41.1044L29.6663 41.5586L27.6336 44.3868C26.8508 45.475 25.4088 45.8597 24.1878 45.3057L18.1527 42.5867L21.5824 42.3057C23.8918 42.1122 26.1486 41.5113 28.2484 40.5309ZM54.1255 17.293C54.1219 26.1646 49.7939 34.4769 42.5286 39.568L40.0761 41.2847C37.8137 42.861 34.8092 42.861 32.5472 41.2847L30.0957 39.568C22.83 34.4773 18.5015 26.1646 18.4978 17.293V6.73897C18.4978 6.11177 18.7075 5.50257 19.0934 5.0082C19.4794 4.51383 20.0195 4.16266 20.628 4.01052L21.5308 3.7848C31.2364 1.36717 41.3869 1.36717 51.0926 3.7848L51.9953 4.01052C52.6037 4.16273 53.1438 4.5139 53.5298 5.00823C53.9157 5.50256 54.1254 6.11169 54.1255 6.73885V17.293Z" fill="#9F1C20"/>
<path d="M32.8358 17.5997L34.1144 16.2272C31.1831 13.3028 26.438 13.3028 23.5067 16.2272L23.4601 16.2739L24.8324 17.553C25.3587 17.0265 25.9843 16.6096 26.6729 16.3267C27.3614 16.0437 28.0993 15.9002 28.8437 15.9045C29.5882 15.9089 30.3244 16.0611 31.0096 16.3521C31.6949 16.643 32.3156 17.0671 32.8358 17.5997ZM38.5078 16.2272L38.4612 16.2739L39.8336 17.553C40.3599 17.0265 40.9854 16.6096 41.674 16.3267C42.3625 16.0437 43.1004 15.9002 43.8448 15.9045C44.5893 15.9089 45.3255 16.0611 46.0107 16.3521C46.696 16.643 47.3167 17.0671 47.8369 17.5997L49.1155 16.2272C46.1842 13.3028 41.4392 13.3028 38.5078 16.2272ZM13.3688 31.188C14.0943 30.9934 14.8515 30.946 15.5956 31.0487C16.3398 31.1514 17.0558 31.4021 17.7015 31.786L18.5753 30.1255C14.988 28.0544 10.4009 29.2831 8.32934 32.87L8.29688 32.9272L9.10764 33.396L9.95145 33.8067C10.3194 33.1657 10.811 32.6042 11.3976 32.1547C11.9843 31.7052 12.6542 31.3766 13.3688 31.188ZM46.4566 26.3276L39.499 27.5934C37.3913 27.9779 35.2314 27.9779 33.1237 27.5934L26.1646 26.3277C25.9602 26.2905 25.7493 26.3223 25.5649 26.4181C25.3806 26.5139 25.2333 26.6682 25.1462 26.8568C25.0589 27.0454 25.0368 27.2577 25.0834 27.4603C25.1299 27.6628 25.2425 27.8441 25.4034 27.9757L33.343 34.4695C35.0716 35.8768 37.5511 35.8768 39.2797 34.4695L47.218 27.9738C47.379 27.8423 47.4918 27.661 47.5385 27.4584C47.5852 27.2558 47.5633 27.0434 47.4761 26.8547C47.3889 26.6659 47.2414 26.5115 47.0569 26.4158C46.8724 26.32 46.6612 26.2883 46.4567 26.3257L46.4566 26.3276ZM38.0926 33.0197C37.0558 33.8653 35.567 33.8653 34.5301 33.0197L29.3977 28.8213L32.7885 29.4375C35.117 29.8632 37.5034 29.8632 39.8318 29.4375L43.2232 28.8213L38.0926 33.0197Z" fill="#9F1C20"/>
</g>
<defs>
<clipPath id="clip0_20787_4586">
<rect width="56" height="56" fill="white"/>
</clipPath>
</defs>
</svg>
