<svg width="56" height="56" viewBox="0 0 56 56" fill="none" xmlns="http://www.w3.org/2000/svg">
<path d="M28.0625 41.09C24.685 41.09 21.9375 38.3425 21.9375 34.965C21.9375 31.5875 24.685 28.84 28.0625 28.84C31.44 28.84 34.1875 31.5875 34.1875 34.965C34.1875 38.3425 31.44 41.09 28.0625 41.09ZM28.0625 30.59C25.6475 30.59 23.6875 32.55 23.6875 34.965C23.6875 37.38 25.6475 39.34 28.0625 39.34C30.4775 39.34 32.4375 37.38 32.4375 34.965C32.4375 32.55 30.4775 30.59 28.0625 30.59ZM37.6875 53.41H18.4375C17.9563 53.41 17.5625 53.0162 17.5625 52.535V49.8137C17.5625 45.4737 21.0975 41.9387 25.4375 41.9387H30.6875C35.0275 41.9387 38.5625 45.4737 38.5625 49.8137V52.535C38.5625 53.0162 38.1688 53.41 37.6875 53.41ZM19.3125 51.66H36.8125V49.8137C36.8125 46.4362 34.065 43.6887 30.6875 43.6887H25.4375C22.06 43.6887 19.3125 46.4362 19.3125 49.8137V51.66ZM11.4375 37.9225C8.06 37.9225 5.3125 35.175 5.3125 31.7975C5.3125 28.42 8.06 25.6725 11.4375 25.6725C14.815 25.6725 17.5625 28.42 17.5625 31.7975C17.5625 35.175 14.815 37.9225 11.4375 37.9225ZM11.4375 27.4225C9.0225 27.4225 7.0625 29.3825 7.0625 31.7975C7.0625 34.2125 9.0225 36.1725 11.4375 36.1725C13.8525 36.1725 15.8125 34.2125 15.8125 31.7975C15.8125 29.3825 13.8525 27.4225 11.4375 27.4225Z" fill="#9F1C20"/>
<path d="M15.1562 50.2338H1.8125C1.33125 50.2338 0.9375 49.84 0.9375 49.3588V46.6375C0.9375 42.2975 4.4725 38.7625 8.8125 38.7625H14.0625C16.3813 38.7625 18.5775 39.7775 20.0738 41.5538C20.1479 41.6417 20.2039 41.7433 20.2388 41.8529C20.2736 41.9625 20.2865 42.0778 20.2768 42.1924C20.267 42.307 20.2348 42.4185 20.1819 42.5206C20.1291 42.6227 20.0567 42.7134 19.9688 42.7875C19.8808 42.8616 19.7792 42.9177 19.6696 42.9525C19.5601 42.9874 19.4447 43.0003 19.3301 42.9905C19.2156 42.9808 19.104 42.9486 19.0019 42.8957C18.8998 42.8429 18.8091 42.7704 18.735 42.6825C18.1607 42.0007 17.444 41.453 16.6352 41.0781C15.8264 40.7032 14.9452 40.5101 14.0538 40.5125H8.80375C5.42625 40.5125 2.67875 43.26 2.67875 46.6375V48.4838H15.1475C15.6287 48.4838 16.0225 48.8775 16.0225 49.3588C16.0225 49.84 15.6287 50.2338 15.1475 50.2338H15.1562ZM44.6875 37.9225C41.31 37.9225 38.5625 35.175 38.5625 31.7975C38.5625 28.42 41.31 25.6725 44.6875 25.6725C48.065 25.6725 50.8125 28.42 50.8125 31.7975C50.8125 35.175 48.065 37.9225 44.6875 37.9225ZM44.6875 27.4225C42.2725 27.4225 40.3125 29.3825 40.3125 31.7975C40.3125 34.2125 42.2725 36.1725 44.6875 36.1725C47.1025 36.1725 49.0625 34.2125 49.0625 31.7975C49.0625 29.3825 47.1025 27.4225 44.6875 27.4225ZM54.3125 50.2338H40.9688C40.4875 50.2338 40.0938 49.84 40.0938 49.3588C40.0938 48.8775 40.4875 48.4838 40.9688 48.4838H53.4375V46.6375C53.4375 43.26 50.69 40.5125 47.3125 40.5125H42.0625C40.26 40.5125 38.5538 41.3 37.3813 42.6825C37.0662 43.05 36.515 43.0938 36.1475 42.7875C35.9719 42.6366 35.8624 42.4228 35.8428 42.1921C35.8232 41.9614 35.8949 41.7322 36.0425 41.5538C36.7808 40.6789 37.7013 39.9758 38.7396 39.4937C39.7779 39.0115 40.909 38.762 42.0538 38.7625H47.3038C51.6438 38.7625 55.1788 42.2975 55.1788 46.6375V49.3588C55.1788 49.84 54.785 50.2338 54.3038 50.2338H54.3125ZM17.1162 25.9088C16.9237 25.9088 16.7225 25.8388 16.565 25.7075C16.4758 25.6347 16.4018 25.545 16.3473 25.4435C16.2928 25.342 16.2589 25.2307 16.2475 25.1161C16.2362 25.0015 16.2475 24.8857 16.281 24.7755C16.3144 24.6653 16.3693 24.5627 16.4425 24.4738C19.33 20.9738 23.5737 18.97 28.1062 18.97C32.6388 18.97 36.8825 20.9738 39.77 24.465C40.0763 24.8413 40.0238 25.3925 39.6562 25.6988C39.28 26.005 38.7375 25.9525 38.4225 25.585C35.8763 22.4963 32.1138 20.72 28.115 20.72C24.1163 20.72 20.3538 22.4963 17.7987 25.585C17.7169 25.6843 17.6139 25.764 17.4974 25.8185C17.3809 25.873 17.2536 25.9008 17.125 25.9L17.1162 25.9088ZM47.645 23.275C47.3125 23.275 46.98 23.1963 46.665 23.03L44.6613 21.9713C44.6112 21.9454 44.5557 21.9319 44.4994 21.9319C44.443 21.9319 44.3875 21.9454 44.3375 21.9713L42.3338 23.03C41.6163 23.4063 40.7762 23.345 40.1287 22.8725C39.4813 22.4 39.1575 21.6125 39.2975 20.825L39.6825 18.5938C39.6922 18.538 39.6877 18.4807 39.6693 18.4272C39.651 18.3736 39.6194 18.3256 39.5775 18.2875L37.95 16.7038C37.3725 16.1438 37.1712 15.3213 37.4162 14.5513C37.6612 13.7813 38.3175 13.2388 39.1138 13.125L41.3537 12.8013C41.4098 12.7929 41.463 12.7709 41.5087 12.7374C41.5545 12.7039 41.5914 12.6597 41.6163 12.6088L42.6225 10.5788C42.7956 10.2276 43.0636 9.93186 43.396 9.72508C43.7285 9.51829 44.1122 9.4087 44.5037 9.4087C44.8953 9.4087 45.279 9.51829 45.6115 9.72508C45.9439 9.93186 46.2119 10.2276 46.385 10.5788L47.3913 12.6088C47.4437 12.7138 47.54 12.7838 47.6537 12.8013L49.8937 13.125C50.69 13.2388 51.3375 13.79 51.5825 14.5513C51.8363 15.3125 51.6263 16.1438 51.0488 16.7038L49.4212 18.2875C49.3425 18.3663 49.2987 18.48 49.325 18.5938L49.71 20.8338C49.85 21.63 49.5262 22.4088 48.8787 22.8813C48.5112 23.1438 48.0825 23.2838 47.645 23.2838V23.275ZM44.495 11.1475C44.4162 11.1475 44.2675 11.1738 44.18 11.34L43.1738 13.37C42.8675 13.9913 42.2812 14.42 41.5988 14.5163L39.35 14.84C39.1663 14.8663 39.0963 14.9975 39.07 15.0763C39.0438 15.155 39.0262 15.3038 39.1575 15.435L40.785 17.0188C41.275 17.5 41.5025 18.1913 41.3887 18.8738L41.0037 21.1138C40.9688 21.2975 41.0737 21.4025 41.1437 21.455C41.2137 21.4988 41.345 21.5688 41.5112 21.4813L43.515 20.4225C44.1275 20.0988 44.8537 20.0988 45.4662 20.4225L47.47 21.4813C47.6362 21.5688 47.7675 21.4988 47.8375 21.455C47.9075 21.4113 48.0125 21.2975 47.9775 21.1138L47.5925 18.8825C47.4787 18.2 47.6975 17.5088 48.1963 17.0275L49.8237 15.4438C49.955 15.3125 49.9375 15.1638 49.9113 15.085C49.885 15.0063 49.815 14.875 49.6313 14.8488L47.3913 14.525C46.7088 14.4288 46.1138 14 45.8075 13.3788L44.8013 11.3488C44.773 11.2897 44.7282 11.24 44.6723 11.2058C44.6164 11.1717 44.5518 11.1544 44.4863 11.1563L44.495 11.1475ZM14.395 23.275C14.0625 23.275 13.73 23.1963 13.415 23.03L11.4113 21.9713C11.3612 21.9454 11.3057 21.9319 11.2494 21.9319C11.193 21.9319 11.1375 21.9454 11.0875 21.9713L9.08375 23.03C8.36625 23.4063 7.52625 23.345 6.87875 22.8725C6.23125 22.4 5.9075 21.6125 6.0475 20.825L6.4325 18.5938C6.44221 18.538 6.43767 18.4807 6.41932 18.4272C6.40096 18.3736 6.36938 18.3256 6.3275 18.2875L4.7 16.7038C4.1225 16.1438 3.92125 15.3213 4.16625 14.5513C4.41125 13.7813 5.0675 13.2388 5.86375 13.125L8.10375 12.8013C8.15983 12.7929 8.21302 12.7709 8.25874 12.7374C8.30447 12.7039 8.34136 12.6597 8.36625 12.6088L9.3725 10.5788C9.54561 10.2276 9.81356 9.93186 10.146 9.72508C10.4785 9.51829 10.8622 9.4087 11.2537 9.4087C11.6453 9.4087 12.029 9.51829 12.3615 9.72508C12.6939 9.93186 12.9619 10.2276 13.135 10.5788L14.1413 12.6088C14.1938 12.7138 14.29 12.7838 14.4037 12.8013L16.6438 13.125C17.44 13.2388 18.0875 13.79 18.3325 14.5513C18.5863 15.3125 18.3763 16.1438 17.7987 16.7038L16.1712 18.2875C16.0925 18.3663 16.0488 18.48 16.075 18.5938L16.46 20.8338C16.6 21.63 16.2763 22.4088 15.6288 22.8813C15.2613 23.1438 14.8325 23.2838 14.395 23.2838V23.275ZM11.245 11.1475C11.1663 11.1475 11.0175 11.1738 10.93 11.34L9.92375 13.37C9.6175 13.9913 9.03125 14.42 8.34875 14.5163L6.1 14.84C5.91625 14.8663 5.84625 14.9975 5.82 15.0763C5.79375 15.155 5.77625 15.3038 5.9075 15.435L7.535 17.0188C8.025 17.5 8.2525 18.1913 8.13875 18.8738L7.75375 21.1138C7.71875 21.2975 7.82375 21.4025 7.89375 21.455C7.96375 21.4988 8.095 21.5688 8.26125 21.4813L10.265 20.4225C10.8775 20.0988 11.6038 20.0988 12.2163 20.4225L14.22 21.4813C14.3863 21.5688 14.5175 21.4988 14.5875 21.455C14.6575 21.4113 14.7625 21.2975 14.7275 21.1138L14.3425 18.8825C14.2287 18.2 14.4475 17.5088 14.9462 17.0275L16.5738 15.4438C16.705 15.3125 16.6875 15.1638 16.6613 15.085C16.635 15.0063 16.565 14.875 16.3812 14.8488L14.1413 14.525C13.4587 14.4288 12.8638 14 12.5575 13.3788L11.5513 11.3488C11.523 11.2897 11.4782 11.24 11.4223 11.2058C11.3664 11.1717 11.3018 11.1544 11.2362 11.1563L11.245 11.1475ZM31.2475 16.4675C30.915 16.4675 30.5825 16.3888 30.2675 16.2225L28.2638 15.1638C28.2137 15.1379 28.1582 15.1244 28.1019 15.1244C28.0455 15.1244 27.99 15.1379 27.94 15.1638L25.9362 16.2225C25.2188 16.5988 24.3787 16.5375 23.7225 16.065C23.4054 15.8365 23.1592 15.5231 23.0122 15.1609C22.8651 14.7987 22.8232 14.4024 22.8913 14.0175L23.2763 11.7863C23.2854 11.7313 23.2814 11.6749 23.2647 11.6217C23.248 11.5685 23.219 11.5199 23.18 11.48L21.5525 9.89627C21.2707 9.62362 21.0712 9.27721 20.9768 8.8966C20.8824 8.51599 20.897 8.11652 21.0188 7.74377C21.2638 6.98252 21.92 6.43127 22.7075 6.31752L24.9563 5.99377C25.0123 5.98535 25.0655 5.96343 25.1112 5.9299C25.157 5.89637 25.1939 5.85222 25.2188 5.80127L26.225 3.77127C26.3981 3.42009 26.6661 3.12437 26.9985 2.91758C27.331 2.71079 27.7147 2.6012 28.1062 2.6012C28.4978 2.6012 28.8815 2.71079 29.214 2.91758C29.5464 3.12437 29.8144 3.42009 29.9875 3.77127L30.9937 5.80127C31.0462 5.90627 31.1425 5.97627 31.2563 5.99377L33.4963 6.31752C34.2925 6.43127 34.94 6.98252 35.1938 7.74377C35.3145 8.11663 35.3285 8.51583 35.2342 8.89623C35.1399 9.27662 34.941 9.62304 34.66 9.89627L33.0325 11.48C32.9538 11.5588 32.91 11.6725 32.9362 11.7863L33.3213 14.0175C33.4613 14.8138 33.1375 15.5925 32.49 16.065C32.1225 16.3363 31.6938 16.4675 31.2563 16.4675H31.2475ZM28.0975 13.3788C28.43 13.3788 28.7712 13.4575 29.0775 13.615L31.0813 14.6738C31.2475 14.7613 31.3787 14.6913 31.4487 14.6475C31.5187 14.6038 31.6237 14.49 31.5887 14.3063L31.2038 12.075C31.09 11.3925 31.3087 10.7013 31.8075 10.22L33.435 8.63627C33.5662 8.50502 33.5488 8.35627 33.5225 8.27752C33.4963 8.19877 33.4263 8.06752 33.2425 8.04127L31.0025 7.71752C30.6659 7.67079 30.3461 7.54173 30.0714 7.34178C29.7966 7.14183 29.5755 6.87717 29.4275 6.57127L28.4212 4.54127C28.393 4.48215 28.3482 4.43249 28.2923 4.39832C28.2364 4.36416 28.1718 4.34694 28.1062 4.34877C28.0275 4.34877 27.8787 4.37502 27.8 4.54127L26.7938 6.57127C26.4875 7.19252 25.9013 7.62127 25.2188 7.71752L22.97 8.04127C22.7863 8.06752 22.7163 8.19877 22.69 8.27752C22.6637 8.35627 22.6463 8.50502 22.7775 8.63627L24.405 10.22C24.895 10.7013 25.1225 11.3925 25.0088 12.075L24.6237 14.3063C24.5887 14.49 24.6938 14.595 24.7638 14.6475C24.8337 14.6913 24.965 14.7613 25.1313 14.6738L27.135 13.615C27.4412 13.4575 27.7738 13.37 28.115 13.37L28.0975 13.3788Z" fill="#9F1C20"/>
</svg>
