<svg width="46" height="47" viewBox="0 0 46 47" fill="none" xmlns="http://www.w3.org/2000/svg">
<g clip-path="url(#clip0_20787_4548)">
<path d="M42.2418 1.5529C41.1863 0.68838 39.8286 0.25 38.2066 0.25C35.4597 0.25 32.078 1.50534 28.4266 3.88023C28.3507 3.92958 28.2861 3.99436 28.237 4.07036C28.1879 4.14635 28.1553 4.23185 28.1414 4.32128C27.7948 6.55338 27.2346 9.7226 26.8608 11.7977L25.0156 7.45498C24.976 7.36174 24.9149 7.27917 24.8374 7.21396C24.7599 7.14876 24.668 7.10277 24.5694 7.07973C24.4707 7.05669 24.3681 7.05726 24.2697 7.08138C24.1713 7.1055 24.08 7.15249 24.0031 7.21854C21.8234 9.09221 19.7222 11.2408 17.7577 13.6049C16.936 14.5937 16.1481 15.6101 15.3953 16.6523C15.3011 16.7829 15.2592 16.9441 15.278 17.104L15.9378 22.7306L13.537 20.816C13.4646 20.7582 13.3805 20.7167 13.2905 20.6944C13.2005 20.672 13.1067 20.6694 13.0156 20.6866C12.9245 20.7039 12.8382 20.7406 12.7626 20.7943C12.6871 20.848 12.624 20.9174 12.5777 20.9977C10.1612 25.187 9.66458 29.973 9.67341 33.2504C9.677 34.5045 9.75009 35.7574 9.89237 37.0034L7.92568 33.4421C7.88513 33.3675 7.83021 33.3016 7.76409 33.2483C7.69797 33.195 7.62195 33.1553 7.54042 33.1314C7.45889 33.1076 7.37344 33.1002 7.28902 33.1095C7.20459 33.1189 7.12285 33.1448 7.04849 33.1859C6.97413 33.2269 6.90864 33.2823 6.85577 33.3488C6.8029 33.4153 6.76371 33.4916 6.74045 33.5732C6.71718 33.6549 6.71031 33.7404 6.72023 33.8248C6.73015 33.9091 6.75665 33.9907 6.79822 34.0648L9.58812 39.1169C7.06438 41.2269 4.46869 43.2161 1.80189 45.078C1.66424 45.1767 1.57102 45.3257 1.54244 45.4927C1.51386 45.6596 1.5522 45.8311 1.64918 45.97C1.74615 46.1089 1.89393 46.204 2.06052 46.2347C2.2271 46.2654 2.39907 46.2292 2.53918 46.134C5.27342 44.2251 7.94169 42.1796 10.5324 40.0107L16.046 42.1062C16.1214 42.1349 16.1987 42.1485 16.2747 42.1485C16.4253 42.1483 16.571 42.0955 16.6867 41.9991C16.8023 41.9026 16.8806 41.7688 16.9078 41.6207C16.935 41.4726 16.9094 41.3196 16.8356 41.1884C16.7618 41.0572 16.6443 40.9559 16.5036 40.9023L13.0298 39.5821C14.6123 39.275 16.9839 38.7173 19.7062 37.7552C23.5482 36.3973 28.7172 33.9772 32.9531 29.8973C32.9967 29.8647 33.036 29.8267 33.07 29.7842C33.7328 29.1384 34.3727 28.4529 34.9797 27.7225C35.2959 27.3421 35.6071 26.9576 35.9133 26.5691C38.0617 23.8437 39.8751 21.035 41.3034 18.2212C41.3744 18.0807 41.3916 17.9191 41.3518 17.7667C41.312 17.6144 41.2179 17.4819 41.0872 17.3941L38.6107 15.7319L42.6694 14.5221C42.7659 14.4933 42.8543 14.4424 42.9275 14.3733C43.0008 14.3042 43.0568 14.2188 43.091 14.1242C45.1976 8.30258 44.8882 3.72052 42.2419 1.5529H42.2418ZM10.9611 33.2148C10.9563 30.2771 11.3749 26.0706 13.3324 22.3004L16.3579 24.7131C16.4577 24.7926 16.5789 24.8407 16.706 24.8513C16.8332 24.8619 16.9607 24.8345 17.0722 24.7726C17.1838 24.7106 17.2744 24.6168 17.3326 24.5032C17.3907 24.3897 17.4139 24.2613 17.399 24.1346L16.5863 17.2036C17.2776 16.2558 17.9986 15.3301 18.7483 14.4278C19.5463 13.4676 20.3766 12.5346 21.2378 11.6306C20.578 15.2949 21.0947 18.5764 21.7197 20.8356C22.3409 23.0813 23.1526 24.6926 23.525 25.3666C19.6726 29.8233 15.5862 33.9322 11.2791 37.6759C11.1278 36.6148 10.9643 35.0466 10.9611 33.2148ZM19.308 36.5298C16.4588 37.5393 13.9681 38.0966 12.4366 38.3803C15.0709 36.0774 17.6035 33.6606 20.0271 31.1369C21.2949 31.8086 22.7547 32.0596 24.2264 32.0596C26.0453 32.0596 27.8805 31.6779 29.3882 31.2398C25.9526 33.8219 22.2328 35.4936 19.308 36.5298ZM41.9882 13.3812L36.9334 14.8879C36.8163 14.9228 36.7116 14.9903 36.6315 15.0824C36.5513 15.1746 36.499 15.2876 36.4807 15.4084C36.4623 15.5291 36.4787 15.6526 36.5279 15.7644C36.577 15.8762 36.657 15.9717 36.7584 16.0398L39.8937 18.1442C38.5459 20.7134 36.8684 23.2768 34.9017 25.7719C34.6023 26.1516 34.2981 26.5274 33.989 26.8993C33.4165 27.5884 32.8125 28.2362 32.1866 28.8472C31.2936 29.2489 24.9685 31.9609 20.9557 30.1587C26.373 24.3923 31.4312 17.8907 35.9955 10.8192C36.0423 10.7482 36.0746 10.6686 36.0904 10.585C36.1063 10.5014 36.1054 10.4155 36.0879 10.3323C36.0704 10.249 36.0365 10.1701 35.9883 10.1C35.9401 10.0299 35.8784 9.97004 35.807 9.92391C35.7355 9.87777 35.6556 9.84625 35.5718 9.83118C35.4881 9.8161 35.4022 9.81776 35.3192 9.83607C35.2361 9.85437 35.1574 9.88895 35.0878 9.93782C35.0182 9.98669 34.9589 10.0489 34.9134 10.1208C31.652 15.1738 28.1514 19.9087 24.4264 24.313C24.0353 23.5411 23.4268 22.1896 22.9494 20.4501C22.2599 17.9379 21.7131 14.0784 22.979 9.88719C23.3725 9.51063 23.7722 9.14065 24.1779 8.77739L26.5166 14.2812C26.5706 14.4087 26.6643 14.5154 26.7837 14.5853C26.9032 14.6553 27.0421 14.6848 27.1797 14.6694C27.3173 14.6543 27.4464 14.5953 27.5478 14.5011C27.6492 14.4068 27.7175 14.2824 27.7427 14.1463C27.7534 14.0879 28.8002 8.41417 29.3692 4.80501C32.6733 2.69656 35.8035 1.538 38.2064 1.538C39.5232 1.538 40.6063 1.87822 41.4256 2.54926C43.5811 4.31502 43.782 8.25299 41.9881 13.3812H41.9882Z" fill="white"/>
</g>
<defs>
<clipPath id="clip0_20787_4548">
<rect width="46" height="46" fill="white" transform="translate(0 0.25)"/>
</clipPath>
</defs>
</svg>
