<svg width="47" height="47" viewBox="0 0 47 47" fill="none" xmlns="http://www.w3.org/2000/svg">
<path d="M31.5175 17.9599C30.6167 17.0591 29.4092 16.5608 28.125 16.5608H18.5417C17.2575 16.5608 16.0692 17.0591 15.1492 17.9599C14.2292 18.8608 13.75 20.0683 13.75 21.3524V32.8524C13.75 35.4208 14.7467 37.8166 16.5483 39.6374C18.35 41.4391 20.765 42.4358 23.3333 42.4358C25.9017 42.4358 28.2975 41.4391 30.1183 39.6374C31.92 37.8358 32.9167 35.4208 32.9167 32.8524V21.3524C32.9167 20.0683 32.4183 18.8608 31.5175 17.9599ZM31 32.8524C31 34.9033 30.195 36.8199 28.7575 38.2766C25.8633 41.1708 20.8225 41.1708 17.9092 38.2766C17.1942 37.5665 16.6277 36.7212 16.2427 35.7899C15.8577 34.8587 15.6619 33.8601 15.6667 32.8524V21.3524C15.6667 20.6049 15.9733 19.8574 16.51 19.3208C17.0467 18.7841 17.7942 18.4774 18.5417 18.4774H28.125C28.5026 18.4772 28.8766 18.5514 29.2255 18.6958C29.5744 18.8402 29.8915 19.0519 30.1585 19.3189C30.4255 19.586 30.6373 19.903 30.7817 20.2519C30.9261 20.6009 31.0003 20.9748 31 21.3524V32.8524ZM27.7608 11.6541C28.0675 11.6541 28.3742 11.5008 28.5467 11.2324C28.8342 10.7916 28.7192 10.1974 28.2975 9.90994C25.4992 8.01244 21.1483 8.01244 18.35 9.90994C17.9092 10.1974 17.7942 10.8108 18.1008 11.2324C18.4075 11.6733 19.0017 11.7883 19.4233 11.4816C21.5317 10.0441 25.0967 10.0441 27.2242 11.4816C27.3967 11.5966 27.5692 11.6541 27.7608 11.6541ZM20.7458 13.4174C20.6413 13.4868 20.5517 13.5764 20.4824 13.6809C20.4131 13.7855 20.3654 13.9028 20.3422 14.0261C20.3189 14.1494 20.3207 14.2761 20.3472 14.3987C20.3737 14.5213 20.4246 14.6373 20.4967 14.7399C20.8033 15.1808 21.3975 15.2958 21.8192 14.9891C22.6242 14.4524 24.0233 14.4524 24.8283 14.9891C24.931 15.0612 25.047 15.1121 25.1696 15.1386C25.2922 15.1651 25.4189 15.1668 25.5422 15.1436C25.6654 15.1204 25.7828 15.0727 25.8873 15.0034C25.9919 14.934 26.0815 14.8445 26.1508 14.7399C26.4383 14.2991 26.3233 13.7049 25.9017 13.4174C24.445 12.4399 22.1833 12.4399 20.7267 13.4174H20.7458Z" fill="white"/>
<path d="M16.4709 7.89745C20.2467 5.32911 26.3992 5.32911 30.1751 7.89745C30.2777 7.96957 30.3937 8.02039 30.5163 8.04693C30.6389 8.07346 30.7656 8.07517 30.8889 8.05194C31.0122 8.02872 31.1295 7.98103 31.2341 7.9117C31.3386 7.84237 31.4282 7.7528 31.4976 7.64828C31.7851 7.20745 31.6892 6.61328 31.2484 6.32578C26.8784 3.35495 19.7676 3.35495 15.3784 6.32578C14.9376 6.61328 14.8226 7.22661 15.1292 7.64828C15.4359 8.06995 16.0301 8.20411 16.4709 7.89745ZM21.3009 31.3575C20.1892 32.4691 20.1892 34.3091 21.3009 35.4208C21.8397 35.9596 22.5705 36.2623 23.3326 36.2623C24.0946 36.2623 24.8254 35.9596 25.3642 35.4208C25.9031 34.882 26.2058 34.1511 26.2058 33.3891C26.2058 32.6271 25.9031 31.8963 25.3642 31.3575C24.2909 30.2649 22.3742 30.2649 21.3009 31.3575ZM24.0034 34.0599C23.6392 34.4241 23.0067 34.4241 22.6426 34.0599C22.2784 33.6958 22.2784 33.0825 22.6426 32.6991C22.8151 32.5266 23.0642 32.4116 23.3134 32.4116C23.5626 32.4116 23.8117 32.5075 23.9842 32.6991C24.1567 32.8908 24.2717 33.1208 24.2717 33.37C24.2717 33.6191 24.1759 33.8683 23.9842 34.0408L24.0034 34.0599ZM21.3009 23.1541C20.1892 24.2658 20.1892 26.1058 21.3009 27.2175C21.5677 27.4843 21.8844 27.6959 22.233 27.8403C22.5816 27.9847 22.9552 28.059 23.3326 28.059C23.7099 28.059 24.0835 27.9847 24.4321 27.8403C24.7807 27.6959 25.0974 27.4843 25.3642 27.2175C25.631 26.9506 25.8427 26.6339 25.9871 26.2853C26.1314 25.9367 26.2058 25.5631 26.2058 25.1858C26.2058 24.8085 26.1314 24.4348 25.9871 24.0863C25.8427 23.7377 25.631 23.4209 25.3642 23.1541C24.2909 22.0616 22.3742 22.0616 21.3009 23.1541ZM24.0034 25.8758C23.6392 26.24 23.0067 26.24 22.6426 25.8758C22.2784 25.5116 22.2784 24.8983 22.6426 24.5149C22.8151 24.3425 23.0642 24.2275 23.3134 24.2275C23.5626 24.2275 23.8117 24.3233 23.9842 24.5149C24.1567 24.6875 24.2717 24.9366 24.2717 25.1858C24.2717 25.435 24.1759 25.6841 23.9842 25.8566L24.0034 25.8758Z" fill="white"/>
</svg>
