<svg width="47" height="47" viewBox="0 0 47 47" fill="none" xmlns="http://www.w3.org/2000/svg">
<path d="M33.6547 27.7034C33.6296 27.6876 33.6037 27.6789 33.5778 27.6653C33.838 26.5994 33.9444 24.9204 33.9444 22.4242C33.9451 19.7051 30.9299 14.625 23.667 14.625C16.4047 14.625 13.3896 19.7051 13.3896 22.4249C13.3896 24.9211 13.4959 26.6001 13.7561 27.666C13.7303 27.6797 13.7044 27.6876 13.6785 27.7041C13.1301 28.0484 12.8857 28.7607 12.8857 30.0113C12.8857 32.156 13.6246 33.9342 14.7243 34.4345C14.9579 34.5401 15.2037 34.5876 15.4423 34.5811C15.6845 37.5294 16.9546 38.895 17.8243 39.8308C17.9155 39.9293 17.9968 40.0184 18.0765 40.1068C18.037 40.528 17.8695 41.438 17.1616 42.1495C17.0611 42.2501 16.9927 42.3783 16.9652 42.5177C16.9376 42.6572 16.9521 42.8017 17.0067 42.933C17.0614 43.0642 17.1538 43.1763 17.2722 43.255C17.3906 43.3337 17.5297 43.3755 17.6719 43.375C17.7666 43.3752 17.8605 43.3566 17.948 43.3202C18.0355 43.2838 18.1148 43.2303 18.1815 43.163C18.6609 42.6761 19.0245 42.0875 19.2452 41.4408C20.5498 42.9064 21.1255 43.375 23.667 43.375C26.2092 43.375 26.7842 42.9064 28.0887 41.4408C28.3093 42.0878 28.6731 42.6765 29.1532 43.163C29.2198 43.2303 29.2992 43.2838 29.3867 43.3202C29.4742 43.3566 29.568 43.3752 29.6628 43.375C29.8049 43.3751 29.9438 43.3331 30.0621 43.2543C30.1803 43.1754 30.2725 43.0633 30.3271 42.9321C30.3816 42.8009 30.396 42.6564 30.3685 42.517C30.341 42.3776 30.2727 42.2494 30.1724 42.1488C29.4651 41.438 29.2969 40.5295 29.2567 40.1076C29.3372 40.0184 29.4191 39.9279 29.5111 39.8294C30.3801 38.8943 31.6494 37.528 31.8924 34.5804C32.1374 34.5919 32.3775 34.5401 32.6104 34.4337C33.7101 33.9342 34.4482 32.1567 34.4482 30.0113C34.4482 28.7607 34.2038 28.0484 33.6547 27.7034ZM23.667 16.0625C29.8382 16.0625 32.5076 20.2751 32.5076 22.4249C32.5076 25.5371 32.3179 26.879 32.1619 27.4554C31.8916 26.7977 31.6271 25.4903 31.4697 24.7119C31.0421 22.5981 30.7596 21.2008 29.7045 21.2008C29.2567 21.2008 28.9196 21.2619 28.4927 21.3388C27.7329 21.4761 26.5858 21.6831 23.6619 21.7047L23.6181 21.7061C22.0304 21.6989 20.8559 21.3475 19.9101 21.0643C19.2488 20.8659 18.6767 20.6948 18.1312 20.6948C16.836 20.6948 16.4105 22.5384 15.8721 24.8722C15.6939 25.6434 15.4236 26.8143 15.167 27.4382C15.0118 26.8517 14.8264 25.5062 14.8264 22.4249C14.8271 20.2751 17.4965 16.0625 23.667 16.0625ZM32.0145 33.1263C31.9685 33.1457 31.8859 33.1846 31.6861 33.0106C31.5821 32.92 31.4542 32.8612 31.3176 32.8413C31.1811 32.8213 31.0417 32.8411 30.9162 32.8983C30.7906 32.9554 30.6841 33.0475 30.6094 33.1635C30.5348 33.2795 30.4951 33.4146 30.4951 33.5526C30.4951 36.659 29.3652 37.8744 28.4574 38.8512C28.2159 39.1114 27.9867 39.3586 27.794 39.6217C27.5195 39.9171 27.2852 40.1816 27.0753 40.4173C25.9325 41.7053 25.7269 41.9375 23.667 41.9375C21.6063 41.9375 21.4008 41.7053 20.2572 40.4159C20.0213 40.1483 19.7822 39.8836 19.5399 39.6217C19.348 39.3579 19.1187 39.1121 18.8772 38.8519C17.9687 37.8751 16.8389 36.6597 16.8389 33.5526C16.8389 33.4146 16.7992 33.2795 16.7245 33.1635C16.6498 33.0475 16.5434 32.9554 16.4178 32.8983C16.2922 32.8411 16.1528 32.8213 16.0163 32.8413C15.8798 32.8612 15.7519 32.92 15.6479 33.0106C15.4488 33.1838 15.3633 33.1465 15.3187 33.1263C14.9176 32.9431 14.3232 31.8268 14.3232 30.0113C14.3232 29.4248 14.3894 29.1279 14.4361 28.9914L14.449 28.9971C14.6402 29.143 14.8594 29.2127 15.1139 29.2127C16.3465 29.2127 16.7562 27.4396 17.2737 25.1949C17.508 24.1801 17.8925 22.5111 18.2282 22.1352C18.5559 22.1582 18.9958 22.2905 19.4982 22.4407C20.4879 22.7375 21.8435 23.1436 23.667 23.1436C23.6854 23.1436 23.7039 23.1429 23.7223 23.1415C26.7332 23.117 27.945 22.8985 28.7485 22.7533C29.0346 22.7016 29.2488 22.6628 29.4723 22.647C29.6714 23.0739 29.9029 24.2131 30.0603 24.9973C30.5181 27.2592 30.9134 29.2135 32.2201 29.2135H32.2215C32.4753 29.2135 32.6952 29.1437 32.8857 28.9978L32.8979 28.9921C32.9446 29.1287 33.0107 29.4248 33.0107 30.0113C33.0107 31.8268 32.4163 32.9431 32.0145 33.1263ZM22.2295 8.87499H24.1076L22.9849 12.2416C22.9551 12.3312 22.9432 12.4258 22.9499 12.5199C22.9566 12.6141 22.9818 12.706 23.0241 12.7905C23.0663 12.8749 23.1248 12.9502 23.1961 13.012C23.2675 13.0738 23.3503 13.121 23.4399 13.1508C23.5294 13.1807 23.624 13.1926 23.7182 13.1858C23.8123 13.1791 23.9043 13.1539 23.9887 13.1117C24.0731 13.0694 24.1484 13.0109 24.2102 12.9396C24.2721 12.8683 24.3192 12.7854 24.3491 12.6959L25.7866 8.38337C25.8229 8.27538 25.8329 8.16028 25.8157 8.04765C25.7986 7.93502 25.7549 7.8281 25.6881 7.73578C25.6213 7.64348 25.5336 7.56832 25.4321 7.51647C25.3307 7.46463 25.2184 7.43756 25.1045 7.43749H23.2264L24.3491 4.07087C24.4065 3.89083 24.3907 3.69542 24.3051 3.52693C24.2196 3.35845 24.0711 3.23044 23.8918 3.17062C23.7126 3.11081 23.517 3.124 23.3474 3.20733C23.1777 3.29067 23.0478 3.43745 22.9856 3.6159L21.5481 7.9284C21.512 8.03644 21.5021 8.15151 21.5192 8.26413C21.5363 8.37675 21.5799 8.48369 21.6464 8.57614C21.713 8.66859 21.8006 8.7439 21.9019 8.79586C22.0033 8.84782 22.1156 8.87495 22.2295 8.87499ZM37.1126 6.21059C37.0459 6.14378 36.9667 6.09078 36.8795 6.05462C36.7923 6.01846 36.6989 5.99985 36.6045 5.99985C36.5101 5.99985 36.4166 6.01846 36.3294 6.05462C36.2422 6.09078 36.163 6.14378 36.0963 6.21059L32.5026 9.80434C32.3387 9.96749 32.2639 10.1997 32.3013 10.4275C32.3387 10.6553 32.4832 10.8516 32.6894 10.9551L34.5603 11.8902L31.8435 14.0637C31.6959 14.1831 31.6017 14.3561 31.5813 14.5449C31.5608 14.7336 31.6159 14.9228 31.7345 15.0711C31.853 15.2193 32.0254 15.3147 32.2141 15.3363C32.4027 15.3579 32.5922 15.304 32.7412 15.1863L36.3349 12.3113C36.4291 12.236 36.5027 12.1381 36.5491 12.0268C36.5955 11.9155 36.6131 11.7943 36.6004 11.6744C36.5876 11.5545 36.5449 11.4397 36.4762 11.3406C36.4074 11.2415 36.3149 11.1613 36.207 11.1074L34.224 10.1163L37.1126 7.22762C37.1795 7.16087 37.2325 7.0816 37.2686 6.99434C37.3048 6.90709 37.3234 6.81356 37.3234 6.7191C37.3234 6.62465 37.3048 6.53112 37.2686 6.44387C37.2325 6.35661 37.1795 6.27734 37.1126 6.21059ZM15.7974 14.8521C15.8641 15.0247 15.9947 15.165 16.162 15.2438C16.3294 15.3226 16.5207 15.3339 16.6962 15.2753C16.8717 15.2167 17.0179 15.0928 17.1044 14.9293C17.191 14.7658 17.2112 14.5752 17.1609 14.3972L15.7234 10.0847C15.691 9.98682 15.6379 9.89711 15.5677 9.82163C15.4976 9.74615 15.412 9.68667 15.3168 9.64725C15.2215 9.60783 15.119 9.58938 15.016 9.59317C14.913 9.59696 14.812 9.6229 14.72 9.66921L12.6198 10.7193L11.4202 6.52037C11.3953 6.42853 11.3523 6.34255 11.2939 6.26743C11.2355 6.19231 11.1627 6.12954 11.0798 6.08277C10.9969 6.03599 10.9056 6.00615 10.8111 5.99496C10.7166 5.98377 10.6208 5.99146 10.5292 6.01759C10.4377 6.04371 10.3523 6.08775 10.278 6.14715C10.2036 6.20655 10.1418 6.28013 10.0961 6.36361C10.0504 6.44709 10.0217 6.53882 10.0118 6.63346C10.0018 6.72811 10.0107 6.8238 10.038 6.91496L11.4755 11.9462C11.5049 12.0476 11.5561 12.1413 11.6256 12.2207C11.6951 12.3001 11.7811 12.3633 11.8777 12.4058C11.9743 12.4483 12.079 12.4691 12.1845 12.4667C12.29 12.4642 12.3937 12.4387 12.4883 12.3918L14.6222 11.3252L15.7974 14.8521Z" fill="white"/>
</svg>
