<svg width="48" height="48" viewBox="0 0 48 48" fill="none" xmlns="http://www.w3.org/2000/svg">
<path d="M15.8497 3.83691C14.0481 5.49281 12.8017 7.69256 12.4023 10.1584M35.6347 10.4028C34.878 4.92853 29.9574 0.703125 24.0002 0.703125C21.951 0.703125 20.0245 1.20309 18.3479 2.08191" stroke="white" stroke-width="1.40625" stroke-miterlimit="10" stroke-linecap="round" stroke-linejoin="round"/>
<path d="M17.9454 23.6767C16.2759 21.7832 15.2361 19.228 15.2361 16.7367V12.6015C15.2361 7.76122 19.1617 3.8374 24.0041 3.8374C28.8465 3.8374 32.7721 7.76122 32.7721 12.6015V16.7367C32.7721 19.4112 31.5736 22.1595 29.6841 24.0837M15.1946 18.0297H12.4022C11.5156 18.0297 10.7969 17.3109 10.7969 16.4243V12.0128C10.7969 11.1261 11.5157 10.4074 12.4022 10.4074H15.1946V18.0297ZM32.8136 18.0297H35.6059C36.4926 18.0297 37.2113 17.3109 37.2113 16.4243V12.0128C37.2113 11.1261 36.4925 10.4074 35.6059 10.4074H32.8136V18.0297Z" stroke="white" stroke-width="1.40625" stroke-miterlimit="10" stroke-linecap="round" stroke-linejoin="round"/>
<path d="M25.7292 21.1002H33.641C34.7997 21.1002 35.7391 20.1608 35.7391 19.002V18.0297M7.82422 42.2556V26.2755C7.82422 25.0648 8.80578 24.0831 10.0167 24.0831H37.9907C39.2016 24.0831 40.1832 25.0647 40.1832 26.2755V42.2556" stroke="white" stroke-width="1.40625" stroke-miterlimit="10" stroke-linecap="round" stroke-linejoin="round"/>
<path d="M31.6716 47.297H8.19666C6.58219 47.297 5.27344 45.9883 5.27344 44.3738V43.3501C5.27344 42.7447 5.76422 42.2539 6.36966 42.2539H41.634C42.2394 42.2539 42.7302 42.7447 42.7302 43.3501V44.3738C42.7302 45.9883 41.4215 47.297 39.807 47.297H34.9956" stroke="white" stroke-width="1.40625" stroke-miterlimit="10" stroke-linecap="round" stroke-linejoin="round"/>
<path d="M24.0026 35.61C25.3503 35.61 26.4428 34.5175 26.4428 33.1699C26.4428 31.8222 25.3503 30.7297 24.0026 30.7297C22.655 30.7297 21.5625 31.8222 21.5625 33.1699C21.5625 34.5175 22.655 35.61 24.0026 35.61Z" stroke="white" stroke-width="1.40625" stroke-miterlimit="10" stroke-linecap="round" stroke-linejoin="round"/>
<path d="M15.2422 12.2805H32.7652" stroke="white" stroke-width="1.40625" stroke-miterlimit="10" stroke-linecap="round" stroke-linejoin="round"/>
</svg>
