<svg width="37" height="37" viewBox="0 0 37 37" fill="none" xmlns="http://www.w3.org/2000/svg">
<rect x="1.29277" y="1.01543" width="35.0491" height="35.0491" rx="17.5246" stroke="#CFCFCF" stroke-width="1.03086"/>
<g clip-path="url(#clip0_20787_3607)">
<path d="M24.0367 11.6709H12.8498C10.8131 11.6709 9.15625 13.3331 9.15625 15.3758V21.6118C9.15625 23.6549 10.8131 25.3167 12.8498 25.3167H24.0367C26.0734 25.3167 27.7303 23.6545 27.7303 21.6118V15.3758C27.7303 13.3331 26.0734 11.6709 24.0367 11.6709ZM26.9721 21.6122C26.9721 23.2372 25.6553 24.559 24.0367 24.559H12.8498C11.2312 24.559 9.91437 23.2368 9.91437 21.6122V15.3758C9.91437 13.7512 11.2312 12.429 12.8498 12.429H24.0367C25.6553 12.429 26.9721 13.7512 26.9721 15.3758V21.6122Z" fill="#D9DADA"/>
<path d="M21.8009 18.3569L16.549 15.2808C16.4914 15.2474 16.426 15.2297 16.3593 15.2295C16.2927 15.2293 16.2272 15.2467 16.1694 15.2798C16.1116 15.313 16.0635 15.3607 16.03 15.4183C15.9965 15.4759 15.9788 15.5413 15.9785 15.6079V21.7597C15.9787 21.8602 16.0187 21.9565 16.0898 22.0275C16.1608 22.0986 16.2571 22.1386 16.3576 22.1388C16.4249 22.1388 16.4909 22.1209 16.549 22.0869L21.8009 19.0115C21.8581 18.9781 21.9055 18.9304 21.9385 18.8729C21.9714 18.8155 21.9888 18.7504 21.9888 18.6842C21.9888 18.618 21.9714 18.5529 21.9385 18.4955C21.9055 18.4381 21.8581 18.3903 21.8009 18.3569ZM16.7366 21.0983V16.269L20.8593 18.684L16.7366 21.0983Z" fill="#D9DADA"/>
</g>
<defs>
<clipPath id="clip0_20787_3607">
<rect width="18.574" height="18.574" fill="white" transform="translate(9.15625 9.20703)"/>
</clipPath>
</defs>
</svg>
