<?xml version="1.0" encoding="UTF-8"?>
<svg version="1.1" xmlns="http://www.w3.org/2000/svg" width="200" height="200">
<path d="M0 0 C66 0 132 0 200 0 C200 66 200 132 200 200 C134 200 68 200 0 200 C0 134 0 68 0 0 Z " fill="#FEFEFE" transform="translate(0,0)"/>
<path d="M0 0 C0 1.32 0 2.64 0 4 C0.77601562 3.94199219 1.55203125 3.88398437 2.3515625 3.82421875 C12.20483976 3.41268569 20.3230348 5.72917147 29.15649414 10.05639648 C32.95627129 11.31733395 36.62848562 11.32897552 40.58984375 11.38671875 C42.27804039 11.43797273 43.96619121 11.49075426 45.65429688 11.54492188 C48.29856244 11.62130031 50.94158409 11.68756135 53.58666992 11.72729492 C56.15209945 11.77052579 58.71328504 11.85656234 61.27734375 11.94921875 C62.06189438 11.9505632 62.84644501 11.95190765 63.6547699 11.95329285 C68.07036828 12.14943477 70.44503252 12.89873044 73.52001953 16.16918945 C76.06074098 19.59188361 76.67759949 22.02710397 76.40234375 26.34375 C76.31243164 28.08978516 76.31243164 28.08978516 76.22070312 29.87109375 C76.12724609 31.06863281 76.03378906 32.26617187 75.9375 33.5 C75.87111328 34.69753906 75.80472656 35.89507812 75.73632812 37.12890625 C74.78316749 53.21683251 74.78316749 53.21683251 73 55 C69.36593851 54.68943607 65.74797241 54.28328309 62.125 53.86328125 C57.96992725 53.72349747 55.04144919 55.04885315 51.35693359 56.85717773 C48.94819095 58.025121 46.52618106 58.99181379 44.01953125 59.9296875 C43.17237549 60.24719971 42.32521973 60.56471191 41.45239258 60.8918457 C40.58122803 61.21628662 39.71006348 61.54072754 38.8125 61.875 C32.57728911 64.21710759 26.4099919 66.6314756 20.3125 69.3125 C2.39472645 77.0853403 2.39472645 77.0853403 -5 75 C-10.43675825 70.62619769 -13.3093303 64.51558164 -16.45507812 58.41796875 C-18.99250487 53.93579889 -20.87667124 51.58469377 -25.88671875 50.01953125 C-27.58257073 49.63920047 -29.28752268 49.29662584 -31 49 C-32.27101563 48.75894531 -33.54203125 48.51789063 -34.8515625 48.26953125 C-43.53801436 47.21744547 -52.12266201 46.79909688 -60.875 46.75 C-62.454021 46.73610229 -62.454021 46.73610229 -64.06494141 46.72192383 C-65.54486572 46.72808716 -65.54486572 46.72808716 -67.0546875 46.734375 C-67.93624512 46.73663086 -68.81780273 46.73888672 -69.72607422 46.74121094 C-72.27969867 46.85636941 -72.27969867 46.85636941 -75 49 C-78.625 49.1875 -78.625 49.1875 -82 49 C-83 48 -83 48 -83.09765625 45.93359375 C-83.08605469 45.10988281 -83.07445313 44.28617188 -83.0625 43.4375 C-83.05347656 42.61121094 -83.04445313 41.78492188 -83.03515625 40.93359375 C-83.02355469 40.29550781 -83.01195313 39.65742187 -83 39 C-83.61875 38.731875 -84.2375 38.46375 -84.875 38.1875 C-87 37 -87 37 -89 34 C-92.04195427 33.66659529 -92.04195427 33.66659529 -95 34 C-95.495 34.495 -95.495 34.495 -96 35 C-98.1796875 35.203125 -98.1796875 35.203125 -100.875 35.25 C-101.75929688 35.27578125 -102.64359375 35.3015625 -103.5546875 35.328125 C-106 35 -106 35 -107.80078125 33.73046875 C-109.82053978 30.81596377 -109.50045574 27.38620054 -109 24 C-108.26953125 21.79296875 -108.26953125 21.79296875 -107 20 C-104.8359375 19.390625 -104.8359375 19.390625 -102.375 19.25 C-101.55773437 19.19328125 -100.74046875 19.1365625 -99.8984375 19.078125 C-99.27195312 19.05234375 -98.64546875 19.0265625 -98 19 C-98.66 18.34 -99.32 17.68 -100 17 C-100.125 14.375 -100.125 14.375 -100 12 C-99.34 12 -98.68 12 -98 12 C-98 11.34 -98 10.68 -98 10 C-71.27 9.505 -71.27 9.505 -44 9 C-43.67 8.34 -43.34 7.68 -43 7 C-32.11 7 -21.22 7 -10 7 C-9.67 5.68 -9.34 4.36 -9 3 C-5.65188866 0.46629412 -4.29875783 0 0 0 Z " fill="#161616" transform="translate(116,59)"/>
<path d="M0 0 C1.0209375 0.9590625 1.0209375 0.9590625 2.0625 1.9375 C5.46408839 4.3258493 7.90433701 4.67877153 12 5 C12 5.33 12 5.66 12 6 C13.51980469 5.87818359 13.51980469 5.87818359 15.0703125 5.75390625 C25.38455106 5.15996655 25.38455106 5.15996655 29.05078125 7.06640625 C30.7158956 8.93790097 31.80930828 10.78921273 33 13 C33.69186583 14.17261336 34.3875034 15.34300568 35.0859375 16.51171875 C37.5050623 20.61083545 39.8707611 24.7415222 42 29 C44.01669827 30.13350534 44.01669827 30.13350534 46 31 C45.30028076 31.24645264 44.60056152 31.49290527 43.87963867 31.74682617 C40.64710845 32.88864399 37.41731597 34.03802799 34.1875 35.1875 C33.08728516 35.57486328 31.98707031 35.96222656 30.85351562 36.36132812 C24.57605686 38.601955 18.50432965 41.06358015 12.46313477 43.87768555 C4.27178524 47.61003105 -4.92602579 51.46354423 -14 50 C-19.42379826 45.58385408 -22.30067778 39.5323534 -25.45507812 33.41796875 C-28.13273499 28.68809312 -30.06051934 26.5394115 -35.36328125 24.9453125 C-36.90167478 24.59684209 -38.44587263 24.26976728 -40 24 C-39.34 23.67 -38.68 23.34 -38 23 C-37.53476937 21.10466658 -37.53476937 21.10466658 -37.375 18.9375 C-37.25125 17.638125 -37.1275 16.33875 -37 15 C-35.02 14.34 -33.04 13.68 -31 13 C-31.66 10.36 -32.32 7.72 -33 5 C-31.9330188 4.96241577 -31.9330188 4.96241577 -30.84448242 4.92407227 C-27.62530483 4.80811561 -24.40642015 4.68538755 -21.1875 4.5625 C-20.06794922 4.52318359 -18.94839844 4.48386719 -17.79492188 4.44335938 C-16.18520508 4.38051758 -16.18520508 4.38051758 -14.54296875 4.31640625 C-13.0583313 4.26141968 -13.0583313 4.26141968 -11.54370117 4.20532227 C-8.8781649 4.09209669 -8.8781649 4.09209669 -6 3 C-5.34 3.66 -4.68 4.32 -4 5 C-2.68 5 -1.36 5 0 5 C0 3.35 0 1.7 0 0 Z " fill="#272727" transform="translate(125,84)"/>
<path d="M0 0 C0 1.32 0 2.64 0 4 C0.77601562 3.94199219 1.55203125 3.88398437 2.3515625 3.82421875 C12.20880222 3.41252019 20.29622734 5.7439473 29.14331055 10.04101562 C33.02974546 11.34568329 36.72491565 11.46365899 40.80078125 11.6328125 C41.63715622 11.67437469 42.47353119 11.71593689 43.33525085 11.75875854 C45.9940156 11.88900899 48.65315873 12.00717043 51.3125 12.125 C53.12048106 12.21144121 54.92842454 12.29867203 56.73632812 12.38671875 C61.15716921 12.60029445 65.57838904 12.80303359 70 13 C70 13.33 70 13.66 70 14 C36.44236278 15.80613679 36.44236278 15.80613679 29 13 C29.556875 13.4125 30.11375 13.825 30.6875 14.25 C34.86043724 17.40789845 38.56456727 20.53622712 42.0625 24.4375 C44.73053489 27.2357263 44.73053489 27.2357263 48.27734375 28.50390625 C50.7225346 28.55135299 50.7225346 28.55135299 54 28 C53.67 28.66 53.34 29.32 53 30 C51.33333333 30.33333333 49.66666667 30.66666667 48 31 C47.67 31.66 47.34 32.32 47 33 C46.32195312 32.21496094 45.64390625 31.42992188 44.9453125 30.62109375 C35.84262934 19.39802998 35.84262934 19.39802998 23.3984375 13.828125 C22.60695312 13.88484375 21.81546875 13.9415625 21 14 C20.01 14 19.02 14 18 14 C17.67 15.32 17.34 16.64 17 18 C15.329375 17.75443359 15.329375 17.75443359 13.625 17.50390625 C8.74020485 16.89330686 3.91604855 16.88841503 -1 16.9375 C-1.87011719 16.94201172 -2.74023438 16.94652344 -3.63671875 16.95117188 C-5.75784293 16.9628264 -7.8789311 16.98075643 -10 17 C-10 18.32 -10 19.64 -10 21 C-12.31 21 -14.62 21 -17 21 C-17 21.33 -17 21.66 -17 22 C-15.05396726 22.59070014 -15.05396726 22.59070014 -13 23 C-12.505 22.505 -12.505 22.505 -12 22 C-11.34 22 -10.68 22 -10 22 C-9.87625 22.78375 -9.7525 23.5675 -9.625 24.375 C-9.20882007 27.14057822 -9.20882007 27.14057822 -7 29 C-12.61 29 -18.22 29 -24 29 C-24 27.68 -24 26.36 -24 25 C-26.64 25 -29.28 25 -32 25 C-31.979375 25.804375 -31.95875 26.60875 -31.9375 27.4375 C-32 30 -32 30 -33 31 C-34.68608966 31.07205511 -36.37500659 31.08386068 -38.0625 31.0625 C-38.98160156 31.05347656 -39.90070313 31.04445313 -40.84765625 31.03515625 C-41.55792969 31.02355469 -42.26820312 31.01195313 -43 31 C-43.33 29.35 -43.66 27.7 -44 26 C-44.83963287 26.24398781 -44.83963287 26.24398781 -45.69622803 26.49290466 C-48.16091602 27.03542007 -50.33792627 27.12016335 -52.86035156 27.11352539 C-53.82104553 27.11344986 -54.7817395 27.11337433 -55.77154541 27.11329651 C-56.80084167 27.10813522 -57.83013794 27.10297394 -58.890625 27.09765625 C-59.95037537 27.0962413 -61.01012573 27.09482635 -62.10198975 27.09336853 C-65.48468862 27.08777382 -68.86732115 27.07522225 -72.25 27.0625 C-74.54426988 27.05748432 -76.83854079 27.05292153 -79.1328125 27.04882812 C-84.75523094 27.03780611 -90.37761073 27.02107321 -96 27 C-95.67 27.99 -95.34 28.98 -95 30 C-94.3758168 29.98525131 -93.75163361 29.97050262 -93.10853577 29.95530701 C-86.63669421 29.80337789 -80.16472244 29.65851041 -73.69262695 29.51782227 C-71.27429152 29.46431279 -68.8559958 29.40897687 -66.43774414 29.35180664 C-62.97030201 29.27014458 -59.50277206 29.1949613 -56.03515625 29.12109375 C-54.94662857 29.09405869 -53.85810089 29.06702362 -52.73658752 29.03916931 C-51.23514442 29.00902489 -51.23514442 29.00902489 -49.70336914 28.97827148 C-48.81734512 28.95828598 -47.93132111 28.93830048 -47.01844788 28.91770935 C-45 29 -45 29 -44 30 C-43.95936168 31.66617115 -43.957279 33.33388095 -44 35 C-45.32 35 -46.64 35 -48 35 C-48 34.01 -48 33.02 -48 32 C-60.87 32 -73.74 32 -87 32 C-87.33 33.32 -87.66 34.64 -88 36 C-88.33 35.34 -88.66 34.68 -89 34 C-90.99954746 33.95745644 -93.00041636 33.95919217 -95 34 C-95.495 34.495 -95.495 34.495 -96 35 C-98.1796875 35.203125 -98.1796875 35.203125 -100.875 35.25 C-101.75929688 35.27578125 -102.64359375 35.3015625 -103.5546875 35.328125 C-106 35 -106 35 -107.80078125 33.73046875 C-109.82053978 30.81596377 -109.50045574 27.38620054 -109 24 C-108.26953125 21.79296875 -108.26953125 21.79296875 -107 20 C-104.8359375 19.390625 -104.8359375 19.390625 -102.375 19.25 C-101.55773437 19.19328125 -100.74046875 19.1365625 -99.8984375 19.078125 C-99.27195312 19.05234375 -98.64546875 19.0265625 -98 19 C-98.66 18.34 -99.32 17.68 -100 17 C-100.125 14.375 -100.125 14.375 -100 12 C-99.34 12 -98.68 12 -98 12 C-98 11.34 -98 10.68 -98 10 C-71.27 9.505 -71.27 9.505 -44 9 C-43.67 8.34 -43.34 7.68 -43 7 C-32.11 7 -21.22 7 -10 7 C-9.67 5.68 -9.34 4.36 -9 3 C-5.65188866 0.46629412 -4.29875783 0 0 0 Z " fill="#232121" transform="translate(116,59)"/>
<path d="M0 0 C0.33 0 0.66 0 1 0 C1 2.31 1 4.62 1 7 C4.63 6.67 8.26 6.34 12 6 C12.495 6.99 12.495 6.99 13 8 C14.97888961 8.72693904 16.97954558 9.39816251 19 10 C19 10.66 19 11.32 19 12 C18.34 12 17.68 12 17 12 C16.34 15.96 15.68 19.92 15 24 C12.95840905 24.0272616 10.91671037 24.04651345 8.875 24.0625 C7.73804688 24.07410156 6.60109375 24.08570312 5.4296875 24.09765625 C2 24 2 24 -0.85620117 23.50439453 C-5.95344256 22.68658753 -11.03531159 22.81557227 -16.1875 22.8125 C-17.8262207 22.79413086 -17.8262207 22.79413086 -19.49804688 22.77539062 C-20.54412109 22.77345703 -21.59019531 22.77152344 -22.66796875 22.76953125 C-23.61953857 22.76542236 -24.5711084 22.76131348 -25.55151367 22.75708008 C-28.25677844 22.83185393 -28.25677844 22.83185393 -31 25 C-34.625 25.1875 -34.625 25.1875 -38 25 C-39 24 -39 24 -39.09765625 21.93359375 C-39.08605469 21.10988281 -39.07445312 20.28617188 -39.0625 19.4375 C-39.05347656 18.61121094 -39.04445313 17.78492187 -39.03515625 16.93359375 C-39.02355469 16.29550781 -39.01195312 15.65742187 -39 15 C-40.32 14.34 -41.64 13.68 -43 13 C-43 11.35 -43 9.7 -43 8 C-30.13 8 -17.26 8 -4 8 C-4 8.99 -4 9.98 -4 11 C-2.68 11 -1.36 11 0 11 C-0.495 8.525 -0.495 8.525 -1 6 C-17.5 6 -34 6 -51 6 C-51.33 6.66 -51.66 7.32 -52 8 C-52 6.35 -52 4.7 -52 3 C-34.84 2.67 -17.68 2.34 0 2 C0 1.34 0 0.68 0 0 Z " fill="#272727" transform="translate(72,83)"/>
<path d="M0 0 C3.63 0 7.26 0 11 0 C11.33 0.99 11.66 1.98 12 3 C18.45954549 3.0253794 24.9190781 3.04287928 31.37866211 3.05493164 C33.5756071 3.05995675 35.77254876 3.06677788 37.96948242 3.07543945 C41.12940292 3.08758475 44.28927915 3.09324659 47.44921875 3.09765625 C48.91979988 3.10539818 48.91979988 3.10539818 50.42008972 3.11329651 C51.80095512 3.11340981 51.80095512 3.11340981 53.2097168 3.11352539 C54.0157988 3.115746 54.8218808 3.11796661 55.65238953 3.12025452 C58.18086474 2.99073534 60.53226148 2.55273825 63 2 C63 3.32 63 4.64 63 6 C59.97363945 6.87942612 57.28656931 7.12180676 54.13964844 7.11352539 C53.17895447 7.11344986 52.2182605 7.11337433 51.22845459 7.11329651 C50.19915833 7.10813522 49.16986206 7.10297394 48.109375 7.09765625 C47.04962463 7.0962413 45.98987427 7.09482635 44.89801025 7.09336853 C41.51531138 7.08777382 38.13267885 7.07522225 34.75 7.0625 C32.45573012 7.05748432 30.16145921 7.05292153 27.8671875 7.04882812 C22.24476906 7.03780611 16.62238927 7.02107321 11 7 C11.33 7.99 11.66 8.98 12 10 C12.6241832 9.98525131 13.24836639 9.97050262 13.89146423 9.95530701 C20.36330579 9.80337789 26.83527756 9.65851041 33.30737305 9.51782227 C35.72570848 9.46431279 38.1440042 9.40897687 40.56225586 9.35180664 C44.02969799 9.27014458 47.49722794 9.1949613 50.96484375 9.12109375 C52.05337143 9.09405869 53.14189911 9.06702362 54.26341248 9.03916931 C55.76485558 9.00902489 55.76485558 9.00902489 57.29663086 8.97827148 C58.18265488 8.95828598 59.06867889 8.93830048 59.98155212 8.91770935 C62 9 62 9 63 10 C63.04063832 11.66617115 63.042721 13.33388095 63 15 C61.68 15 60.36 15 59 15 C59 14.01 59 13.02 59 12 C46.13 12 33.26 12 20 12 C19.67 13.32 19.34 14.64 19 16 C18.67 15.34 18.34 14.68 18 14 C16.00045254 13.95745644 13.99958364 13.95919217 12 14 C11.67 14.33 11.34 14.66 11 15 C8.8203125 15.203125 8.8203125 15.203125 6.125 15.25 C5.24070312 15.27578125 4.35640625 15.3015625 3.4453125 15.328125 C1 15 1 15 -0.80078125 13.73046875 C-2.82053978 10.81596377 -2.50045574 7.38620054 -2 4 C-1.34 2.68 -0.68 1.36 0 0 Z " fill="#2D2D2D" transform="translate(9,79)"/>
<path d="M0 0 C3.53354877 2.83887277 5.72178092 6.11362628 8 10 C9.0209375 11.6396875 9.0209375 11.6396875 10.0625 13.3125 C11 16 11 16 11.125 18.6875 C9.71139286 21.59324801 8.03740083 22.41870835 5.0390625 23.4921875 C1.44932223 24.38618412 -1.28994268 24.42574428 -5 24 C-8.38472559 21.15817099 -10.77321299 17.69970759 -13.25 14.0625 C-13.95640625 13.04285156 -14.6628125 12.02320312 -15.390625 10.97265625 C-17.05841464 7.89210305 -17.71750276 6.41971071 -17 3 C-12.65004015 -1.76172789 -5.86247073 -1.3361956 0 0 Z " fill="#F8F8F8" transform="translate(148,92)"/>
<path d="M0 0 C4.29 0 8.58 0 13 0 C13 6 13 6 12 8 C12.99 8 13.98 8 15 8 C15 8.66 15 9.32 15 10 C16.32 10 17.64 10 19 10 C20.5390224 12.55303715 22.05595193 15.11539935 23.5625 17.6875 C24.21895508 18.7693457 24.21895508 18.7693457 24.88867188 19.87304688 C28.02029496 25.27324731 28.02029496 25.27324731 27.91796875 28.9375 C27 31 27 31 24.75 32.3125 C21.9268873 33.01827817 19.89057876 33.32216977 17 33 C14.01970817 30.22647483 12.10563291 26.46729974 10 23 C9.53625977 22.24960449 9.07251953 21.49920898 8.59472656 20.72607422 C7.04406889 18.20339955 5.5182025 15.66732543 4 13.125 C3.24178955 11.87626099 3.24178955 11.87626099 2.46826172 10.60229492 C1.77240967 9.41083862 1.77240967 9.41083862 1.0625 8.1953125 C0.64097656 7.48391113 0.21945313 6.77250977 -0.21484375 6.03955078 C-1 4 -1 4 0 0 Z " fill="#F7F7F7" transform="translate(96,93)"/>
<path d="M0 0 C17.82 0 35.64 0 54 0 C53.67 1.32 53.34 2.64 53 4 C53 3.01 53 2.02 53 1 C52.01 1 51.02 1 50 1 C50.495 2.98 50.495 2.98 51 5 C50.01 5 49.02 5 48 5 C48 5.66 48 6.32 48 7 C45.74513402 8.12743299 44.41076572 8.1644278 41.9050293 8.23706055 C40.63812508 8.27666145 40.63812508 8.27666145 39.34562683 8.31706238 C38.43106216 8.34004898 37.5164975 8.36303558 36.57421875 8.38671875 C35.63447708 8.41224319 34.69473541 8.43776764 33.72651672 8.46406555 C31.73514239 8.5161281 29.74369751 8.56554846 27.75219727 8.61254883 C24.71003638 8.68694884 21.66864232 8.77767052 18.62695312 8.86914062 C16.69273334 8.91767367 14.75848879 8.96523146 12.82421875 9.01171875 C11.91572678 9.04077805 11.0072348 9.06983734 10.07121277 9.09977722 C5.57742665 9.18893176 2.08008246 9.1617835 -2 7 C-2 5.35 -2 3.7 -2 2 C-1.34 2 -0.68 2 0 2 C0 1.34 0 0.68 0 0 Z " fill="#181818" transform="translate(18,69)"/>
<path d="M0 0 C1.42626953 1.7565918 1.42626953 1.7565918 2.8828125 4.19921875 C3.41003906 5.07900391 3.93726562 5.95878906 4.48046875 6.86523438 C5.02316406 7.79658203 5.56585938 8.72792969 6.125 9.6875 C6.95064453 11.05551758 6.95064453 11.05551758 7.79296875 12.45117188 C10.3175027 16.71558733 12.08974339 20.111303 13 25 C13.53625 25.825 14.0725 26.65 14.625 27.5 C16 30 16 30 15.6875 32.8125 C15.460625 33.534375 15.23375 34.25625 15 35 C15.66 35.33 16.32 35.66 17 36 C16.01 36.495 16.01 36.495 15 37 C11.77924275 34.14352948 9.55227093 31.45128128 7.45703125 27.6796875 C7.02197266 26.89722656 6.58691406 26.11476563 6.13867188 25.30859375 C5.25569019 23.68827684 4.39095076 22.05788298 3.54492188 20.41796875 C0.86726501 15.68809312 -1.06051934 13.5394115 -6.36328125 11.9453125 C-7.90167478 11.59684209 -9.44587263 11.26976728 -11 11 C-10.34 10.67 -9.68 10.34 -9 10 C-8.53476937 8.10466658 -8.53476937 8.10466658 -8.375 5.9375 C-8.25125 4.638125 -8.1275 3.33875 -8 2 C-5.09399739 0.74335022 -3.20395416 0 0 0 Z " fill="#313131" transform="translate(96,97)"/>
<path d="M0 0 C0.33 0 0.66 0 1 0 C1 3.96 1 7.92 1 12 C0.67 12 0.34 12 0 12 C-0.495 9.03 -0.495 9.03 -1 6 C-17.5 6 -34 6 -51 6 C-51.33 6.66 -51.66 7.32 -52 8 C-52 6.35 -52 4.7 -52 3 C-34.84 2.67 -17.68 2.34 0 2 C0 1.34 0 0.68 0 0 Z " fill="#181818" transform="translate(72,83)"/>
<path d="M0 0 C1.98 0 3.96 0 6 0 C6.33 0.66 6.66 1.32 7 2 C13.72495833 4.55366661 20.49960846 4.37661445 27.61328125 4.47851562 C28.51949219 4.50494141 29.42570312 4.53136719 30.359375 4.55859375 C31.58865723 4.57877563 31.58865723 4.57877563 32.84277344 4.59936523 C35 5 35 5 38 8 C24.8 8 11.6 8 -2 8 C-2 6.35 -2 4.7 -2 3 C-1.34 3 -0.68 3 0 3 C0 2.01 0 1.02 0 0 Z " fill="#201E1E" transform="translate(25,59)"/>
<path d="M0 0 C12.87 0 25.74 0 39 0 C39 1.32 39 2.64 39 4 C26.13 4 13.26 4 0 4 C0 2.68 0 1.36 0 0 Z " fill="#0C0C0C" transform="translate(29,91)"/>
<path d="M0 0 C15.18 0 30.36 0 46 0 C45.67 1.32 45.34 2.64 45 4 C29.82 3.67 14.64 3.34 -1 3 C-0.67 2.01 -0.34 1.02 0 0 Z " fill="#070707" transform="translate(22,79)"/>
<path d="M0 0 C10.75564624 -0.80399349 19.45639183 1.3360354 29.14331055 6.04101562 C33.02974546 7.34568329 36.72491565 7.46365899 40.80078125 7.6328125 C42.0553437 7.69515579 42.0553437 7.69515579 43.33525085 7.75875854 C45.9940156 7.88900899 48.65315873 8.00717043 51.3125 8.125 C53.12048106 8.21144121 54.92842454 8.29867203 56.73632812 8.38671875 C61.15716921 8.60029445 65.57838904 8.80303359 70 9 C70 9.33 70 9.66 70 10 C64.84341427 10.27753739 59.68698433 10.53198827 54.52734375 10.74609375 C51.39762797 10.87665274 48.31266752 11.06274112 45.19140625 11.34765625 C36.53014497 11.91952824 30.27095593 9.35374481 22.49682617 5.93383789 C14.89407799 2.68240785 8.25126492 1.79996934 0 2 C0 1.34 0 0.68 0 0 Z " fill="#8B8B8B" transform="translate(116,63)"/>
<path d="M0 0 C1.02083176 0.00007553 2.04166351 0.00015106 3.09342957 0.00022888 C4.19350845 0.00539017 5.29358734 0.01055145 6.42700195 0.01586914 C7.5547554 0.01728409 8.68250885 0.01869904 9.84443665 0.02015686 C13.45141232 0.02576069 17.05832624 0.03831386 20.6652832 0.05102539 C23.10864168 0.0560399 25.55200113 0.06060289 27.99536133 0.06469727 C33.98952307 0.07573136 39.98364873 0.09247324 45.9777832 0.11352539 C45.6477832 1.10352539 45.3177832 2.09352539 44.9777832 3.11352539 C27.1577832 3.11352539 9.3377832 3.11352539 -9.0222168 3.11352539 C-7.17914294 -0.57262232 -3.67480748 -0.0090736 0 0 Z " fill="#9E9E9E" transform="translate(27.022216796875,65.886474609375)"/>
<path d="M0 0 C1.32 0 2.64 0 4 0 C4 1.32 4 2.64 4 4 C-12.83 4 -29.66 4 -47 4 C-47 3.34 -47 2.68 -47 2 C-31.49 2 -15.98 2 0 2 C0 1.34 0 0.68 0 0 Z " fill="#717171" transform="translate(68,81)"/>
<path d="M0 0 C0 1.98 0 3.96 0 6 C1.65 6 3.3 6 5 6 C4.67 6.99 4.34 7.98 4 9 C1.36 9.33 -1.28 9.66 -4 10 C-4 9.01 -4 8.02 -4 7 C-4.99 8.485 -4.99 8.485 -6 10 C-8.3828125 10.29296875 -8.3828125 10.29296875 -11.125 10.1875 C-12.03507812 10.16042969 -12.94515625 10.13335937 -13.8828125 10.10546875 C-14.58148438 10.07066406 -15.28015625 10.03585938 -16 10 C-16 9.01 -16 8.02 -16 7 C-14.02 7 -12.04 7 -10 7 C-9.938125 6.401875 -9.87625 5.80375 -9.8125 5.1875 C-8.11540622 0.61840137 -4.49142318 0 0 0 Z " fill="#211C1B" transform="translate(116,59)"/>
<path d="M0 0 C3.3 0 6.6 0 10 0 C10.87890625 6.93359375 10.87890625 6.93359375 11 9 C10 10 10 10 7.71484375 10.09765625 C5.14322917 10.06510417 2.57161458 10.03255208 0 10 C0 6.7 0 3.4 0 0 Z " fill="#272727" transform="translate(73,80)"/>
<path d="M0 0 C0.33 0.99 0.66 1.98 1 3 C-0.98 3.99 -0.98 3.99 -3 5 C0.3 4.67 3.6 4.34 7 4 C4.87310198 6.12689802 3.57369071 6.67868001 0.7890625 7.69140625 C-0.04367188 7.99626953 -0.87640625 8.30113281 -1.734375 8.61523438 C-2.60578125 8.92783203 -3.4771875 9.24042969 -4.375 9.5625 C-5.23867187 9.87896484 -6.10234375 10.19542969 -6.9921875 10.52148438 C-10.63938577 11.84697078 -14.21768037 13.11481052 -18 14 C-18 12.35 -18 10.7 -18 9 C-15.69 9.33 -13.38 9.66 -11 10 C-11 9.34 -11 8.68 -11 8 C-12.32 7.34 -13.64 6.68 -15 6 C-12.71172461 3.71172461 -11.72877489 3.57744649 -8.625 3 C-5.42284463 2.40026522 -2.86280057 1.56865785 0 0 Z " fill="#3E3E3E" transform="translate(158,112)"/>
<path d="M0 0 C4.89946476 -0.27256181 7.28663268 -0.35023264 11.31640625 2.65234375 C14.08276682 6.79193367 13.55319355 11.50646877 13.12890625 16.27734375 C12.79890625 16.27734375 12.46890625 16.27734375 12.12890625 16.27734375 C12.04640625 15.18421875 11.96390625 14.09109375 11.87890625 12.96484375 C11.49201416 9.24457711 11.49201416 9.24457711 9.06640625 7.33984375 C8.42703125 6.98921875 7.78765625 6.63859375 7.12890625 6.27734375 C6.46890625 6.93734375 5.80890625 7.59734375 5.12890625 8.27734375 C2.50390625 7.90234375 2.50390625 7.90234375 0.12890625 7.27734375 C0.12890625 5.62734375 0.12890625 3.97734375 0.12890625 2.27734375 C-0.36609375 2.44234375 -0.86109375 2.60734375 -1.37109375 2.77734375 C-4.90553464 3.48423193 -8.26800076 3.3373953 -11.87109375 3.27734375 C-11.87109375 2.61734375 -11.87109375 1.95734375 -11.87109375 1.27734375 C-7.9181836 0.7589293 -3.96742349 0.38324771 0 0 Z " fill="#2F2F2F" transform="translate(178.87109375,72.72265625)"/>
<path d="M0 0 C2.64 0 5.28 0 8 0 C8 0.66 8 1.32 8 2 C8.99 2 9.98 2 11 2 C11 3.32 11 4.64 11 6 C7.04 6 3.08 6 -1 6 C-1 7.98 -1 9.96 -1 12 C-1.33 12 -1.66 12 -2 12 C-2.28571429 3.42857143 -2.28571429 3.42857143 0 0 Z " fill="#555555" transform="translate(9,79)"/>
<path d="M0 0 C1.32 0 2.64 0 4 0 C4 0.66 4 1.32 4 2 C4.72058594 2.23976563 5.44117188 2.47953125 6.18359375 2.7265625 C9.4092027 4.18502092 11.47526832 5.96771488 14.0625 8.375 C14.89910156 9.14585938 15.73570312 9.91671875 16.59765625 10.7109375 C19 13 19 13 21.04296875 15.2734375 C22.84405534 17.16184364 22.84405534 17.16184364 25.140625 17.390625 C27.09375 17.26041667 29.046875 17.13020833 31 17 C30.67 17.66 30.34 18.32 30 19 C28.33333333 19.33333333 26.66666667 19.66666667 25 20 C24.67 20.66 24.34 21.32 24 22 C23.35675781 21.23816406 22.71351563 20.47632812 22.05078125 19.69140625 C16.10481252 12.83666987 10.08199231 7.57101948 2.45703125 2.64453125 C1.64621094 2.10183594 0.83539063 1.55914062 0 1 C0 0.67 0 0.34 0 0 Z " fill="#2A2A2A" transform="translate(139,70)"/>
<path d="M0 0 C7.92 0 15.84 0 24 0 C24 1.65 24 3.3 24 5 C22.88625 4.979375 21.7725 4.95875 20.625 4.9375 C17.16784079 4.73619282 17.16784079 4.73619282 15 6 C15 4.35 15 2.7 15 1 C10.05 1 5.1 1 0 1 C0 0.67 0 0.34 0 0 Z " fill="#3B3B38" transform="translate(82,75)"/>
<path d="M0 0 C1.33333333 0.33333333 2.66666667 0.66666667 4 1 C4.33 0.67 4.66 0.34 5 0 C5.66 0 6.32 0 7 0 C7.12375 0.78375 7.2475 1.5675 7.375 2.375 C7.79117993 5.14057822 7.79117993 5.14057822 10 7 C5.71 7 1.42 7 -3 7 C-1.68 6.34 -0.36 5.68 1 5 C0.01 5 -0.98 5 -2 5 C-1.125 1.125 -1.125 1.125 0 0 Z " fill="#2D562D" transform="translate(99,81)"/>
<path d="M0 0 C1.63001953 0.01353516 1.63001953 0.01353516 3.29296875 0.02734375 C4.12441406 0.03894531 4.95585938 0.05054687 5.8125 0.0625 C5.4825 0.7225 5.1525 1.3825 4.8125 2.0625 C3.8225 2.0625 2.8325 2.0625 1.8125 2.0625 C1.4825 3.3825 1.1525 4.7025 0.8125 6.0625 C0.4825 5.4025 0.1525 4.7425 -0.1875 4.0625 C-2.18704746 4.01995644 -4.18791636 4.02169217 -6.1875 4.0625 C-6.5175 4.3925 -6.8475 4.7225 -7.1875 5.0625 C-8.87358966 5.13455511 -10.56250659 5.14636068 -12.25 5.125 C-13.16910156 5.11597656 -14.08820312 5.10695313 -15.03515625 5.09765625 C-15.74542969 5.08605469 -16.45570312 5.07445313 -17.1875 5.0625 C-17.1875 4.7325 -17.1875 4.4025 -17.1875 4.0625 C-14.5475 4.0625 -11.9075 4.0625 -9.1875 4.0625 C-9.1875 3.0725 -9.1875 2.0825 -9.1875 1.0625 C-5.90230525 -0.03256492 -3.45086585 -0.03710608 0 0 Z " fill="#555555" transform="translate(27.1875,88.9375)"/>
<path d="M0 0 C3.25524265 3.02272532 5.61820737 6.25718301 8 10 C7.67 10.66 7.34 11.32 7 12 C3.7 11.01 0.4 10.02 -3 9 C-2.34 8.67 -1.68 8.34 -1 8 C-0.53476937 6.10466658 -0.53476937 6.10466658 -0.375 3.9375 C-0.25125 2.638125 -0.1275 1.33875 0 0 Z " fill="#414141" transform="translate(88,99)"/>
<path d="M0 0 C4.50416844 3.67006318 6.76790201 8.74908096 9 14 C9 14.66 9 15.32 9 16 C8.01 16 7.02 16 6 16 C4.9901527 14.08850332 3.99245505 12.17058431 3 10.25 C2.443125 9.18265625 1.88625 8.1153125 1.3125 7.015625 C0 4 0 4 0 0 Z " fill="#202020" transform="translate(164,92)"/>
<path d="M0 0 C1.02802734 0.09345703 2.05605469 0.18691406 3.11523438 0.28320312 C4.72301758 0.43885742 4.72301758 0.43885742 6.36328125 0.59765625 C7.44673828 0.69755859 8.53019531 0.79746094 9.64648438 0.90039062 C12.32349116 1.14804323 14.99981711 1.40151876 17.67578125 1.66015625 C17.67578125 1.99015625 17.67578125 2.32015625 17.67578125 2.66015625 C8.76578125 2.66015625 -0.14421875 2.66015625 -9.32421875 2.66015625 C-7.37153216 -1.24521693 -3.78521155 -0.35551711 0 0 Z " fill="#7F7F7F" transform="translate(27.32421875,66.33984375)"/>
<path d="M0 0 C3.3 0 6.6 0 10 0 C10 1.32 10 2.64 10 4 C6.7 4 3.4 4 0 4 C0 2.68 0 1.36 0 0 Z " fill="#404040" transform="translate(73,91)"/>
<path d="M0 0 C3.96 0 7.92 0 12 0 C11.01 0.495 11.01 0.495 10 1 C10 1.99 10 2.98 10 4 C6.7 4 3.4 4 0 4 C0 2.68 0 1.36 0 0 Z " fill="#383838" transform="translate(8,89)"/>
<path d="M0 0 C0.33 0.99 0.66 1.98 1 3 C-0.72290605 3.70304222 -2.45367466 4.38683491 -4.1875 5.0625 C-5.63189453 5.63677734 -5.63189453 5.63677734 -7.10546875 6.22265625 C-10.20934675 7.05622133 -11.94919117 6.88679818 -15 6 C-12.71172461 3.71172461 -11.72877489 3.57744649 -8.625 3 C-5.42284463 2.40026522 -2.86280057 1.56865785 0 0 Z " fill="#595959" transform="translate(158,112)"/>
<path d="M0 0 C5.94 0 11.88 0 18 0 C17.67 0.99 17.34 1.98 17 3 C15.94039062 2.91621094 14.88078125 2.83242187 13.7890625 2.74609375 C12.40106375 2.64293168 11.01304165 2.54008337 9.625 2.4375 C8.92632812 2.38142578 8.22765625 2.32535156 7.5078125 2.26757812 C3.63471135 1.88500096 3.63471135 1.88500096 0 3 C0 2.01 0 1.02 0 0 Z " fill="#484848" transform="translate(172,111)"/>
<path d="M0 0 C-0.99 0 -1.98 0 -3 0 C-3.33 1.32 -3.66 2.64 -4 4 C-4 2.35 -4 0.7 -4 -1 C-8.29 -1 -12.58 -1 -17 -1 C-17.33 -0.01 -17.66 0.98 -18 2 C-18.33 0.68 -18.66 -0.64 -19 -2 C-16.58388629 -2.24942467 -14.16940879 -2.47507501 -11.75 -2.6875 C-11.06808594 -2.76033203 -10.38617188 -2.83316406 -9.68359375 -2.90820312 C-5.40676163 -3.26114558 -3.08478293 -3.0927334 0 0 Z " fill="#363737" transform="translate(113,94)"/>
<path d="M0 0 C2.64 0 5.28 0 8 0 C8 0.99 8 1.98 8 3 C7.195625 3.12375 6.39125 3.2475 5.5625 3.375 C4.2940625 3.684375 4.2940625 3.684375 3 4 C2.67 4.66 2.34 5.32 2 6 C2 5.34 2 4.68 2 4 C1.34 4 0.68 4 0 4 C0 2.68 0 1.36 0 0 Z " fill="#1A1A1A" transform="translate(8,85)"/>
<path d="M0 0 C3.3 0 6.6 0 10 0 C10 0.99 10 1.98 10 3 C6.7 3 3.4 3 0 3 C0 2.01 0 1.02 0 0 Z " fill="#979797" transform="translate(73,80)"/>
<path d="M0 0 C0.66 0.165 1.32 0.33 2 0.5 C4.54615101 0.9243585 6.63248912 1.00730904 9.1875 0.9375 C13 1 13 1 15 3 C13.06601192 3.27585566 11.12746091 3.51987415 9.1875 3.75 C8.10855469 3.88921875 7.02960937 4.0284375 5.91796875 4.171875 C3 4 3 4 1.11328125 2.015625 C0.74589844 1.35046875 0.37851562 0.6853125 0 0 Z " fill="#313131" transform="translate(17,76)"/>
<path d="M0 0 C2.0625 0.4375 2.0625 0.4375 4 1 C4 2.32 4 3.64 4 5 C2 5 0 5 -2 5 C-1.125 1.125 -1.125 1.125 0 0 Z " fill="#5E4541" transform="translate(99,81)"/>
<path d="M0 0 C0 1.65 0 3.3 0 5 C-2.31 5 -4.62 5 -7 5 C-7 4.01 -7 3.02 -7 2 C-2.25 0 -2.25 0 0 0 Z " fill="#434343" transform="translate(125,123)"/>
<path d="M0 0 C6.875 0.875 6.875 0.875 8 2 C8.04080783 3.99958364 8.04254356 6.00045254 8 8 C4 3.25 4 3.25 4 1 C2.68 0.67 1.36 0.34 0 0 Z " fill="#404040" transform="translate(111,102)"/>
<path d="M0 0 C0.66 0.33 1.32 0.66 2 1 C2 2.65 2 4.3 2 6 C0.68 6 -0.64 6 -2 6 C-2 4.35 -2 2.7 -2 1 C-1.34 0.67 -0.68 0.34 0 0 Z " fill="#343434" transform="translate(70,88)"/>
<path d="M0 0 C2.97 0.495 2.97 0.495 6 1 C6 1.99 6 2.98 6 4 C4.02 4 2.04 4 0 4 C0 2.68 0 1.36 0 0 Z " fill="#6E6E6E" transform="translate(14,80)"/>
<path d="M0 0 C0.66 0.99 1.32 1.98 2 3 C0.625 5 0.625 5 -1 7 C-1.66 7 -2.32 7 -3 7 C-2.25 2.25 -2.25 2.25 0 0 Z " fill="#202020" transform="translate(182,102)"/>
</svg>
